Cormorant-Bold Italic.ufo
<glyph name="exclam" format="1">
  <advance width="219"/>
  <unicode hex="0021"/>
  <outline>
    <contour>
      <point x="147" y="322"/>
      <point x="196" y="489"/>
      <point x="250" y="621" type="curve" smooth="yes"/>
      <point x="253" y="626"/>
      <point x="218" y="633"/>
      <point x="186" y="633" type="curve" smooth="yes"/>
      <point x="157" y="633"/>
      <point x="120" y="626"/>
      <point x="120" y="621" type="curve" smooth="yes"/>
      <point x="118" y="489"/>
      <point x="111" y="324"/>
      <point x="102" y="192" type="curve" smooth="yes"/>
      <point x="101" y="186"/>
      <point x="112" y="184"/>
      <point x="113" y="191" type="curve" smooth="yes"/>
    </contour>
    <component base="period" xOffset="12"/>
  </outline>
</glyph>
<glyph name="numbersign" format="1">
  <advance width="444"/>
  <unicode hex="0023"/>
  <outline>
    <contour>
      <point x="261" y="471" type="line" smooth="yes"/>
      <point x="263" y="477"/>
      <point x="222" y="492"/>
      <point x="221" y="487" type="curve" smooth="yes"/>
      <point x="35" y="-70" type="line" smooth="yes"/>
      <point x="34" y="-75"/>
      <point x="74" y="-89"/>
      <point x="75" y="-83" type="curve" smooth="yes"/>
    </contour>
    <contour>
      <point x="357" y="73" type="line" smooth="yes"/>
      <point x="361" y="73"/>
      <point x="363" y="119"/>
      <point x="358" y="119" type="curve" smooth="yes"/>
      <point x="22" y="119" type="line" smooth="yes"/>
      <point x="18" y="119"/>
      <point x="18" y="73"/>
      <point x="22" y="73" type="curve" smooth="yes"/>
    </contour>
    <contour>
      <point x="412" y="471" type="line" smooth="yes"/>
      <point x="414" y="477"/>
      <point x="373" y="492"/>
      <point x="372" y="487" type="curve" smooth="yes"/>
      <point x="186" y="-70" type="line" smooth="yes"/>
      <point x="185" y="-75"/>
      <point x="225" y="-89"/>
      <point x="226" y="-83" type="curve" smooth="yes"/>
    </contour>
    <contour>
      <point x="423" y="271" type="line" smooth="yes"/>
      <point x="428" y="271"/>
      <point x="429" y="318"/>
      <point x="425" y="318" type="curve" smooth="yes"/>
      <point x="89" y="318" type="line" smooth="yes"/>
      <point x="84" y="318"/>
      <point x="84" y="271"/>
      <point x="89" y="271" type="curve" smooth="yes"/>
    </contour>
  </outline>
</glyph>
<glyph name="dollar" format="1">
  <advance width="404"/>
  <unicode hex="0024"/>
  <outline>
    <contour>
      <point x="143" y="-109"/>
      <point x="168" y="-112"/>
      <point x="170" y="-103" type="curve" smooth="yes"/>
      <point x="287" y="560" type="line" smooth="yes"/>
      <point x="288" y="570"/>
      <point x="263" y="573"/>
      <point x="262" y="564" type="curve" smooth="yes"/>
      <point x="145" y="-99" type="line" smooth="yes"/>
    </contour>
    <contour>
      <point x="175" y="425"/>
      <point x="201" y="457"/>
      <point x="250" y="457" type="curve" smooth="yes"/>
      <point x="329" y="457"/>
      <point x="357" y="357"/>
      <point x="357" y="339" type="curve" smooth="yes"/>
      <point x="357" y="333"/>
      <point x="366" y="333"/>
      <point x="367" y="338" type="curve" smooth="yes"/>
      <point x="384" y="434" type="line" smooth="yes"/>
      <point x="385" y="442"/>
      <point x="382" y="449"/>
      <point x="372" y="455" type="curve" smooth="yes"/>
      <point x="352" y="465"/>
      <point x="308" y="480"/>
      <point x="265" y="480" type="curve" smooth="yes"/>
      <point x="185" y="480"/>
      <point x="103" y="437"/>
      <point x="89" y="359" type="curve" smooth="yes"/>
      <point x="77" y="289"/>
      <point x="126" y="253"/>
      <point x="175" y="221" type="curve" smooth="yes"/>
      <point x="226" y="187"/>
      <point x="277" y="156"/>
      <point x="265" y="91" type="curve" smooth="yes"/>
      <point x="256" y="36"/>
      <point x="218" y="11"/>
      <point x="180" y="11" type="curve" smooth="yes"/>
      <point x="113" y="11"/>
      <point x="75" y="103"/>
      <point x="60" y="163" type="curve" smooth="yes"/>
      <point x="58" y="168"/>
      <point x="50" y="167"/>
      <point x="49" y="163" type="curve" smooth="yes"/>
      <point x="34" y="49" type="line" smooth="yes"/>
      <point x="32" y="37"/>
      <point x="35" y="32"/>
      <point x="39" y="28" type="curve" smooth="yes"/>
      <point x="57" y="13"/>
      <point x="109" y="-12"/>
      <point x="167" y="-12" type="curve" smooth="yes"/>
      <point x="260" y="-12"/>
      <point x="338" y="47"/>
      <point x="351" y="125" type="curve" smooth="yes"/>
      <point x="365" y="204"/>
      <point x="310" y="240"/>
      <point x="257" y="273" type="curve" smooth="yes"/>
      <point x="207" y="304"/>
      <point x="159" y="330"/>
      <point x="168" y="386" type="curve" smooth="yes"/>
    </contour>
    <contour>
      <point x="258" y="468" type="move" name="top"/>
    </contour>
    <contour>
      <point x="171" y="0" type="move" name="bottom"/>
    </contour>
  </outline>
</glyph>
<glyph name="ampersand" format="1">
  <advance width="765"/>
  <unicode hex="0026"/>
  <outline>
    <contour>
      <point x="463" y="-12"/>
      <point x="579" y="96"/>
      <point x="593" y="303" type="curve"/>
      <point x="571" y="309" type="line"/>
      <point x="564" y="145"/>
      <point x="465" y="46"/>
      <point x="353" y="46" type="curve" smooth="yes"/>
      <point x="240" y="46"/>
      <point x="144" y="145"/>
      <point x="167" y="310" type="curve" smooth="yes"/>
      <point x="177" y="375"/>
      <point x="202" y="435"/>
      <point x="250" y="435" type="curve" smooth="yes"/>
      <point x="273" y="435"/>
      <point x="301" y="422"/>
      <point x="317" y="363" type="curve"/>
      <point x="400" y="441" type="line"/>
      <point x="373" y="458"/>
      <point x="338" y="465"/>
      <point x="304" y="465" type="curve" smooth="yes"/>
      <point x="193" y="465"/>
      <point x="97" y="388"/>
      <point x="74" y="278" type="curve" smooth="yes"/>
      <point x="42" y="133"/>
      <point x="145" y="-12"/>
      <point x="316" y="-12" type="curve" smooth="yes"/>
    </contour>
    <contour>
      <point x="292" y="325"/>
      <point x="488" y="446"/>
      <point x="488" y="605" type="curve" smooth="yes"/>
      <point x="488" y="651"/>
      <point x="470" y="688"/>
      <point x="429" y="688" type="curve" smooth="yes"/>
      <point x="399" y="688"/>
      <point x="379" y="668"/>
      <point x="379" y="637" type="curve" smooth="yes"/>
      <point x="379" y="580"/>
      <point x="437" y="601"/>
      <point x="437" y="544" type="curve" smooth="yes"/>
      <point x="437" y="450"/>
      <point x="216" y="294"/>
      <point x="112" y="205" type="curve"/>
      <point x="126" y="191" type="line"/>
    </contour>
    <contour>
      <point x="413" y="211"/>
      <point x="422" y="229"/>
      <point x="422" y="242" type="curve" smooth="yes"/>
      <point x="422" y="264"/>
      <point x="396" y="276"/>
      <point x="396" y="297" type="curve" smooth="yes"/>
      <point x="396" y="309"/>
      <point x="406" y="318"/>
      <point x="429" y="318" type="curve" smooth="yes"/>
      <point x="496" y="318"/>
      <point x="584" y="235"/>
      <point x="655" y="235" type="curve" smooth="yes"/>
      <point x="719" y="235"/>
      <point x="777" y="303"/>
      <point x="777" y="360" type="curve" smooth="yes"/>
      <point x="777" y="391"/>
      <point x="760" y="399"/>
      <point x="742" y="399" type="curve" smooth="yes"/>
      <point x="719" y="399"/>
      <point x="706" y="387"/>
      <point x="706" y="370" type="curve" smooth="yes"/>
      <point x="706" y="342"/>
      <point x="738" y="333"/>
      <point x="738" y="316" type="curve" smooth="yes"/>
      <point x="738" y="304"/>
      <point x="725" y="297"/>
      <point x="708" y="297" type="curve" smooth="yes"/>
      <point x="650" y="297"/>
      <point x="564" y="374"/>
      <point x="490" y="374" type="curve" smooth="yes"/>
      <point x="423" y="374"/>
      <point x="352" y="310"/>
      <point x="352" y="250" type="curve" smooth="yes"/>
      <point x="352" y="221"/>
      <point x="370" y="211"/>
      <point x="388" y="211" type="curve" smooth="yes"/>
    </contour>
  </outline>
</glyph>
<glyph name="quotesingle" format="1">
  <advance width="139"/>
  <unicode hex="0027"/>
  <outline>
    <contour>
      <point x="73" y="291"/>
      <point x="89" y="292"/>
      <point x="90" y="296" type="curve" smooth="yes"/>
      <point x="208" y="637" type="line" smooth="yes"/>
      <point x="213" y="648"/>
      <point x="95" y="629"/>
      <point x="94" y="609" type="curve" smooth="yes"/>
      <point x="73" y="295" type="line" smooth="yes"/>
    </contour>
  </outline>
</glyph>
<glyph name="parenleft" format="1">
  <advance width="290"/>
  <unicode hex="0028"/>
  <outline>
    <contour>
      <point x="207" y="-119"/>
      <point x="212" y="-112"/>
      <point x="211" y="-109" type="curve" smooth="yes"/>
      <point x="164" y="13"/>
      <point x="154" y="143"/>
      <point x="182" y="304" type="curve" smooth="yes"/>
      <point x="214" y="491"/>
      <point x="270" y="621"/>
      <point x="358" y="717" type="curve" smooth="yes"/>
      <point x="360" y="720"/>
      <point x="356" y="727"/>
      <point x="352" y="725" type="curve" smooth="yes"/>
      <point x="211" y="653"/>
      <point x="104" y="491"/>
      <point x="71" y="304" type="curve" smooth="yes"/>
      <point x="39" y="116"/>
      <point x="77" y="-44"/>
      <point x="204" y="-117" type="curve" smooth="yes"/>
    </contour>
    <contour>
      <point x="296" y="386" type="move" name="top"/>
    </contour>
  </outline>
</glyph>
<glyph name="asterisk" format="1">
  <advance width="448"/>
  <unicode hex="002A"/>
  <outline>
    <contour>
      <point x="254" y="485" type="line" smooth="yes"/>
      <point x="255" y="488"/>
      <point x="248" y="494"/>
      <point x="244" y="491" type="curve" smooth="yes"/>
      <point x="98" y="404" type="line" smooth="yes"/>
      <point x="88" y="396"/>
      <point x="201" y="339"/>
      <point x="208" y="359" type="curve" smooth="yes"/>
    </contour>
    <contour>
      <point x="313" y="302"/>
      <point x="404" y="392"/>
      <point x="387" y="405" type="curve" smooth="yes"/>
      <point x="281" y="487" type="line" smooth="yes"/>
      <point x="278" y="489"/>
      <point x="271" y="484"/>
      <point x="273" y="481" type="curve" smooth="yes"/>
      <point x="310" y="315" type="line" smooth="yes"/>
    </contour>
    <contour>
      <point x="247" y="510"/>
      <point x="249" y="519"/>
      <point x="247" y="522" type="curve" smooth="yes"/>
      <point x="118" y="634" type="line" smooth="yes"/>
      <point x="108" y="641"/>
      <point x="89" y="516"/>
      <point x="109" y="516" type="curve" smooth="yes"/>
      <point x="243" y="511" type="line" smooth="yes"/>
    </contour>
    <contour>
      <point x="474" y="488"/>
      <point x="416" y="600"/>
      <point x="399" y="588" type="curve" smooth="yes"/>
      <point x="289" y="513" type="line" smooth="yes"/>
      <point x="285" y="512"/>
      <point x="288" y="503"/>
      <point x="291" y="503" type="curve" smooth="yes"/>
      <point x="461" y="488" type="line" smooth="yes"/>
    </contour>
    <contour>
      <point x="267" y="525"/>
      <point x="275" y="525"/>
      <point x="276" y="529" type="curve" smooth="yes"/>
      <point x="343" y="689" type="line" smooth="yes"/>
      <point x="347" y="701"/>
      <point x="222" y="681"/>
      <point x="228" y="661" type="curve" smooth="yes"/>
      <point x="265" y="529" type="line" smooth="yes"/>
    </contour>
  </outline>
</glyph>
<glyph name="plus" format="1">
  <advance width="398"/>
  <unicode hex="002B"/>
  <outline>
    <contour>
      <point x="364" y="166" type="line" smooth="yes"/>
      <point x="370" y="166"/>
      <point x="370" y="213"/>
      <point x="364" y="213" type="curve" smooth="yes"/>
      <point x="33" y="213" type="line" smooth="yes"/>
      <point x="28" y="213"/>
      <point x="28" y="166"/>
      <point x="34" y="166" type="curve" smooth="yes"/>
    </contour>
    <contour>
      <point x="222" y="354" type="line" smooth="yes"/>
      <point x="222" y="360"/>
      <point x="175" y="360"/>
      <point x="175" y="354" type="curve" smooth="yes"/>
      <point x="175" y="23" type="line" smooth="yes"/>
      <point x="175" y="19"/>
      <point x="222" y="19"/>
      <point x="222" y="25" type="curve" smooth="yes"/>
    </contour>
  </outline>
</glyph>
<glyph name="comma" format="1">
  <advance width="234"/>
  <unicode hex="002C"/>
  <outline>
    <contour>
      <point x="84" y="-132"/>
      <point x="128" y="-65"/>
      <point x="142" y="-5" type="curve" smooth="yes"/>
      <point x="158" y="63"/>
      <point x="131" y="104"/>
      <point x="82" y="104" type="curve" smooth="yes"/>
      <point x="46" y="104"/>
      <point x="27" y="83"/>
      <point x="22" y="58" type="curve" smooth="yes"/>
      <point x="16" y="29"/>
      <point x="32" y="-8"/>
      <point x="74" y="-8" type="curve" smooth="yes"/>
      <point x="101" y="-8"/>
      <point x="111" y="7"/>
      <point x="110" y="36" type="curve"/>
      <point x="77" y="18" type="line"/>
      <point x="77" y="16"/>
      <point x="92" y="0"/>
      <point x="81" y="-45" type="curve" smooth="yes"/>
      <point x="72" y="-82"/>
      <point x="48" y="-130"/>
      <point x="10" y="-171" type="curve" smooth="yes"/>
      <point x="5" y="-174"/>
      <point x="12" y="-184"/>
      <point x="17" y="-180" type="curve" smooth="yes"/>
    </contour>
  </outline>
</glyph>
<glyph name="hyphen" format="1">
  <advance width="305"/>
  <unicode hex="002D"/>
  <outline>
    <contour>
      <point x="282" y="211" type="line" smooth="yes"/>
      <point x="288" y="212"/>
      <point x="284" y="263"/>
      <point x="278" y="262" type="curve" smooth="yes"/>
      <point x="29" y="215" type="line" smooth="yes"/>
      <point x="25" y="214"/>
      <point x="28" y="163"/>
      <point x="34" y="164" type="curve" smooth="yes"/>
    </contour>
  </outline>
</glyph>
<glyph name="period" format="1">
  <advance width="207"/>
  <unicode hex="002E"/>
  <outline>
    <contour>
      <point x="113" y="-8"/>
      <point x="133" y="13"/>
      <point x="133" y="49" type="curve" smooth="yes"/>
      <point x="133" y="82"/>
      <point x="113" y="103"/>
      <point x="78" y="103" type="curve" smooth="yes"/>
      <point x="43" y="103"/>
      <point x="21" y="82"/>
      <point x="21" y="49" type="curve" smooth="yes"/>
      <point x="21" y="13"/>
      <point x="43" y="-8"/>
      <point x="78" y="-8" type="curve" smooth="yes"/>
    </contour>
  </outline>
</glyph>
<glyph name="slash" format="1">
  <advance width="305"/>
  <unicode hex="002F"/>
  <outline>
    <contour>
      <point x="374" y="718" type="line" smooth="yes"/>
      <point x="378" y="726"/>
      <point x="337" y="743"/>
      <point x="333" y="735" type="curve" smooth="yes"/>
      <point x="-51" y="-154" type="line" smooth="yes"/>
      <point x="-54" y="-160"/>
      <point x="-13" y="-177"/>
      <point x="-9" y="-170" type="curve" smooth="yes"/>
    </contour>
  </outline>
</glyph>
<glyph name="zero" format="1">
  <advance width="448"/>
  <unicode hex="0030"/>
  <outline>
    <contour>
      <point x="298" y="-13"/>
      <point x="395" y="70"/>
      <point x="419" y="193" type="curve" smooth="yes"/>
      <point x="442" y="317"/>
      <point x="374" y="399"/>
      <point x="263" y="399" type="curve" smooth="yes"/>
      <point x="150" y="399"/>
      <point x="51" y="315"/>
      <point x="29" y="196" type="curve" smooth="yes"/>
      <point x="6" y="73"/>
      <point x="77" y="-13"/>
      <point x="188" y="-13" type="curve" smooth="yes"/>
    </contour>
    <contour>
      <point x="138" y="7"/>
      <point x="115" y="99"/>
      <point x="130" y="204" type="curve" smooth="yes"/>
      <point x="146" y="312"/>
      <point x="194" y="379"/>
      <point x="248" y="379" type="curve" smooth="yes"/>
      <point x="304" y="379"/>
      <point x="335" y="306"/>
      <point x="317" y="181" type="curve" smooth="yes"/>
      <point x="303" y="84"/>
      <point x="265" y="7"/>
      <point x="205" y="7" type="curve" smooth="yes"/>
    </contour>
    <contour>
      <point x="268" y="386" type="move" name="top"/>
    </contour>
  </outline>
</glyph>
<glyph name="one" format="1">
  <advance width="291"/>
  <unicode hex="0031"/>
  <outline>
    <contour>
      <point x="39" y="0"/>
      <point x="82" y="2"/>
      <point x="129" y="2" type="curve" smooth="yes"/>
      <point x="175" y="2"/>
      <point x="218" y="0"/>
      <point x="251" y="0" type="curve" smooth="yes"/>
      <point x="256" y="0"/>
      <point x="256" y="12"/>
      <point x="251" y="12" type="curve" smooth="yes"/>
      <point x="182" y="12"/>
      <point x="172" y="23"/>
      <point x="182" y="81" type="curve" smooth="yes"/>
      <point x="239" y="394" type="line" smooth="yes"/>
      <point x="240" y="398"/>
      <point x="235" y="401"/>
      <point x="232" y="399" type="curve" smooth="yes"/>
      <point x="46" y="308" type="line" smooth="yes"/>
      <point x="41" y="303"/>
      <point x="46" y="292"/>
      <point x="51" y="295" type="curve" smooth="yes"/>
      <point x="142" y="337"/>
      <point x="139" y="316"/>
      <point x="131" y="273" type="curve" smooth="yes"/>
      <point x="96" y="81" type="line" smooth="yes"/>
      <point x="85" y="23"/>
      <point x="71" y="12"/>
      <point x="5" y="12" type="curve" smooth="yes"/>
      <point x="-1" y="12"/>
      <point x="-1" y="0"/>
      <point x="5" y="0" type="curve" smooth="yes"/>
    </contour>
    <contour>
      <point x="298" y="662" type="move" name="top"/>
    </contour>
    <contour>
      <point x="81" y="0" type="move" name="bottom"/>
    </contour>
    <contour>
      <point x="288" y="386" type="move" name="topright"/>
    </contour>
  </outline>
</glyph>
<glyph name="two" format="1">
  <advance width="373"/>
  <unicode hex="0032"/>
  <outline>
    <contour>
      <point x="-2" y="9"/>
      <point x="2" y="0"/>
      <point x="8" y="0" type="curve" smooth="yes"/>
      <point x="97" y="0"/>
      <point x="198" y="0"/>
      <point x="284" y="0" type="curve" smooth="yes"/>
      <point x="289" y="0"/>
      <point x="290" y="2"/>
      <point x="291" y="7" type="curve" smooth="yes"/>
      <point x="333" y="132" type="line" smooth="yes"/>
      <point x="335" y="137"/>
      <point x="324" y="139"/>
      <point x="323" y="136" type="curve" smooth="yes"/>
      <point x="302" y="84"/>
      <point x="230" y="80"/>
      <point x="106" y="80" type="curve" smooth="yes"/>
      <point x="103" y="80"/>
      <point x="103" y="80"/>
      <point x="106" y="82" type="curve" smooth="yes"/>
      <point x="185" y="160"/>
      <point x="308" y="204"/>
      <point x="326" y="299" type="curve" smooth="yes"/>
      <point x="337" y="357"/>
      <point x="305" y="399"/>
      <point x="236" y="399" type="curve" smooth="yes"/>
      <point x="187" y="399"/>
      <point x="154" y="377"/>
      <point x="135" y="377" type="curve" smooth="yes"/>
      <point x="127" y="377"/>
      <point x="122" y="382"/>
      <point x="131" y="405" type="curve" smooth="yes"/>
      <point x="133" y="412"/>
      <point x="122" y="415"/>
      <point x="119" y="411" type="curve" smooth="yes"/>
      <point x="60" y="255" type="line" smooth="yes"/>
      <point x="58" y="250"/>
      <point x="69" y="247"/>
      <point x="71" y="250" type="curve" smooth="yes"/>
      <point x="106" y="320"/>
      <point x="138" y="368"/>
      <point x="182" y="368" type="curve" smooth="yes"/>
      <point x="226" y="368"/>
      <point x="240" y="325"/>
      <point x="232" y="281" type="curve" smooth="yes"/>
      <point x="220" y="214"/>
      <point x="166" y="163"/>
      <point x="1" y="16" type="curve" smooth="yes"/>
    </contour>
  </outline>
</glyph>
<glyph name="three" format="1">
  <advance width="354"/>
  <unicode hex="0033"/>
  <outline>
    <contour>
      <point x="170" y="-212"/>
      <point x="274" y="-106"/>
      <point x="289" y="-18" type="curve" smooth="yes"/>
      <point x="303" y="57"/>
      <point x="268" y="131"/>
      <point x="153" y="135" type="curve"/>
      <point x="151" y="119" type="line"/>
      <point x="239" y="138"/>
      <point x="303" y="207"/>
      <point x="316" y="280" type="curve" smooth="yes"/>
      <point x="326" y="340"/>
      <point x="297" y="399"/>
      <point x="221" y="399" type="curve" smooth="yes"/>
      <point x="173" y="399"/>
      <point x="136" y="377"/>
      <point x="115" y="377" type="curve" smooth="yes"/>
      <point x="106" y="377"/>
      <point x="98" y="380"/>
      <point x="105" y="399" type="curve" smooth="yes"/>
      <point x="108" y="404"/>
      <point x="97" y="408"/>
      <point x="95" y="404" type="curve" smooth="yes"/>
      <point x="37" y="263" type="line" smooth="yes"/>
      <point x="35" y="257"/>
      <point x="46" y="253"/>
      <point x="49" y="258" type="curve" smooth="yes"/>
      <point x="88" y="330"/>
      <point x="137" y="371"/>
      <point x="188" y="371" type="curve" smooth="yes"/>
      <point x="223" y="371"/>
      <point x="234" y="337"/>
      <point x="222" y="274" type="curve" smooth="yes"/>
      <point x="207" y="182"/>
      <point x="158" y="135"/>
      <point x="71" y="112" type="curve" smooth="yes"/>
      <point x="64" y="110"/>
      <point x="69" y="95"/>
      <point x="76" y="97" type="curve" smooth="yes"/>
      <point x="89" y="102"/>
      <point x="102" y="105"/>
      <point x="113" y="105" type="curve" smooth="yes"/>
      <point x="174" y="105"/>
      <point x="205" y="56"/>
      <point x="191" y="-19" type="curve" smooth="yes"/>
      <point x="178" y="-92"/>
      <point x="117" y="-201"/>
      <point x="-39" y="-264" type="curve" smooth="yes"/>
      <point x="-43" y="-267"/>
      <point x="-37" y="-277"/>
      <point x="-34" y="-276" type="curve" smooth="yes"/>
    </contour>
  </outline>
</glyph>
<glyph name="four" format="1">
  <advance width="433"/>
  <unicode hex="0034"/>
  <outline>
    <contour>
      <point x="262" y="-172" type="line" smooth="yes"/>
      <point x="267" y="-170"/>
      <point x="270" y="-165"/>
      <point x="271" y="-158" type="curve" smooth="yes"/>
      <point x="368" y="400" type="line" smooth="yes"/>
      <point x="370" y="406"/>
      <point x="359" y="408"/>
      <point x="356" y="405" type="curve" smooth="yes"/>
      <point x="-9" y="23" type="line" smooth="yes"/>
      <point x="-15" y="18"/>
      <point x="-11" y="12"/>
      <point x="-6" y="12" type="curve" smooth="yes"/>
      <point x="168" y="12"/>
      <point x="263" y="11"/>
      <point x="359" y="5" type="curve" smooth="yes"/>
      <point x="365" y="5"/>
      <point x="372" y="67"/>
      <point x="367" y="67" type="curve" smooth="yes"/>
      <point x="270" y="63"/>
      <point x="195" y="62"/>
      <point x="67" y="62" type="curve" smooth="yes"/>
      <point x="61" y="62"/>
      <point x="58" y="64"/>
      <point x="63" y="69" type="curve" smooth="yes"/>
      <point x="324" y="343" type="line"/>
      <point x="263" y="294" type="line"/>
      <point x="180" y="-182" type="line" smooth="yes"/>
      <point x="179" y="-191"/>
      <point x="181" y="-192"/>
      <point x="188" y="-188" type="curve" smooth="yes"/>
    </contour>
  </outline>
</glyph>
<glyph name="five" format="1">
  <advance width="374"/>
  <unicode hex="0035"/>
  <outline>
    <contour>
      <point x="179" y="-182"/>
      <point x="276" y="-103"/>
      <point x="297" y="9" type="curve" smooth="yes"/>
      <point x="317" y="116"/>
      <point x="256" y="196"/>
      <point x="69" y="196" type="curve"/>
      <point x="73" y="180" type="line"/>
      <point x="106" y="285" type="line" smooth="yes"/>
      <point x="110" y="295"/>
      <point x="115" y="299"/>
      <point x="123" y="299" type="curve" smooth="yes"/>
      <point x="301" y="304" type="line" smooth="yes"/>
      <point x="315" y="304"/>
      <point x="322" y="305"/>
      <point x="330" y="322" type="curve" smooth="yes"/>
      <point x="366" y="419" type="line" smooth="yes"/>
      <point x="368" y="423"/>
      <point x="358" y="427"/>
      <point x="356" y="423" type="curve" smooth="yes"/>
      <point x="343" y="396"/>
      <point x="340" y="395"/>
      <point x="122" y="368" type="curve" smooth="yes"/>
      <point x="111" y="367"/>
      <point x="110" y="366"/>
      <point x="108" y="357" type="curve" smooth="yes"/>
      <point x="48" y="179" type="line" smooth="yes"/>
      <point x="46" y="173"/>
      <point x="48" y="167"/>
      <point x="54" y="167" type="curve" smooth="yes"/>
      <point x="165" y="167"/>
      <point x="212" y="95"/>
      <point x="195" y="-8" type="curve" smooth="yes"/>
      <point x="181" y="-98"/>
      <point x="125" y="-179"/>
      <point x="-28" y="-264" type="curve" smooth="yes"/>
      <point x="-33" y="-267"/>
      <point x="-28" y="-277"/>
      <point x="-23" y="-275" type="curve" smooth="yes"/>
    </contour>
  </outline>
</glyph>
<glyph name="six" format="1">
  <advance width="425"/>
  <unicode hex="0036"/>
  <outline>
    <contour>
      <point x="295" y="-13"/>
      <point x="381" y="54"/>
      <point x="399" y="142" type="curve" smooth="yes"/>
      <point x="412" y="206"/>
      <point x="387" y="282"/>
      <point x="288" y="282" type="curve" smooth="yes"/>
      <point x="247" y="282"/>
      <point x="209" y="267"/>
      <point x="179" y="236" type="curve" smooth="yes"/>
      <point x="177" y="233"/>
      <point x="184" y="226"/>
      <point x="187" y="229" type="curve" smooth="yes"/>
      <point x="208" y="242"/>
      <point x="223" y="248"/>
      <point x="240" y="248" type="curve" smooth="yes"/>
      <point x="295" y="248"/>
      <point x="311" y="189"/>
      <point x="301" y="116" type="curve" smooth="yes"/>
      <point x="290" y="42"/>
      <point x="262" y="11"/>
      <point x="226" y="11" type="curve" smooth="yes"/>
      <point x="150" y="11"/>
      <point x="116" y="104"/>
      <point x="136" y="226" type="curve" smooth="yes"/>
      <point x="161" y="382"/>
      <point x="273" y="560"/>
      <point x="451" y="649" type="curve" smooth="yes"/>
      <point x="456" y="651"/>
      <point x="453" y="662"/>
      <point x="448" y="661" type="curve" smooth="yes"/>
      <point x="230" y="584"/>
      <point x="71" y="389"/>
      <point x="37" y="208" type="curve" smooth="yes"/>
      <point x="11" y="65"/>
      <point x="73" y="-13"/>
      <point x="196" y="-13" type="curve" smooth="yes"/>
    </contour>
  </outline>
</glyph>
<glyph name="seven" format="1">
  <advance width="392"/>
  <unicode hex="0037"/>
  <outline>
    <contour>
      <point x="74" y="-244" type="line" smooth="yes"/>
      <point x="84" y="-239"/>
      <point x="90" y="-233"/>
      <point x="97" y="-220" type="curve" smooth="yes"/>
      <point x="389" y="373" type="line" smooth="yes"/>
      <point x="392" y="378"/>
      <point x="389" y="386"/>
      <point x="384" y="386" type="curve" smooth="yes"/>
      <point x="309" y="386"/>
      <point x="181" y="386"/>
      <point x="145" y="386" type="curve" smooth="yes"/>
      <point x="105" y="386"/>
      <point x="99" y="389"/>
      <point x="108" y="412" type="curve" smooth="yes"/>
      <point x="109" y="415"/>
      <point x="97" y="419"/>
      <point x="96" y="415" type="curve" smooth="yes"/>
      <point x="30" y="244" type="line" smooth="yes"/>
      <point x="28" y="240"/>
      <point x="41" y="236"/>
      <point x="42" y="241" type="curve" smooth="yes"/>
      <point x="69" y="303"/>
      <point x="81" y="310"/>
      <point x="326" y="310" type="curve" smooth="yes"/>
      <point x="331" y="310"/>
      <point x="332" y="308"/>
      <point x="329" y="303" type="curve" smooth="yes"/>
      <point x="-19" y="-268" type="line" smooth="yes"/>
      <point x="-21" y="-271"/>
      <point x="-16" y="-276"/>
      <point x="-14" y="-275" type="curve" smooth="yes"/>
    </contour>
    <contour>
      <point x="229" y="386" type="move" name="top"/>
    </contour>
  </outline>
</glyph>
<glyph name="eight" format="1">
  <advance width="440"/>
  <unicode hex="0038"/>
  <outline>
    <contour>
      <point x="290" y="-13"/>
      <point x="392" y="50"/>
      <point x="414" y="161" type="curve" smooth="yes"/>
      <point x="449" y="343"/>
      <point x="200" y="337"/>
      <point x="214" y="483" type="curve" smooth="yes"/>
      <point x="218" y="522"/>
      <point x="244" y="554"/>
      <point x="275" y="554" type="curve" smooth="yes"/>
      <point x="312" y="554"/>
      <point x="335" y="501"/>
      <point x="329" y="448" type="curve" smooth="yes"/>
      <point x="324" y="402"/>
      <point x="302" y="370"/>
      <point x="271" y="339" type="curve"/>
      <point x="275" y="333" type="line"/>
      <point x="347" y="368"/>
      <point x="404" y="408"/>
      <point x="412" y="460" type="curve" smooth="yes"/>
      <point x="419" y="504"/>
      <point x="384" y="574"/>
      <point x="290" y="574" type="curve" smooth="yes"/>
      <point x="222" y="574"/>
      <point x="143" y="535"/>
      <point x="129" y="456" type="curve" smooth="yes"/>
      <point x="103" y="313"/>
      <point x="350" y="327"/>
      <point x="320" y="132" type="curve" smooth="yes"/>
      <point x="310" y="58"/>
      <point x="268" y="11"/>
      <point x="221" y="11" type="curve" smooth="yes"/>
      <point x="143" y="11"/>
      <point x="110" y="94"/>
      <point x="122" y="175" type="curve" smooth="yes"/>
      <point x="132" y="249"/>
      <point x="172" y="309"/>
      <point x="233" y="340" type="curve"/>
      <point x="228" y="349" type="line"/>
      <point x="145" y="322"/>
      <point x="37" y="241"/>
      <point x="22" y="149" type="curve" smooth="yes"/>
      <point x="8" y="65"/>
      <point x="70" y="-13"/>
      <point x="193" y="-13" type="curve" smooth="yes"/>
    </contour>
  </outline>
</glyph>
<glyph name="nine" format="1">
  <advance width="426"/>
  <unicode hex="0039"/>
  <outline>
    <contour>
      <point x="196" y="-198"/>
      <point x="358" y="-2"/>
      <point x="388" y="178" type="curve" smooth="yes"/>
      <point x="413" y="320"/>
      <point x="345" y="399"/>
      <point x="233" y="399" type="curve" smooth="yes"/>
      <point x="135" y="399"/>
      <point x="44" y="338"/>
      <point x="28" y="256" type="curve" smooth="yes"/>
      <point x="15" y="192"/>
      <point x="51" y="104"/>
      <point x="147" y="104" type="curve" smooth="yes"/>
      <point x="189" y="104"/>
      <point x="223" y="120"/>
      <point x="251" y="153" type="curve" smooth="yes"/>
      <point x="254" y="157"/>
      <point x="246" y="163"/>
      <point x="242" y="159" type="curve" smooth="yes"/>
      <point x="223" y="146"/>
      <point x="209" y="139"/>
      <point x="193" y="139" type="curve" smooth="yes"/>
      <point x="142" y="139"/>
      <point x="117" y="206"/>
      <point x="127" y="282" type="curve" smooth="yes"/>
      <point x="137" y="350"/>
      <point x="166" y="374"/>
      <point x="202" y="374" type="curve" smooth="yes"/>
      <point x="278" y="374"/>
      <point x="309" y="268"/>
      <point x="291" y="160" type="curve" smooth="yes"/>
      <point x="268" y="19"/>
      <point x="154" y="-174"/>
      <point x="-25" y="-263" type="curve" smooth="yes"/>
      <point x="-29" y="-265"/>
      <point x="-26" y="-276"/>
      <point x="-21" y="-275" type="curve" smooth="yes"/>
    </contour>
  </outline>
</glyph>
<glyph name="equal" format="1">
  <advance width="468"/>
  <unicode hex="003D"/>
  <outline>
    <contour>
      <point x="434" y="236" type="line" smooth="yes"/>
      <point x="440" y="236"/>
      <point x="440" y="283"/>
      <point x="434" y="283" type="curve" smooth="yes"/>
      <point x="33" y="283" type="line" smooth="yes"/>
      <point x="28" y="283"/>
      <point x="28" y="236"/>
      <point x="34" y="236" type="curve" smooth="yes"/>
    </contour>
    <contour>
      <point x="434" y="96" type="line" smooth="yes"/>
      <point x="440" y="96"/>
      <point x="440" y="143"/>
      <point x="434" y="143" type="curve" smooth="yes"/>
      <point x="33" y="143" type="line" smooth="yes"/>
      <point x="28" y="143"/>
      <point x="28" y="96"/>
      <point x="34" y="96" type="curve" smooth="yes"/>
    </contour>
  </outline>
</glyph>
<glyph name="greater" format="1">
  <advance width="407"/>
  <unicode hex="003E"/>
  <outline>
    <contour>
      <point x="371" y="172" type="line" smooth="yes"/>
      <point x="378" y="175"/>
      <point x="378" y="202"/>
      <point x="371" y="206" type="curve" smooth="yes"/>
      <point x="37" y="354" type="line" smooth="yes"/>
      <point x="28" y="359"/>
      <point x="28" y="310"/>
      <point x="37" y="305" type="curve" smooth="yes"/>
      <point x="330" y="180" type="line"/>
      <point x="330" y="198" type="line"/>
      <point x="37" y="73" type="line" smooth="yes"/>
      <point x="28" y="68"/>
      <point x="28" y="20"/>
      <point x="37" y="25" type="curve" smooth="yes"/>
    </contour>
  </outline>
</glyph>
<glyph name="question" format="1">
  <advance width="295"/>
  <unicode hex="003F"/>
  <outline>
    <contour>
      <point x="140" y="181"/>
      <point x="154" y="186"/>
      <point x="153" y="192" type="curve" smooth="yes"/>
      <point x="149" y="213"/>
      <point x="149" y="233"/>
      <point x="151" y="249" type="curve" smooth="yes"/>
      <point x="158" y="295"/>
      <point x="180" y="325"/>
      <point x="242" y="372" type="curve" smooth="yes"/>
      <point x="283" y="406"/>
      <point x="330" y="441"/>
      <point x="342" y="505" type="curve" smooth="yes"/>
      <point x="356" y="586"/>
      <point x="301" y="625"/>
      <point x="219" y="625" type="curve" smooth="yes"/>
      <point x="158" y="625"/>
      <point x="91" y="604"/>
      <point x="82" y="558" type="curve" smooth="yes"/>
      <point x="76" y="531"/>
      <point x="89" y="504"/>
      <point x="126" y="504" type="curve" smooth="yes"/>
      <point x="172" y="504"/>
      <point x="178" y="543"/>
      <point x="180" y="565" type="curve" smooth="yes"/>
      <point x="182" y="584"/>
      <point x="188" y="605"/>
      <point x="211" y="605" type="curve" smooth="yes"/>
      <point x="244" y="605"/>
      <point x="251" y="558"/>
      <point x="246" y="517" type="curve" smooth="yes"/>
      <point x="230" y="411"/>
      <point x="115" y="402"/>
      <point x="99" y="305" type="curve" smooth="yes"/>
      <point x="95" y="277"/>
      <point x="109" y="223"/>
      <point x="138" y="186" type="curve" smooth="yes"/>
    </contour>
    <component base="period" xOffset="44"/>
  </outline>
</glyph>
<glyph name="at" format="1">
  <advance width="729"/>
  <unicode hex="0040"/>
  <outline>
    <contour>
      <point x="428" y="-106"/>
      <point x="497" y="-92"/>
      <point x="572" y="-28" type="curve" smooth="yes"/>
      <point x="575" y="-26"/>
      <point x="570" y="-18"/>
      <point x="566" y="-20" type="curve" smooth="yes"/>
      <point x="508" y="-60"/>
      <point x="457" y="-71"/>
      <point x="399" y="-71" type="curve" smooth="yes"/>
      <point x="232" y="-71"/>
      <point x="124" y="35"/>
      <point x="124" y="201" type="curve" smooth="yes"/>
      <point x="124" y="351"/>
      <point x="213" y="480"/>
      <point x="370" y="480" type="curve" smooth="yes"/>
      <point x="513" y="480"/>
      <point x="619" y="371"/>
      <point x="619" y="236" type="curve" smooth="yes"/>
      <point x="619" y="132"/>
      <point x="554" y="82"/>
      <point x="511" y="82" type="curve" smooth="yes"/>
      <point x="476" y="82"/>
      <point x="469" y="105"/>
      <point x="476" y="142" type="curve" smooth="yes"/>
      <point x="517" y="366" type="line" smooth="yes"/>
      <point x="517" y="368"/>
      <point x="502" y="370"/>
      <point x="499" y="367" type="curve" smooth="yes"/>
      <point x="494" y="347"/>
      <point x="464" y="332"/>
      <point x="444" y="330" type="curve"/>
      <point x="474" y="311" type="line"/>
      <point x="470" y="346"/>
      <point x="442" y="360"/>
      <point x="415" y="360" type="curve" smooth="yes"/>
      <point x="332" y="360"/>
      <point x="221" y="254"/>
      <point x="205" y="143" type="curve" smooth="yes"/>
      <point x="195" y="76"/>
      <point x="227" y="54"/>
      <point x="261" y="54" type="curve" smooth="yes"/>
      <point x="326" y="54"/>
      <point x="411" y="136"/>
      <point x="457" y="247" type="curve"/>
      <point x="423" y="234" type="line"/>
      <point x="404" y="147" type="line" smooth="yes"/>
      <point x="389" y="89"/>
      <point x="409" y="56"/>
      <point x="464" y="56" type="curve" smooth="yes"/>
      <point x="581" y="56"/>
      <point x="674" y="151"/>
      <point x="674" y="268" type="curve" smooth="yes"/>
      <point x="674" y="392"/>
      <point x="570" y="503"/>
      <point x="405" y="503" type="curve" smooth="yes"/>
      <point x="225" y="503"/>
      <point x="62" y="371"/>
      <point x="62" y="175" type="curve" smooth="yes"/>
      <point x="62" y="-4"/>
      <point x="195" y="-106"/>
      <point x="363" y="-106" type="curve" smooth="yes"/>
    </contour>
    <contour>
      <point x="284" y="118"/>
      <point x="285" y="160"/>
      <point x="294" y="194" type="curve" smooth="yes"/>
      <point x="309" y="265"/>
      <point x="354" y="335"/>
      <point x="404" y="337" type="curve" smooth="yes"/>
      <point x="426" y="338"/>
      <point x="433" y="309"/>
      <point x="428" y="275" type="curve" smooth="yes"/>
      <point x="413" y="200"/>
      <point x="349" y="118"/>
      <point x="311" y="118" type="curve" smooth="yes"/>
    </contour>
  </outline>
</glyph>
<glyph name="B" format="1">
  <advance width="561"/>
  <unicode hex="0042"/>
  <outline>
    <contour>
      <point x="436" y="358"/>
      <point x="506" y="421"/>
      <point x="522" y="494" type="curve" smooth="yes"/>
      <point x="539" y="580"/>
      <point x="475" y="628"/>
      <point x="350" y="628" type="curve" smooth="yes"/>
      <point x="311" y="628"/>
      <point x="273" y="622"/>
      <point x="237" y="622" type="curve" smooth="yes"/>
      <point x="195" y="622"/>
      <point x="157" y="625"/>
      <point x="125" y="625" type="curve" smooth="yes"/>
      <point x="123" y="625"/>
      <point x="120" y="613"/>
      <point x="125" y="613" type="curve" smooth="yes"/>
      <point x="174" y="613"/>
      <point x="186" y="605"/>
      <point x="177" y="547" type="curve" smooth="yes"/>
      <point x="95" y="84" type="line" smooth="yes"/>
      <point x="84" y="27"/>
      <point x="67" y="12"/>
      <point x="15" y="12" type="curve" smooth="yes"/>
      <point x="13" y="12"/>
      <point x="12" y="0"/>
      <point x="15" y="0" type="curve" smooth="yes"/>
      <point x="46" y="0"/>
      <point x="87" y="2"/>
      <point x="131" y="2" type="curve" smooth="yes"/>
      <point x="170" y="2"/>
      <point x="226" y="-4"/>
      <point x="260" y="-4" type="curve" smooth="yes"/>
      <point x="388" y="-4"/>
      <point x="499" y="73"/>
      <point x="520" y="175" type="curve" smooth="yes"/>
      <point x="540" y="278"/>
      <point x="464" y="353"/>
      <point x="325" y="353" type="curve"/>
      <point x="312" y="333" type="line"/>
    </contour>
    <contour>
      <point x="407" y="608"/>
      <point x="442" y="571"/>
      <point x="425" y="496" type="curve" smooth="yes"/>
      <point x="408" y="416"/>
      <point x="354" y="351"/>
      <point x="277" y="351" type="curve" smooth="yes"/>
      <point x="275" y="351"/>
      <point x="248" y="351"/>
      <point x="209" y="353" type="curve"/>
      <point x="241" y="346" type="line"/>
      <point x="275" y="538" type="line" smooth="yes"/>
      <point x="283" y="588"/>
      <point x="298" y="608"/>
      <point x="335" y="608" type="curve" smooth="yes"/>
    </contour>
    <contour>
      <point x="189" y="18"/>
      <point x="185" y="35"/>
      <point x="193" y="77" type="curve" smooth="yes"/>
      <point x="237" y="330" type="line"/>
      <point x="206" y="318" type="line"/>
      <point x="240" y="324"/>
      <point x="271" y="324"/>
      <point x="285" y="324" type="curve" smooth="yes"/>
      <point x="399" y="324"/>
      <point x="434" y="258"/>
      <point x="413" y="163" type="curve" smooth="yes"/>
      <point x="394" y="71"/>
      <point x="343" y="18"/>
      <point x="244" y="18" type="curve" smooth="yes"/>
    </contour>
    <contour>
      <point x="209" y="353" type="move"/>
    </contour>
    <contour>
      <point x="357" y="625" type="move" name="top"/>
    </contour>
    <contour>
      <point x="247" y="0" type="move" name="bottom"/>
    </contour>
  </outline>
</glyph>
<glyph name="C" format="1">
  <advance width="588"/>
  <unicode hex="0043"/>
  <outline>
    <contour>
      <point x="372" y="-12"/>
      <point x="437" y="-4"/>
      <point x="504" y="19" type="curve" smooth="yes"/>
      <point x="516" y="22"/>
      <point x="518" y="26"/>
      <point x="522" y="42" type="curve" smooth="yes"/>
      <point x="549" y="157" type="line" smooth="yes"/>
      <point x="550" y="160"/>
      <point x="542" y="165"/>
      <point x="538" y="160" type="curve" smooth="yes"/>
      <point x="461" y="56"/>
      <point x="393" y="8"/>
      <point x="326" y="8" type="curve" smooth="yes"/>
      <point x="206" y="8"/>
      <point x="146" y="164"/>
      <point x="172" y="346" type="curve" smooth="yes"/>
      <point x="195" y="511"/>
      <point x="280" y="609"/>
      <point x="395" y="609" type="curve" smooth="yes"/>
      <point x="482" y="609"/>
      <point x="543" y="549"/>
      <point x="566" y="450" type="curve" smooth="yes"/>
      <point x="567" y="446"/>
      <point x="577" y="446"/>
      <point x="577" y="450" type="curve" smooth="yes"/>
      <point x="593" y="584" type="line" smooth="yes"/>
      <point x="594" y="598"/>
      <point x="594" y="602"/>
      <point x="585" y="607" type="curve" smooth="yes"/>
      <point x="554" y="623"/>
      <point x="490" y="636"/>
      <point x="436" y="636" type="curve" smooth="yes"/>
      <point x="269" y="636"/>
      <point x="97" y="519"/>
      <point x="60" y="313" type="curve" smooth="yes"/>
      <point x="33" y="164"/>
      <point x="83" y="-12"/>
      <point x="320" y="-12" type="curve" smooth="yes"/>
    </contour>
    <contour>
      <point x="421" y="625" type="move" name="top"/>
    </contour>
    <contour>
      <point x="309" y="0" type="move" name="bottom"/>
    </contour>
  </outline>
</glyph>
<glyph name="D" format="1">
  <advance width="636"/>
  <unicode hex="0044"/>
  <outline>
    <contour>
      <point x="414" y="-4"/>
      <point x="586" y="125"/>
      <point x="621" y="323" type="curve" smooth="yes"/>
      <point x="653" y="502"/>
      <point x="542" y="627"/>
      <point x="349" y="627" type="curve" smooth="yes"/>
      <point x="312" y="627"/>
      <point x="270" y="622"/>
      <point x="233" y="622" type="curve" smooth="yes"/>
      <point x="189" y="622"/>
      <point x="151" y="625"/>
      <point x="120" y="625" type="curve" smooth="yes"/>
      <point x="117" y="625"/>
      <point x="117" y="613"/>
      <point x="120" y="613" type="curve" smooth="yes"/>
      <point x="171" y="613"/>
      <point x="180" y="601"/>
      <point x="170" y="544" type="curve" smooth="yes"/>
      <point x="88" y="81" type="line" smooth="yes"/>
      <point x="77" y="23"/>
      <point x="67" y="12"/>
      <point x="13" y="12" type="curve" smooth="yes"/>
      <point x="9" y="12"/>
      <point x="9" y="0"/>
      <point x="13" y="0" type="curve" smooth="yes"/>
      <point x="43" y="0"/>
      <point x="80" y="2"/>
      <point x="124" y="2" type="curve" smooth="yes"/>
      <point x="165" y="2"/>
      <point x="219" y="-4"/>
      <point x="251" y="-4" type="curve" smooth="yes"/>
    </contour>
    <contour>
      <point x="189" y="16"/>
      <point x="179" y="40"/>
      <point x="188" y="92" type="curve" smooth="yes"/>
      <point x="268" y="542" type="line" smooth="yes"/>
      <point x="276" y="587"/>
      <point x="289" y="607"/>
      <point x="340" y="607" type="curve" smooth="yes"/>
      <point x="502" y="607"/>
      <point x="532" y="443"/>
      <point x="508" y="301" type="curve" smooth="yes"/>
      <point x="476" y="119"/>
      <point x="373" y="16"/>
      <point x="247" y="16" type="curve" smooth="yes"/>
    </contour>
    <contour>
      <point x="339" y="312" type="move" name="center"/>
    </contour>
    <contour>
      <point x="284" y="0" type="move" name="bottom"/>
    </contour>
    <contour>
      <point x="339" y="625" type="move" name="top"/>
    </contour>
  </outline>
</glyph>
<glyph name="E" format="1">
  <advance width="531"/>
  <unicode hex="0045"/>
  <outline>
    <contour>
      <point x="435" y="0" type="line" smooth="yes"/>
      <point x="446" y="0"/>
      <point x="449" y="4"/>
      <point x="451" y="15" type="curve" smooth="yes"/>
      <point x="460" y="60"/>
      <point x="473" y="118"/>
      <point x="485" y="157" type="curve" smooth="yes"/>
      <point x="487" y="160"/>
      <point x="476" y="163"/>
      <point x="474" y="159" type="curve" smooth="yes"/>
      <point x="425" y="75"/>
      <point x="345" y="21"/>
      <point x="267" y="21" type="curve" smooth="yes"/>
      <point x="241" y="21" type="line" smooth="yes"/>
      <point x="192" y="21"/>
      <point x="184" y="32"/>
      <point x="193" y="85" type="curve" smooth="yes"/>
      <point x="274" y="543" type="line" smooth="yes"/>
      <point x="283" y="594"/>
      <point x="289" y="604"/>
      <point x="345" y="604" type="curve" smooth="yes"/>
      <point x="363" y="604" type="line" smooth="yes"/>
      <point x="436" y="604"/>
      <point x="487" y="557"/>
      <point x="492" y="483" type="curve" smooth="yes"/>
      <point x="492" y="480"/>
      <point x="503" y="477"/>
      <point x="504" y="482" type="curve" smooth="yes"/>
      <point x="509" y="512"/>
      <point x="519" y="577"/>
      <point x="525" y="616" type="curve" smooth="yes"/>
      <point x="526" y="622"/>
      <point x="525" y="625"/>
      <point x="519" y="625" type="curve" smooth="yes"/>
      <point x="126" y="625" type="line" smooth="yes"/>
      <point x="123" y="625"/>
      <point x="123" y="613"/>
      <point x="126" y="613" type="curve" smooth="yes"/>
      <point x="177" y="613"/>
      <point x="186" y="601"/>
      <point x="175" y="544" type="curve" smooth="yes"/>
      <point x="94" y="81" type="line" smooth="yes"/>
      <point x="83" y="23"/>
      <point x="74" y="12"/>
      <point x="20" y="12" type="curve" smooth="yes"/>
      <point x="16" y="12"/>
      <point x="16" y="0"/>
      <point x="20" y="0" type="curve" smooth="yes"/>
    </contour>
    <contour>
      <point x="441" y="261"/>
      <point x="444" y="291"/>
      <point x="450" y="325" type="curve" smooth="yes"/>
      <point x="455" y="352"/>
      <point x="460" y="371"/>
      <point x="467" y="414" type="curve" smooth="yes"/>
      <point x="468" y="420"/>
      <point x="456" y="421"/>
      <point x="455" y="415" type="curve" smooth="yes"/>
      <point x="443" y="360"/>
      <point x="411" y="339"/>
      <point x="351" y="339" type="curve" smooth="yes"/>
      <point x="191" y="339" type="line"/>
      <point x="187" y="311" type="line" smooth="yes"/>
      <point x="344" y="311" type="line" smooth="yes"/>
      <point x="401" y="311"/>
      <point x="432" y="281"/>
      <point x="422" y="223" type="curve" smooth="yes"/>
      <point x="421" y="218"/>
      <point x="433" y="216"/>
      <point x="434" y="222" type="curve" smooth="yes"/>
    </contour>
    <contour>
      <point x="420" y="12" type="move" name="ogonek"/>
    </contour>
    <contour>
      <point x="350" y="625" type="move" name="top"/>
    </contour>
    <contour>
      <point x="99" y="625" type="move" name="topleft"/>
    </contour>
    <contour>
      <point x="298" y="0" type="move" name="bottom"/>
    </contour>
  </outline>
</glyph>
<glyph name="F" format="1">
  <advance width="485"/>
  <unicode hex="0046"/>
  <outline>
    <contour>
      <point x="44" y="0"/>
      <point x="83" y="2"/>
      <point x="124" y="2" type="curve" smooth="yes"/>
      <point x="201" y="2"/>
      <point x="248" y="0"/>
      <point x="273" y="0" type="curve" smooth="yes"/>
      <point x="276" y="0"/>
      <point x="276" y="12"/>
      <point x="273" y="12" type="curve" smooth="yes"/>
      <point x="194" y="12"/>
      <point x="179" y="25"/>
      <point x="189" y="85" type="curve" smooth="yes"/>
      <point x="270" y="543" type="line" smooth="yes"/>
      <point x="280" y="594"/>
      <point x="285" y="604"/>
      <point x="342" y="604" type="curve" smooth="yes"/>
      <point x="359" y="604" type="line" smooth="yes"/>
      <point x="433" y="604"/>
      <point x="483" y="557"/>
      <point x="489" y="483" type="curve" smooth="yes"/>
      <point x="489" y="480"/>
      <point x="499" y="477"/>
      <point x="501" y="482" type="curve" smooth="yes"/>
      <point x="505" y="512"/>
      <point x="516" y="577"/>
      <point x="522" y="616" type="curve" smooth="yes"/>
      <point x="523" y="622"/>
      <point x="522" y="625"/>
      <point x="516" y="625" type="curve" smooth="yes"/>
      <point x="123" y="625" type="line" smooth="yes"/>
      <point x="119" y="625"/>
      <point x="119" y="613"/>
      <point x="123" y="613" type="curve" smooth="yes"/>
      <point x="173" y="613"/>
      <point x="182" y="601"/>
      <point x="172" y="544" type="curve" smooth="yes"/>
      <point x="90" y="81" type="line" smooth="yes"/>
      <point x="80" y="23"/>
      <point x="69" y="12"/>
      <point x="15" y="12" type="curve" smooth="yes"/>
      <point x="12" y="12"/>
      <point x="12" y="0"/>
      <point x="15" y="0" type="curve" smooth="yes"/>
    </contour>
    <contour>
      <point x="414" y="249"/>
      <point x="418" y="280"/>
      <point x="423" y="313" type="curve" smooth="yes"/>
      <point x="428" y="340"/>
      <point x="433" y="359"/>
      <point x="440" y="402" type="curve" smooth="yes"/>
      <point x="441" y="408"/>
      <point x="429" y="409"/>
      <point x="428" y="404" type="curve" smooth="yes"/>
      <point x="416" y="349"/>
      <point x="384" y="327"/>
      <point x="324" y="327" type="curve" smooth="yes"/>
      <point x="187" y="327" type="line"/>
      <point x="184" y="299" type="line"/>
      <point x="317" y="299" type="line" smooth="yes"/>
      <point x="374" y="299"/>
      <point x="405" y="269"/>
      <point x="395" y="212" type="curve" smooth="yes"/>
      <point x="394" y="206"/>
      <point x="406" y="205"/>
      <point x="407" y="211" type="curve" smooth="yes"/>
    </contour>
    <contour>
      <point x="319" y="625" type="move" name="top"/>
    </contour>
    <contour>
      <point x="209" y="0" type="move" name="bottom"/>
    </contour>
  </outline>
</glyph>
<glyph name="G" format="1">
  <advance width="633"/>
  <unicode hex="0047"/>
  <outline>
    <contour>
      <point x="392" y="-12"/>
      <point x="468" y="0"/>
      <point x="536" y="16" type="curve" smooth="yes"/>
      <point x="544" y="19"/>
      <point x="546" y="20"/>
      <point x="547" y="28" type="curve" smooth="yes"/>
      <point x="551" y="44"/>
      <point x="547" y="49"/>
      <point x="557" y="116" type="curve" smooth="yes"/>
      <point x="572" y="221"/>
      <point x="572" y="234"/>
      <point x="598" y="233" type="curve" smooth="yes"/>
      <point x="604" y="233"/>
      <point x="602" y="247"/>
      <point x="598" y="247" type="curve" smooth="yes"/>
      <point x="522" y="243"/>
      <point x="458" y="243"/>
      <point x="377" y="249" type="curve" smooth="yes"/>
      <point x="371" y="249"/>
      <point x="370" y="233"/>
      <point x="377" y="233" type="curve" smooth="yes"/>
      <point x="468" y="233"/>
      <point x="477" y="222"/>
      <point x="464" y="126" type="curve" smooth="yes"/>
      <point x="453" y="35"/>
      <point x="427" y="9"/>
      <point x="363" y="9" type="curve" smooth="yes"/>
      <point x="219" y="9"/>
      <point x="143" y="146"/>
      <point x="174" y="356" type="curve" smooth="yes"/>
      <point x="198" y="512"/>
      <point x="285" y="611"/>
      <point x="405" y="611" type="curve" smooth="yes"/>
      <point x="498" y="611"/>
      <point x="557" y="549"/>
      <point x="580" y="450" type="curve" smooth="yes"/>
      <point x="581" y="446"/>
      <point x="589" y="446"/>
      <point x="591" y="450" type="curve" smooth="yes"/>
      <point x="607" y="584" type="line" smooth="yes"/>
      <point x="608" y="598"/>
      <point x="608" y="602"/>
      <point x="599" y="607" type="curve" smooth="yes"/>
      <point x="568" y="623"/>
      <point x="505" y="636"/>
      <point x="447" y="636" type="curve" smooth="yes"/>
      <point x="261" y="636"/>
      <point x="95" y="506"/>
      <point x="61" y="319" type="curve" smooth="yes"/>
      <point x="27" y="132"/>
      <point x="122" y="-12"/>
      <point x="330" y="-12" type="curve" smooth="yes"/>
    </contour>
    <contour>
      <point x="429" y="625" type="move" name="top"/>
    </contour>
    <contour>
      <point x="342" y="0" type="move" name="bottom"/>
    </contour>
  </outline>
</glyph>
<glyph name="H" format="1">
  <advance width="675"/>
  <unicode hex="0048"/>
  <outline>
    <contour>
      <point x="42" y="0"/>
      <point x="81" y="2"/>
      <point x="122" y="2" type="curve" smooth="yes"/>
      <point x="166" y="2"/>
      <point x="205" y="0"/>
      <point x="235" y="0" type="curve" smooth="yes"/>
      <point x="239" y="0"/>
      <point x="239" y="12"/>
      <point x="235" y="12" type="curve" smooth="yes"/>
      <point x="184" y="12"/>
      <point x="175" y="23"/>
      <point x="186" y="81" type="curve" smooth="yes"/>
      <point x="268" y="542" type="line" smooth="yes"/>
      <point x="278" y="598"/>
      <point x="288" y="613"/>
      <point x="342" y="613" type="curve" smooth="yes"/>
      <point x="345" y="613"/>
      <point x="345" y="625"/>
      <point x="342" y="625" type="curve" smooth="yes"/>
      <point x="312" y="625"/>
      <point x="271" y="622"/>
      <point x="229" y="622" type="curve" smooth="yes"/>
      <point x="187" y="622"/>
      <point x="150" y="625"/>
      <point x="120" y="625" type="curve" smooth="yes"/>
      <point x="117" y="625"/>
      <point x="117" y="613"/>
      <point x="120" y="613" type="curve" smooth="yes"/>
      <point x="171" y="613"/>
      <point x="180" y="600"/>
      <point x="170" y="544" type="curve" smooth="yes"/>
      <point x="88" y="81" type="line" smooth="yes"/>
      <point x="77" y="23"/>
      <point x="67" y="12"/>
      <point x="13" y="12" type="curve" smooth="yes"/>
      <point x="9" y="12"/>
      <point x="9" y="0"/>
      <point x="13" y="0" type="curve" smooth="yes"/>
    </contour>
    <contour>
      <point x="547" y="311" type="line"/>
      <point x="550" y="339" type="line"/>
      <point x="167" y="339" type="line"/>
      <point x="164" y="311" type="line"/>
    </contour>
    <contour>
      <point x="405" y="0"/>
      <point x="444" y="2"/>
      <point x="487" y="2" type="curve" smooth="yes"/>
      <point x="529" y="2"/>
      <point x="571" y="0"/>
      <point x="596" y="0" type="curve" smooth="yes"/>
      <point x="600" y="0"/>
      <point x="600" y="12"/>
      <point x="596" y="12" type="curve" smooth="yes"/>
      <point x="546" y="12"/>
      <point x="536" y="23"/>
      <point x="546" y="81" type="curve" smooth="yes"/>
      <point x="628" y="544" type="line" smooth="yes"/>
      <point x="639" y="600"/>
      <point x="649" y="613"/>
      <point x="702" y="613" type="curve" smooth="yes"/>
      <point x="705" y="613"/>
      <point x="705" y="625"/>
      <point x="702" y="625" type="curve" smooth="yes"/>
      <point x="673" y="625"/>
      <point x="632" y="622"/>
      <point x="591" y="622" type="curve" smooth="yes"/>
      <point x="549" y="622"/>
      <point x="510" y="625"/>
      <point x="481" y="625" type="curve" smooth="yes"/>
      <point x="477" y="625"/>
      <point x="477" y="613"/>
      <point x="481" y="613" type="curve" smooth="yes"/>
      <point x="531" y="613"/>
      <point x="538" y="598"/>
      <point x="529" y="542" type="curve" smooth="yes"/>
      <point x="448" y="81" type="line" smooth="yes"/>
      <point x="437" y="23"/>
      <point x="429" y="12"/>
      <point x="374" y="12" type="curve" smooth="yes"/>
      <point x="371" y="12"/>
      <point x="371" y="0"/>
      <point x="374" y="0" type="curve" smooth="yes"/>
    </contour>
    <contour>
      <point x="315" y="0" type="move" name="bottom"/>
    </contour>
    <contour>
      <point x="414" y="625" type="move" name="top"/>
    </contour>
    <contour>
      <point x="99" y="625" type="move" name="topleft"/>
    </contour>
    <contour>
      <point x="327" y="312" type="move" name="center"/>
    </contour>
  </outline>
</glyph>
<glyph name="I" format="1">
  <advance width="336"/>
  <unicode hex="0049"/>
  <outline>
    <contour>
      <point x="55" y="0"/>
      <point x="94" y="2"/>
      <point x="136" y="2" type="curve" smooth="yes"/>
      <point x="181" y="2"/>
      <point x="218" y="0"/>
      <point x="248" y="0" type="curve" smooth="yes"/>
      <point x="251" y="0"/>
      <point x="251" y="12"/>
      <point x="248" y="12" type="curve" smooth="yes"/>
      <point x="196" y="12"/>
      <point x="187" y="23"/>
      <point x="198" y="81" type="curve" smooth="yes"/>
      <point x="280" y="542" type="line" smooth="yes"/>
      <point x="290" y="599"/>
      <point x="299" y="613"/>
      <point x="353" y="613" type="curve" smooth="yes"/>
      <point x="357" y="613"/>
      <point x="357" y="625"/>
      <point x="353" y="625" type="curve" smooth="yes"/>
      <point x="324" y="625"/>
      <point x="287" y="622"/>
      <point x="240" y="622" type="curve" smooth="yes"/>
      <point x="198" y="622"/>
      <point x="160" y="625"/>
      <point x="130" y="625" type="curve" smooth="yes"/>
      <point x="126" y="625"/>
      <point x="126" y="613"/>
      <point x="130" y="613" type="curve" smooth="yes"/>
      <point x="180" y="613"/>
      <point x="191" y="601"/>
      <point x="180" y="544" type="curve" smooth="yes"/>
      <point x="98" y="81" type="line" smooth="yes"/>
      <point x="88" y="23"/>
      <point x="78" y="12"/>
      <point x="25" y="12" type="curve" smooth="yes"/>
      <point x="21" y="12"/>
      <point x="21" y="0"/>
      <point x="25" y="0" type="curve" smooth="yes"/>
    </contour>
    <contour>
      <point x="145" y="12" type="move" name="ogonek"/>
    </contour>
    <contour>
      <point x="241" y="625" type="move" name="top"/>
    </contour>
    <contour>
      <point x="99" y="625" type="move" name="topleft"/>
    </contour>
    <contour>
      <point x="135" y="0" type="move" name="bottom"/>
    </contour>
  </outline>
</glyph>
<glyph name="J" format="1">
  <advance width="317"/>
  <unicode hex="004A"/>
  <outline>
    <contour>
      <point x="101" y="-146"/>
      <point x="159" y="-90"/>
      <point x="187" y="67" type="curve" smooth="yes"/>
      <point x="271" y="542" type="line" smooth="yes"/>
      <point x="282" y="599"/>
      <point x="291" y="613"/>
      <point x="345" y="613" type="curve" smooth="yes"/>
      <point x="349" y="613"/>
      <point x="349" y="625"/>
      <point x="345" y="625" type="curve" smooth="yes"/>
      <point x="316" y="625"/>
      <point x="278" y="622"/>
      <point x="232" y="622" type="curve" smooth="yes"/>
      <point x="189" y="622"/>
      <point x="152" y="625"/>
      <point x="122" y="625" type="curve" smooth="yes"/>
      <point x="118" y="625"/>
      <point x="118" y="613"/>
      <point x="122" y="613" type="curve" smooth="yes"/>
      <point x="172" y="613"/>
      <point x="182" y="601"/>
      <point x="172" y="544" type="curve" smooth="yes"/>
      <point x="83" y="40" type="line" smooth="yes"/>
      <point x="63" y="-70"/>
      <point x="32" y="-145"/>
      <point x="-30" y="-182" type="curve" smooth="yes"/>
      <point x="-34" y="-185"/>
      <point x="-28" y="-194"/>
      <point x="-25" y="-193" type="curve" smooth="yes"/>
    </contour>
    <contour>
      <point x="237" y="625" type="move" name="top"/>
    </contour>
    <contour>
      <point x="87" y="0" type="move" name="bottom"/>
    </contour>
  </outline>
</glyph>
<glyph name="K" format="1">
  <advance width="625"/>
  <unicode hex="004B"/>
  <outline>
    <contour>
      <point x="42" y="0"/>
      <point x="81" y="2"/>
      <point x="122" y="2" type="curve" smooth="yes"/>
      <point x="172" y="2"/>
      <point x="201" y="0"/>
      <point x="235" y="0" type="curve" smooth="yes"/>
      <point x="239" y="0"/>
      <point x="239" y="12"/>
      <point x="235" y="12" type="curve" smooth="yes"/>
      <point x="173" y="12"/>
      <point x="175" y="23"/>
      <point x="186" y="81" type="curve" smooth="yes"/>
      <point x="268" y="542" type="line" smooth="yes"/>
      <point x="278" y="599"/>
      <point x="288" y="613"/>
      <point x="342" y="613" type="curve" smooth="yes"/>
      <point x="345" y="613"/>
      <point x="345" y="625"/>
      <point x="342" y="625" type="curve" smooth="yes"/>
      <point x="312" y="625"/>
      <point x="271" y="622"/>
      <point x="229" y="622" type="curve" smooth="yes"/>
      <point x="187" y="622"/>
      <point x="150" y="625"/>
      <point x="120" y="625" type="curve" smooth="yes"/>
      <point x="117" y="625"/>
      <point x="117" y="613"/>
      <point x="120" y="613" type="curve" smooth="yes"/>
      <point x="171" y="613"/>
      <point x="180" y="601"/>
      <point x="170" y="544" type="curve" smooth="yes"/>
      <point x="88" y="81" type="line" smooth="yes"/>
      <point x="77" y="23"/>
      <point x="67" y="12"/>
      <point x="13" y="12" type="curve" smooth="yes"/>
      <point x="9" y="12"/>
      <point x="9" y="0"/>
      <point x="13" y="0" type="curve" smooth="yes"/>
    </contour>
    <contour>
      <point x="510" y="0"/>
      <point x="539" y="0"/>
      <point x="589" y="0" type="curve" smooth="yes"/>
      <point x="593" y="0"/>
      <point x="593" y="12"/>
      <point x="589" y="12" type="curve" smooth="yes"/>
      <point x="542" y="12"/>
      <point x="530" y="32"/>
      <point x="437" y="216" type="curve" smooth="yes"/>
      <point x="340" y="411" type="line"/>
      <point x="263" y="342" type="line"/>
      <point x="353" y="160" type="line" smooth="yes"/>
      <point x="434" y="-2"/>
      <point x="391" y="0"/>
      <point x="495" y="0" type="curve" smooth="yes"/>
    </contour>
    <contour>
      <point x="185" y="260" type="line"/>
      <point x="464" y="518" type="line" smooth="yes"/>
      <point x="530" y="578"/>
      <point x="606" y="613"/>
      <point x="658" y="613" type="curve" smooth="yes"/>
      <point x="662" y="613"/>
      <point x="662" y="625"/>
      <point x="658" y="625" type="curve" smooth="yes"/>
      <point x="632" y="625"/>
      <point x="608" y="622"/>
      <point x="560" y="622" type="curve" smooth="yes"/>
      <point x="515" y="622"/>
      <point x="457" y="625"/>
      <point x="430" y="625" type="curve" smooth="yes"/>
      <point x="427" y="625"/>
      <point x="427" y="613"/>
      <point x="430" y="613" type="curve" smooth="yes"/>
      <point x="482" y="613"/>
      <point x="485" y="567"/>
      <point x="439" y="524" type="curve" smooth="yes"/>
      <point x="160" y="262" type="line"/>
    </contour>
    <contour>
      <point x="393" y="625" type="move" name="top"/>
    </contour>
    <contour>
      <point x="304" y="0" type="move" name="bottom"/>
    </contour>
  </outline>
</glyph>
<glyph name="L" format="1">
  <advance width="505"/>
  <unicode hex="004C"/>
  <outline>
    <contour>
      <point x="440" y="0" type="line" smooth="yes"/>
      <point x="450" y="0"/>
      <point x="454" y="4"/>
      <point x="456" y="15" type="curve" smooth="yes"/>
      <point x="464" y="63"/>
      <point x="480" y="127"/>
      <point x="491" y="168" type="curve" smooth="yes"/>
      <point x="492" y="172"/>
      <point x="482" y="174"/>
      <point x="480" y="171" type="curve" smooth="yes"/>
      <point x="420" y="68"/>
      <point x="347" y="21"/>
      <point x="249" y="21" type="curve" smooth="yes"/>
      <point x="223" y="21" type="line" smooth="yes"/>
      <point x="186" y="21"/>
      <point x="178" y="32"/>
      <point x="187" y="85" type="curve" smooth="yes"/>
      <point x="268" y="543" type="line" smooth="yes"/>
      <point x="278" y="600"/>
      <point x="288" y="613"/>
      <point x="342" y="613" type="curve" smooth="yes"/>
      <point x="345" y="613"/>
      <point x="345" y="625"/>
      <point x="342" y="625" type="curve" smooth="yes"/>
      <point x="312" y="625"/>
      <point x="271" y="622"/>
      <point x="229" y="622" type="curve" smooth="yes"/>
      <point x="187" y="622"/>
      <point x="150" y="625"/>
      <point x="120" y="625" type="curve" smooth="yes"/>
      <point x="117" y="625"/>
      <point x="117" y="613"/>
      <point x="120" y="613" type="curve" smooth="yes"/>
      <point x="171" y="613"/>
      <point x="180" y="601"/>
      <point x="170" y="544" type="curve" smooth="yes"/>
      <point x="88" y="81" type="line" smooth="yes"/>
      <point x="77" y="23"/>
      <point x="68" y="12"/>
      <point x="14" y="12" type="curve" smooth="yes"/>
      <point x="11" y="12"/>
      <point x="11" y="0"/>
      <point x="14" y="0" type="curve" smooth="yes"/>
    </contour>
    <contour>
      <point x="261" y="0" type="move" name="bottom"/>
    </contour>
    <contour>
      <point x="230" y="625" type="move" name="top"/>
    </contour>
    <contour>
      <point x="527" y="625" type="move" name="topright"/>
    </contour>
    <contour>
      <point x="274" y="312" type="move" name="center"/>
    </contour>
  </outline>
</glyph>
<glyph name="M" format="1">
  <advance width="742"/>
  <unicode hex="004D"/>
  <outline>
    <contour>
      <point x="491" y="0"/>
      <point x="529" y="2"/>
      <point x="572" y="2" type="curve" smooth="yes"/>
      <point x="615" y="2"/>
      <point x="654" y="0"/>
      <point x="683" y="0" type="curve" smooth="yes"/>
      <point x="687" y="0"/>
      <point x="687" y="12"/>
      <point x="683" y="12" type="curve" smooth="yes"/>
      <point x="633" y="12"/>
      <point x="625" y="23"/>
      <point x="633" y="81" type="curve" smooth="yes"/>
      <point x="702" y="546" type="line" smooth="yes"/>
      <point x="710" y="602"/>
      <point x="730" y="613"/>
      <point x="770" y="613" type="curve" smooth="yes"/>
      <point x="772" y="613"/>
      <point x="772" y="625"/>
      <point x="770" y="625" type="curve" smooth="yes"/>
      <point x="750" y="625"/>
      <point x="733" y="623"/>
      <point x="704" y="623" type="curve" smooth="yes"/>
      <point x="682" y="623"/>
      <point x="651" y="625"/>
      <point x="639" y="625" type="curve" smooth="yes"/>
      <point x="623" y="625"/>
      <point x="609" y="615"/>
      <point x="602" y="600" type="curve" smooth="yes"/>
      <point x="329" y="39" type="line"/>
      <point x="394" y="132" type="line"/>
      <point x="301" y="573" type="line" smooth="yes"/>
      <point x="291" y="616"/>
      <point x="285" y="625"/>
      <point x="270" y="625" type="curve" smooth="yes"/>
      <point x="255" y="625"/>
      <point x="223" y="623"/>
      <point x="186" y="623" type="curve" smooth="yes"/>
      <point x="159" y="623"/>
      <point x="138" y="625"/>
      <point x="122" y="625" type="curve" smooth="yes"/>
      <point x="118" y="625"/>
      <point x="118" y="613"/>
      <point x="122" y="613" type="curve" smooth="yes"/>
      <point x="151" y="613"/>
      <point x="193" y="605"/>
      <point x="208" y="542" type="curve" smooth="yes"/>
      <point x="320" y="8" type="line" smooth="yes"/>
      <point x="322" y="2"/>
      <point x="332" y="2"/>
      <point x="335" y="7" type="curve" smooth="yes"/>
      <point x="633" y="613" type="line"/>
      <point x="609" y="580" type="line"/>
      <point x="535" y="81" type="line" smooth="yes"/>
      <point x="526" y="23"/>
      <point x="516" y="12"/>
      <point x="461" y="12" type="curve" smooth="yes"/>
      <point x="457" y="12"/>
      <point x="457" y="0"/>
      <point x="461" y="0" type="curve" smooth="yes"/>
    </contour>
    <contour>
      <point x="39" y="0"/>
      <point x="68" y="2"/>
      <point x="99" y="2" type="curve" smooth="yes"/>
      <point x="135" y="2"/>
      <point x="165" y="0"/>
      <point x="189" y="0" type="curve" smooth="yes"/>
      <point x="193" y="0"/>
      <point x="193" y="12"/>
      <point x="189" y="12" type="curve" smooth="yes"/>
      <point x="143" y="12"/>
      <point x="124" y="57"/>
      <point x="137" y="130" type="curve" smooth="yes"/>
      <point x="222" y="600" type="line"/>
      <point x="198" y="602" type="line"/>
      <point x="109" y="127" type="line" smooth="yes"/>
      <point x="96" y="56"/>
      <point x="58" y="12"/>
      <point x="13" y="12" type="curve" smooth="yes"/>
      <point x="9" y="12"/>
      <point x="9" y="0"/>
      <point x="13" y="0" type="curve" smooth="yes"/>
    </contour>
    <contour>
      <point x="447" y="625" type="move" name="top"/>
    </contour>
    <contour>
      <point x="337" y="0" type="move" name="bottom"/>
    </contour>
  </outline>
</glyph>
<glyph name="N" format="1">
  <advance width="655"/>
  <unicode hex="004E"/>
  <outline>
    <contour>
      <point x="491" y="-19"/>
      <point x="516" y="-14"/>
      <point x="516" y="-7" type="curve" smooth="yes"/>
      <point x="523" y="143" type="line"/>
      <point x="287" y="573" type="line" smooth="yes"/>
      <point x="265" y="611"/>
      <point x="269" y="625"/>
      <point x="254" y="625" type="curve" smooth="yes"/>
      <point x="247" y="625"/>
      <point x="211" y="623"/>
      <point x="189" y="623" type="curve" smooth="yes"/>
      <point x="166" y="623"/>
      <point x="129" y="625"/>
      <point x="102" y="625" type="curve" smooth="yes"/>
      <point x="98" y="625"/>
      <point x="98" y="613"/>
      <point x="102" y="613" type="curve" smooth="yes"/>
      <point x="130" y="613"/>
      <point x="154" y="598"/>
      <point x="185" y="543" type="curve" smooth="yes"/>
      <point x="487" y="-9" type="line" smooth="yes"/>
    </contour>
    <contour>
      <point x="27" y="0"/>
      <point x="61" y="2"/>
      <point x="96" y="2" type="curve" smooth="yes"/>
      <point x="136" y="2"/>
      <point x="165" y="0"/>
      <point x="193" y="0" type="curve" smooth="yes"/>
      <point x="196" y="0"/>
      <point x="196" y="12"/>
      <point x="193" y="12" type="curve" smooth="yes"/>
      <point x="142" y="12"/>
      <point x="116" y="51"/>
      <point x="127" y="116" type="curve" smooth="yes"/>
      <point x="214" y="600" type="line"/>
      <point x="187" y="602" type="line"/>
      <point x="99" y="116" type="line" smooth="yes"/>
      <point x="88" y="51"/>
      <point x="48" y="12"/>
      <point x="-2" y="12" type="curve" smooth="yes"/>
      <point x="-6" y="12"/>
      <point x="-6" y="0"/>
      <point x="-2" y="0" type="curve" smooth="yes"/>
    </contour>
    <contour>
      <point x="608" y="509" type="line" smooth="yes"/>
      <point x="620" y="573"/>
      <point x="660" y="613"/>
      <point x="710" y="613" type="curve" smooth="yes"/>
      <point x="713" y="613"/>
      <point x="713" y="625"/>
      <point x="710" y="625" type="curve" smooth="yes"/>
      <point x="681" y="625"/>
      <point x="647" y="622"/>
      <point x="612" y="622" type="curve" smooth="yes"/>
      <point x="572" y="622"/>
      <point x="539" y="625"/>
      <point x="515" y="625" type="curve" smooth="yes"/>
      <point x="511" y="625"/>
      <point x="511" y="613"/>
      <point x="515" y="613" type="curve" smooth="yes"/>
      <point x="567" y="613"/>
      <point x="592" y="573"/>
      <point x="580" y="509" type="curve" smooth="yes"/>
      <point x="497" y="54" type="line"/>
      <point x="516" y="-7" type="line"/>
    </contour>
    <contour>
      <point x="401" y="625" type="move" name="top"/>
    </contour>
    <contour>
      <point x="315" y="0" type="move" name="bottom"/>
    </contour>
  </outline>
</glyph>
<glyph name="O" format="1">
  <advance width="655"/>
  <unicode hex="004F"/>
  <outline>
    <contour>
      <point x="440" y="-12"/>
      <point x="601" y="111"/>
      <point x="637" y="313" type="curve" smooth="yes"/>
      <point x="670" y="494"/>
      <point x="582" y="636"/>
      <point x="411" y="636" type="curve" smooth="yes"/>
      <point x="240" y="636"/>
      <point x="92" y="499"/>
      <point x="60" y="313" type="curve" smooth="yes"/>
      <point x="28" y="133"/>
      <point x="112" y="-12"/>
      <point x="281" y="-12" type="curve" smooth="yes"/>
    </contour>
    <contour>
      <point x="196" y="14"/>
      <point x="143" y="187"/>
      <point x="173" y="366" type="curve" smooth="yes"/>
      <point x="199" y="518"/>
      <point x="277" y="612"/>
      <point x="372" y="612" type="curve" smooth="yes"/>
      <point x="498" y="612"/>
      <point x="554" y="443"/>
      <point x="523" y="260" type="curve" smooth="yes"/>
      <point x="497" y="109"/>
      <point x="419" y="14"/>
      <point x="324" y="14" type="curve" smooth="yes"/>
    </contour>
    <contour>
      <point x="308" y="0" type="move" name="bottom"/>
    </contour>
    <contour>
      <point x="398" y="12" type="move" name="ogonek"/>
    </contour>
    <contour>
      <point x="399" y="625" type="move" name="top"/>
    </contour>
    <contour>
      <point x="612" y="580" type="move" name="topright"/>
    </contour>
    <contour>
      <point x="99" y="625" type="move" name="topleft"/>
    </contour>
    <contour>
      <point x="343" y="312" type="move" name="center"/>
    </contour>
  </outline>
</glyph>
<glyph name="P" format="1">
  <advance width="532"/>
  <unicode hex="0050"/>
  <outline>
    <contour>
      <point x="44" y="0"/>
      <point x="83" y="2"/>
      <point x="124" y="2" type="curve" smooth="yes"/>
      <point x="168" y="2"/>
      <point x="207" y="0"/>
      <point x="237" y="0" type="curve" smooth="yes"/>
      <point x="241" y="0"/>
      <point x="241" y="12"/>
      <point x="237" y="12" type="curve" smooth="yes"/>
      <point x="187" y="12"/>
      <point x="178" y="23"/>
      <point x="188" y="81" type="curve" smooth="yes"/>
      <point x="269" y="542" type="line" smooth="yes"/>
      <point x="280" y="595"/>
      <point x="290" y="607"/>
      <point x="333" y="607" type="curve" smooth="yes"/>
      <point x="394" y="607"/>
      <point x="446" y="544"/>
      <point x="428" y="433" type="curve" smooth="yes"/>
      <point x="412" y="327"/>
      <point x="349" y="283"/>
      <point x="285" y="283" type="curve" smooth="yes"/>
      <point x="276" y="283"/>
      <point x="265" y="284"/>
      <point x="256" y="287" type="curve" smooth="yes"/>
      <point x="251" y="288"/>
      <point x="247" y="268"/>
      <point x="250" y="267" type="curve" smooth="yes"/>
      <point x="263" y="263"/>
      <point x="276" y="262"/>
      <point x="291" y="262" type="curve" smooth="yes"/>
      <point x="381" y="262"/>
      <point x="513" y="318"/>
      <point x="538" y="453" type="curve" smooth="yes"/>
      <point x="560" y="571"/>
      <point x="475" y="628"/>
      <point x="352" y="628" type="curve" smooth="yes"/>
      <point x="312" y="628"/>
      <point x="258" y="622"/>
      <point x="232" y="622" type="curve" smooth="yes"/>
      <point x="189" y="622"/>
      <point x="152" y="625"/>
      <point x="123" y="625" type="curve" smooth="yes"/>
      <point x="119" y="625"/>
      <point x="119" y="613"/>
      <point x="123" y="613" type="curve" smooth="yes"/>
      <point x="173" y="613"/>
      <point x="182" y="602"/>
      <point x="172" y="544" type="curve" smooth="yes"/>
      <point x="90" y="81" type="line" smooth="yes"/>
      <point x="80" y="23"/>
      <point x="69" y="12"/>
      <point x="15" y="12" type="curve" smooth="yes"/>
      <point x="12" y="12"/>
      <point x="12" y="0"/>
      <point x="15" y="0" type="curve" smooth="yes"/>
    </contour>
    <contour>
      <point x="343" y="625" type="move" name="top"/>
    </contour>
    <contour>
      <point x="233" y="0" type="move" name="bottom"/>
    </contour>
  </outline>
</glyph>
<glyph name="Q" format="1">
  <advance width="655"/>
  <unicode hex="0051"/>
  <outline>
    <contour>
      <point x="648" y="-200"/>
      <point x="675" y="-194"/>
      <point x="701" y="-185" type="curve" smooth="yes"/>
      <point x="704" y="-184"/>
      <point x="701" y="-173"/>
      <point x="697" y="-174" type="curve" smooth="yes"/>
      <point x="687" y="-177"/>
      <point x="677" y="-178"/>
      <point x="665" y="-178" type="curve" smooth="yes"/>
      <point x="611" y="-178"/>
      <point x="501" y="-84"/>
      <point x="455" y="48" type="curve"/>
      <point x="363" y="1" type="line"/>
      <point x="433" y="-130"/>
      <point x="530" y="-200"/>
      <point x="627" y="-200" type="curve" smooth="yes"/>
    </contour>
    <component base="O"/>
    <contour>
      <point x="404" y="625" type="move" name="top"/>
    </contour>
    <contour>
      <point x="294" y="0" type="move" name="bottom"/>
    </contour>
  </outline>
</glyph>
<glyph name="R" format="1">
  <advance width="635"/>
  <unicode hex="0052"/>
  <outline>
    <contour>
      <point x="50" y="0"/>
      <point x="92" y="2"/>
      <point x="136" y="2" type="curve" smooth="yes"/>
      <point x="181" y="2"/>
      <point x="219" y="0"/>
      <point x="251" y="0" type="curve" smooth="yes"/>
      <point x="255" y="0"/>
      <point x="255" y="12"/>
      <point x="250" y="12" type="curve" smooth="yes"/>
      <point x="196" y="12"/>
      <point x="188" y="25"/>
      <point x="199" y="81" type="curve" smooth="yes"/>
      <point x="241" y="318" type="line"/>
      <point x="244" y="317"/>
      <point x="249" y="316"/>
      <point x="253" y="316" type="curve" smooth="yes"/>
      <point x="374" y="316"/>
      <point x="491" y="404"/>
      <point x="512" y="503" type="curve" smooth="yes"/>
      <point x="529" y="580"/>
      <point x="476" y="628"/>
      <point x="351" y="628" type="curve" smooth="yes"/>
      <point x="324" y="628"/>
      <point x="275" y="622"/>
      <point x="244" y="622" type="curve" smooth="yes"/>
      <point x="201" y="622"/>
      <point x="161" y="625"/>
      <point x="130" y="625" type="curve" smooth="yes"/>
      <point x="125" y="625"/>
      <point x="125" y="613"/>
      <point x="130" y="613" type="curve" smooth="yes"/>
      <point x="185" y="613"/>
      <point x="193" y="601"/>
      <point x="182" y="544" type="curve" smooth="yes"/>
      <point x="101" y="81" type="line" smooth="yes"/>
      <point x="90" y="25"/>
      <point x="77" y="12"/>
      <point x="19" y="12" type="curve" smooth="yes"/>
      <point x="14" y="12"/>
      <point x="14" y="0"/>
      <point x="19" y="0" type="curve" smooth="yes"/>
    </contour>
    <contour>
      <point x="484" y="0"/>
      <point x="530" y="0"/>
      <point x="611" y="0" type="curve" smooth="yes"/>
      <point x="615" y="0"/>
      <point x="615" y="12"/>
      <point x="611" y="12" type="curve" smooth="yes"/>
      <point x="542" y="12"/>
      <point x="485" y="101"/>
      <point x="388" y="360" type="curve"/>
      <point x="308" y="333" type="line"/>
      <point x="378" y="92"/>
      <point x="434" y="0"/>
      <point x="460" y="0" type="curve" smooth="yes"/>
    </contour>
    <contour>
      <point x="264" y="343"/>
      <point x="254" y="344"/>
      <point x="246" y="346" type="curve"/>
      <point x="281" y="542" type="line" smooth="yes"/>
      <point x="292" y="605"/>
      <point x="298" y="607"/>
      <point x="342" y="607" type="curve" smooth="yes"/>
      <point x="385" y="607"/>
      <point x="420" y="571"/>
      <point x="405" y="469" type="curve" smooth="yes"/>
      <point x="391" y="378"/>
      <point x="352" y="343"/>
      <point x="273" y="343" type="curve" smooth="yes"/>
    </contour>
    <contour>
      <point x="343" y="625" type="move" name="top"/>
    </contour>
    <contour>
      <point x="342" y="0" type="move" name="bottom"/>
    </contour>
  </outline>
</glyph>
<glyph name="S" format="1">
  <advance width="470"/>
  <unicode hex="0053"/>
  <outline>
    <contour>
      <point x="333" y="-12"/>
      <point x="416" y="64"/>
      <point x="434" y="160" type="curve" smooth="yes"/>
      <point x="450" y="253"/>
      <point x="380" y="309"/>
      <point x="315" y="360" type="curve" smooth="yes"/>
      <point x="256" y="407"/>
      <point x="199" y="447"/>
      <point x="213" y="526" type="curve" smooth="yes"/>
      <point x="220" y="566"/>
      <point x="248" y="615"/>
      <point x="309" y="615" type="curve" smooth="yes"/>
      <point x="368" y="615"/>
      <point x="418" y="558"/>
      <point x="439" y="465" type="curve" smooth="yes"/>
      <point x="440" y="461"/>
      <point x="449" y="461"/>
      <point x="450" y="465" type="curve" smooth="yes"/>
      <point x="465" y="595" type="line" smooth="yes"/>
      <point x="467" y="602"/>
      <point x="462" y="608"/>
      <point x="454" y="612" type="curve" smooth="yes"/>
      <point x="412" y="629"/>
      <point x="372" y="636"/>
      <point x="336" y="636" type="curve" smooth="yes"/>
      <point x="236" y="636"/>
      <point x="135" y="586"/>
      <point x="113" y="481" type="curve" smooth="yes"/>
      <point x="96" y="392"/>
      <point x="159" y="344"/>
      <point x="222" y="296" type="curve" smooth="yes"/>
      <point x="282" y="250"/>
      <point x="340" y="199"/>
      <point x="327" y="115" type="curve" smooth="yes"/>
      <point x="318" y="51"/>
      <point x="277" y="12"/>
      <point x="219" y="12" type="curve" smooth="yes"/>
      <point x="150" y="12"/>
      <point x="102" y="67"/>
      <point x="77" y="182" type="curve" smooth="yes"/>
      <point x="76" y="188"/>
      <point x="65" y="188"/>
      <point x="65" y="182" type="curve" smooth="yes"/>
      <point x="33" y="41" type="line" smooth="yes"/>
      <point x="30" y="32"/>
      <point x="33" y="26"/>
      <point x="39" y="22" type="curve" smooth="yes"/>
      <point x="94" y="-4"/>
      <point x="142" y="-12"/>
      <point x="192" y="-12" type="curve" smooth="yes"/>
    </contour>
    <contour>
      <point x="309" y="625" type="move" name="top"/>
    </contour>
    <contour>
      <point x="216" y="0" type="move" name="bottom"/>
    </contour>
  </outline>
</glyph>
<glyph name="T" format="1">
  <advance width="553"/>
  <unicode hex="0054"/>
  <outline>
    <contour>
      <point x="150" y="0"/>
      <point x="198" y="2"/>
      <point x="248" y="2" type="curve" smooth="yes"/>
      <point x="303" y="2"/>
      <point x="347" y="0"/>
      <point x="384" y="0" type="curve" smooth="yes"/>
      <point x="387" y="0"/>
      <point x="387" y="12"/>
      <point x="384" y="12" type="curve" smooth="yes"/>
      <point x="309" y="12"/>
      <point x="299" y="23"/>
      <point x="310" y="81" type="curve" smooth="yes"/>
      <point x="391" y="542" type="line" smooth="yes"/>
      <point x="399" y="589"/>
      <point x="404" y="602"/>
      <point x="440" y="602" type="curve" smooth="yes"/>
      <point x="451" y="602" type="line" smooth="yes"/>
      <point x="522" y="602"/>
      <point x="567" y="532"/>
      <point x="552" y="449" type="curve" smooth="yes"/>
      <point x="551" y="444"/>
      <point x="563" y="443"/>
      <point x="564" y="448" type="curve" smooth="yes"/>
      <point x="568" y="482"/>
      <point x="595" y="606"/>
      <point x="607" y="648" type="curve" smooth="yes"/>
      <point x="608" y="653"/>
      <point x="598" y="654"/>
      <point x="596" y="650" type="curve" smooth="yes"/>
      <point x="587" y="629"/>
      <point x="567" y="625"/>
      <point x="530" y="625" type="curve" smooth="yes"/>
      <point x="485" y="625"/>
      <point x="434" y="622"/>
      <point x="354" y="622" type="curve" smooth="yes"/>
      <point x="291" y="622"/>
      <point x="220" y="623"/>
      <point x="171" y="625" type="curve" smooth="yes"/>
      <point x="156" y="625"/>
      <point x="129" y="626"/>
      <point x="132" y="646" type="curve" smooth="yes"/>
      <point x="133" y="650"/>
      <point x="122" y="651"/>
      <point x="120" y="647" type="curve" smooth="yes"/>
      <point x="111" y="598"/>
      <point x="84" y="485"/>
      <point x="73" y="448" type="curve" smooth="yes"/>
      <point x="71" y="444"/>
      <point x="83" y="442"/>
      <point x="84" y="446" type="curve" smooth="yes"/>
      <point x="109" y="531"/>
      <point x="185" y="602"/>
      <point x="249" y="602" type="curve" smooth="yes"/>
      <point x="261" y="602" type="line" smooth="yes"/>
      <point x="294" y="602"/>
      <point x="301" y="591"/>
      <point x="292" y="544" type="curve" smooth="yes"/>
      <point x="211" y="81" type="line" smooth="yes"/>
      <point x="200" y="23"/>
      <point x="185" y="12"/>
      <point x="113" y="12" type="curve" smooth="yes"/>
      <point x="110" y="12"/>
      <point x="110" y="0"/>
      <point x="113" y="0" type="curve" smooth="yes"/>
    </contour>
    <contour>
      <point x="275" y="312" type="move" name="center"/>
    </contour>
    <contour>
      <point x="246" y="0" type="move" name="bottom"/>
    </contour>
    <contour>
      <point x="353" y="625" type="move" name="top"/>
    </contour>
  </outline>
</glyph>
<glyph name="U" format="1">
  <advance width="620"/>
  <unicode hex="0055"/>
  <outline>
    <contour>
      <point x="505" y="198" type="line" smooth="yes"/>
      <point x="487" y="89"/>
      <point x="415" y="23"/>
      <point x="313" y="23" type="curve" smooth="yes"/>
      <point x="216" y="23"/>
      <point x="164" y="83"/>
      <point x="189" y="229" type="curve" smooth="yes"/>
      <point x="244" y="538" type="line" smooth="yes"/>
      <point x="254" y="595"/>
      <point x="267" y="613"/>
      <point x="323" y="613" type="curve" smooth="yes"/>
      <point x="325" y="613"/>
      <point x="326" y="625"/>
      <point x="323" y="625" type="curve" smooth="yes"/>
      <point x="294" y="625"/>
      <point x="254" y="622"/>
      <point x="207" y="622" type="curve" smooth="yes"/>
      <point x="165" y="622"/>
      <point x="126" y="625"/>
      <point x="94" y="625" type="curve" smooth="yes"/>
      <point x="92" y="625"/>
      <point x="90" y="613"/>
      <point x="95" y="613" type="curve" smooth="yes"/>
      <point x="147" y="613"/>
      <point x="156" y="605"/>
      <point x="146" y="547" type="curve" smooth="yes"/>
      <point x="84" y="201" type="line" smooth="yes"/>
      <point x="61" y="68"/>
      <point x="142" y="-14"/>
      <point x="277" y="-14" type="curve" smooth="yes"/>
      <point x="408" y="-14"/>
      <point x="512" y="64"/>
      <point x="535" y="192" type="curve" smooth="yes"/>
      <point x="588" y="494" type="line" smooth="yes"/>
      <point x="600" y="565"/>
      <point x="636" y="613"/>
      <point x="684" y="613" type="curve" smooth="yes"/>
      <point x="687" y="613"/>
      <point x="689" y="625"/>
      <point x="684" y="625" type="curve" smooth="yes"/>
      <point x="660" y="625"/>
      <point x="627" y="622"/>
      <point x="594" y="622" type="curve" smooth="yes"/>
      <point x="557" y="622"/>
      <point x="526" y="625"/>
      <point x="496" y="625" type="curve" smooth="yes"/>
      <point x="494" y="625"/>
      <point x="492" y="613"/>
      <point x="496" y="613" type="curve" smooth="yes"/>
      <point x="547" y="613"/>
      <point x="571" y="572"/>
      <point x="559" y="501" type="curve" smooth="yes"/>
    </contour>
    <contour>
      <point x="371" y="12" type="move" name="ogonek"/>
    </contour>
    <contour>
      <point x="413" y="625" type="move" name="top"/>
    </contour>
    <contour>
      <point x="673" y="625" type="move" name="topright"/>
    </contour>
    <contour>
      <point x="276" y="0" type="move" name="bottom"/>
    </contour>
  </outline>
</glyph>
<glyph name="V" format="1">
  <advance width="599"/>
  <unicode hex="0056"/>
  <outline>
    <contour>
      <point x="262" y="-4"/>
      <point x="284" y="-6"/>
      <point x="288" y="1" type="curve" smooth="yes"/>
      <point x="551" y="506" type="line" smooth="yes"/>
      <point x="600" y="601"/>
      <point x="636" y="613"/>
      <point x="675" y="613" type="curve" smooth="yes"/>
      <point x="680" y="613"/>
      <point x="680" y="625"/>
      <point x="675" y="625" type="curve" smooth="yes"/>
      <point x="641" y="625"/>
      <point x="623" y="622"/>
      <point x="587" y="622" type="curve" smooth="yes"/>
      <point x="532" y="622"/>
      <point x="504" y="625"/>
      <point x="468" y="625" type="curve" smooth="yes"/>
      <point x="464" y="625"/>
      <point x="464" y="613"/>
      <point x="468" y="613" type="curve" smooth="yes"/>
      <point x="525" y="613"/>
      <point x="553" y="575"/>
      <point x="519" y="509" type="curve" smooth="yes"/>
      <point x="268" y="15" type="line"/>
      <point x="338" y="113" type="line"/>
      <point x="233" y="552" type="line" smooth="yes"/>
      <point x="221" y="600"/>
      <point x="247" y="613"/>
      <point x="288" y="613" type="curve" smooth="yes"/>
      <point x="292" y="613"/>
      <point x="292" y="625"/>
      <point x="288" y="625" type="curve" smooth="yes"/>
      <point x="256" y="625"/>
      <point x="220" y="622"/>
      <point x="164" y="622" type="curve" smooth="yes"/>
      <point x="135" y="622"/>
      <point x="98" y="625"/>
      <point x="69" y="625" type="curve" smooth="yes"/>
      <point x="65" y="625"/>
      <point x="65" y="613"/>
      <point x="69" y="613" type="curve" smooth="yes"/>
      <point x="103" y="613"/>
      <point x="117" y="594"/>
      <point x="130" y="542" type="curve" smooth="yes"/>
      <point x="261" y="1" type="line" smooth="yes"/>
    </contour>
    <contour>
      <point x="375" y="625" type="move" name="top"/>
    </contour>
    <contour>
      <point x="265" y="0" type="move" name="bottom"/>
    </contour>
  </outline>
</glyph>
<glyph name="W" format="1">
  <advance width="833"/>
  <unicode hex="0057"/>
  <outline>
    <contour>
      <point x="496" y="-4"/>
      <point x="518" y="-6"/>
      <point x="522" y="1" type="curve" smooth="yes"/>
      <point x="785" y="506" type="line" smooth="yes"/>
      <point x="834" y="601"/>
      <point x="870" y="613"/>
      <point x="909" y="613" type="curve" smooth="yes"/>
      <point x="913" y="613"/>
      <point x="913" y="625"/>
      <point x="909" y="625" type="curve" smooth="yes"/>
      <point x="875" y="625"/>
      <point x="857" y="622"/>
      <point x="821" y="622" type="curve" smooth="yes"/>
      <point x="775" y="622"/>
      <point x="752" y="625"/>
      <point x="722" y="625" type="curve" smooth="yes"/>
      <point x="718" y="625"/>
      <point x="718" y="613"/>
      <point x="722" y="613" type="curve" smooth="yes"/>
      <point x="771" y="613"/>
      <point x="782" y="566"/>
      <point x="753" y="509" type="curve" smooth="yes"/>
      <point x="502" y="15" type="line"/>
      <point x="568" y="113" type="line"/>
      <point x="463" y="552" type="line" smooth="yes"/>
      <point x="450" y="607"/>
      <point x="454" y="613"/>
      <point x="475" y="613" type="curve" smooth="yes"/>
      <point x="480" y="613"/>
      <point x="480" y="625"/>
      <point x="475" y="625" type="curve" smooth="yes"/>
      <point x="455" y="625"/>
      <point x="433" y="622"/>
      <point x="398" y="622" type="curve" smooth="yes"/>
      <point x="372" y="622"/>
      <point x="340" y="625"/>
      <point x="315" y="625" type="curve" smooth="yes"/>
      <point x="311" y="625"/>
      <point x="311" y="613"/>
      <point x="315" y="613" type="curve" smooth="yes"/>
      <point x="342" y="613"/>
      <point x="351" y="594"/>
      <point x="364" y="542" type="curve" smooth="yes"/>
      <point x="495" y="1" type="line" smooth="yes"/>
    </contour>
    <contour>
      <point x="262" y="-4"/>
      <point x="284" y="-6"/>
      <point x="288" y="1" type="curve" smooth="yes"/>
      <point x="463" y="339" type="line"/>
      <point x="447" y="366" type="line"/>
      <point x="268" y="15" type="line"/>
      <point x="335" y="113" type="line"/>
      <point x="229" y="552" type="line" smooth="yes"/>
      <point x="218" y="599"/>
      <point x="241" y="613"/>
      <point x="264" y="613" type="curve" smooth="yes"/>
      <point x="269" y="613"/>
      <point x="269" y="625"/>
      <point x="264" y="625" type="curve" smooth="yes"/>
      <point x="239" y="625"/>
      <point x="209" y="622"/>
      <point x="164" y="622" type="curve" smooth="yes"/>
      <point x="135" y="622"/>
      <point x="98" y="625"/>
      <point x="69" y="625" type="curve" smooth="yes"/>
      <point x="65" y="625"/>
      <point x="65" y="613"/>
      <point x="69" y="613" type="curve" smooth="yes"/>
      <point x="103" y="613"/>
      <point x="117" y="594"/>
      <point x="130" y="542" type="curve" smooth="yes"/>
      <point x="261" y="1" type="line" smooth="yes"/>
    </contour>
    <contour>
      <point x="568" y="506" type="line" smooth="yes"/>
      <point x="618" y="600"/>
      <point x="643" y="613"/>
      <point x="677" y="613" type="curve" smooth="yes"/>
      <point x="682" y="613"/>
      <point x="682" y="625"/>
      <point x="677" y="625" type="curve" smooth="yes"/>
      <point x="649" y="625"/>
      <point x="635" y="622"/>
      <point x="605" y="622" type="curve" smooth="yes"/>
      <point x="571" y="622"/>
      <point x="554" y="625"/>
      <point x="532" y="625" type="curve" smooth="yes"/>
      <point x="529" y="625"/>
      <point x="529" y="613"/>
      <point x="532" y="613" type="curve" smooth="yes"/>
      <point x="572" y="613"/>
      <point x="573" y="580"/>
      <point x="537" y="509" type="curve" smooth="yes"/>
      <point x="464" y="366" type="line"/>
      <point x="481" y="339" type="line"/>
    </contour>
    <contour>
      <point x="488" y="625" type="move" name="top"/>
    </contour>
    <contour>
      <point x="382" y="0" type="move" name="bottom"/>
    </contour>
  </outline>
</glyph>
<glyph name="X" format="1">
  <advance width="580"/>
  <unicode hex="0058"/>
  <outline>
    <contour>
      <point x="342" y="0"/>
      <point x="400" y="2"/>
      <point x="444" y="2" type="curve" smooth="yes"/>
      <point x="480" y="2"/>
      <point x="511" y="0"/>
      <point x="538" y="0" type="curve" smooth="yes"/>
      <point x="543" y="0"/>
      <point x="543" y="12"/>
      <point x="538" y="12" type="curve" smooth="yes"/>
      <point x="496" y="12"/>
      <point x="475" y="32"/>
      <point x="455" y="83" type="curve" smooth="yes"/>
      <point x="268" y="573" type="line" smooth="yes"/>
      <point x="257" y="600"/>
      <point x="280" y="613"/>
      <point x="301" y="613" type="curve" smooth="yes"/>
      <point x="305" y="613"/>
      <point x="305" y="625"/>
      <point x="301" y="625" type="curve" smooth="yes"/>
      <point x="271" y="625"/>
      <point x="221" y="622"/>
      <point x="173" y="622" type="curve" smooth="yes"/>
      <point x="150" y="622"/>
      <point x="123" y="625"/>
      <point x="99" y="625" type="curve" smooth="yes"/>
      <point x="95" y="625"/>
      <point x="95" y="613"/>
      <point x="99" y="613" type="curve" smooth="yes"/>
      <point x="133" y="613"/>
      <point x="153" y="592"/>
      <point x="172" y="542" type="curve" smooth="yes"/>
      <point x="359" y="51" type="line" smooth="yes"/>
      <point x="370" y="23"/>
      <point x="336" y="12"/>
      <point x="313" y="12" type="curve" smooth="yes"/>
      <point x="309" y="12"/>
      <point x="308" y="0"/>
      <point x="313" y="0" type="curve" smooth="yes"/>
    </contour>
    <contour>
      <point x="-7" y="0"/>
      <point x="19" y="2"/>
      <point x="46" y="2" type="curve" smooth="yes"/>
      <point x="90" y="2"/>
      <point x="146" y="0"/>
      <point x="175" y="0" type="curve" smooth="yes"/>
      <point x="180" y="0"/>
      <point x="180" y="12"/>
      <point x="175" y="12" type="curve" smooth="yes"/>
      <point x="123" y="12"/>
      <point x="92" y="34"/>
      <point x="146" y="103" type="curve" smooth="yes"/>
      <point x="292" y="291" type="line"/>
      <point x="274" y="310" type="line"/>
      <point x="126" y="123" type="line" smooth="yes"/>
      <point x="64" y="44"/>
      <point x="8" y="12"/>
      <point x="-32" y="12" type="curve" smooth="yes"/>
      <point x="-37" y="12"/>
      <point x="-37" y="0"/>
      <point x="-32" y="0" type="curve" smooth="yes"/>
    </contour>
    <contour>
      <point x="469" y="502" type="line" smooth="yes"/>
      <point x="530" y="580"/>
      <point x="587" y="613"/>
      <point x="627" y="613" type="curve" smooth="yes"/>
      <point x="633" y="613"/>
      <point x="633" y="625"/>
      <point x="627" y="625" type="curve" smooth="yes"/>
      <point x="602" y="625"/>
      <point x="577" y="622"/>
      <point x="550" y="622" type="curve" smooth="yes"/>
      <point x="505" y="622"/>
      <point x="449" y="625"/>
      <point x="420" y="625" type="curve" smooth="yes"/>
      <point x="415" y="625"/>
      <point x="415" y="613"/>
      <point x="420" y="613" type="curve" smooth="yes"/>
      <point x="473" y="613"/>
      <point x="503" y="591"/>
      <point x="449" y="522" type="curve" smooth="yes"/>
      <point x="303" y="333" type="line"/>
      <point x="322" y="315" type="line"/>
    </contour>
    <contour>
      <point x="366" y="625" type="move" name="top"/>
    </contour>
    <contour>
      <point x="256" y="0" type="move" name="bottom"/>
    </contour>
  </outline>
</glyph>
<glyph name="Y" format="1">
  <advance width="535"/>
  <unicode hex="0059"/>
  <outline>
    <contour>
      <point x="469" y="504" type="line" smooth="yes"/>
      <point x="519" y="579"/>
      <point x="563" y="613"/>
      <point x="605" y="613" type="curve" smooth="yes"/>
      <point x="609" y="613"/>
      <point x="609" y="625"/>
      <point x="605" y="625" type="curve" smooth="yes"/>
      <point x="580" y="625"/>
      <point x="566" y="622"/>
      <point x="538" y="622" type="curve" smooth="yes"/>
      <point x="495" y="622"/>
      <point x="450" y="625"/>
      <point x="420" y="625" type="curve" smooth="yes"/>
      <point x="415" y="625"/>
      <point x="415" y="613"/>
      <point x="420" y="613" type="curve" smooth="yes"/>
      <point x="468" y="613"/>
      <point x="481" y="573"/>
      <point x="450" y="526" type="curve" smooth="yes"/>
      <point x="294" y="282" type="line"/>
      <point x="311" y="265" type="line"/>
    </contour>
    <contour>
      <point x="150" y="0"/>
      <point x="192" y="2"/>
      <point x="241" y="2" type="curve" smooth="yes"/>
      <point x="289" y="2"/>
      <point x="330" y="0"/>
      <point x="363" y="0" type="curve" smooth="yes"/>
      <point x="367" y="0"/>
      <point x="367" y="12"/>
      <point x="363" y="12" type="curve" smooth="yes"/>
      <point x="299" y="12"/>
      <point x="291" y="23"/>
      <point x="302" y="81" type="curve" smooth="yes"/>
      <point x="344" y="319" type="line"/>
      <point x="243" y="310" type="line"/>
      <point x="204" y="81" type="line" smooth="yes"/>
      <point x="194" y="23"/>
      <point x="180" y="12"/>
      <point x="117" y="12" type="curve" smooth="yes"/>
      <point x="112" y="12"/>
      <point x="112" y="0"/>
      <point x="117" y="0" type="curve" smooth="yes"/>
    </contour>
    <contour>
      <point x="344" y="317" type="line"/>
      <point x="237" y="573" type="line" smooth="yes"/>
      <point x="225" y="604"/>
      <point x="237" y="613"/>
      <point x="282" y="613" type="curve" smooth="yes"/>
      <point x="287" y="613"/>
      <point x="287" y="625"/>
      <point x="282" y="625" type="curve" smooth="yes"/>
      <point x="257" y="625"/>
      <point x="205" y="622"/>
      <point x="167" y="622" type="curve" smooth="yes"/>
      <point x="136" y="622"/>
      <point x="99" y="625"/>
      <point x="70" y="625" type="curve" smooth="yes"/>
      <point x="65" y="625"/>
      <point x="65" y="613"/>
      <point x="70" y="613" type="curve" smooth="yes"/>
      <point x="97" y="613"/>
      <point x="118" y="591"/>
      <point x="139" y="542" type="curve" smooth="yes"/>
      <point x="254" y="271" type="line"/>
    </contour>
    <contour>
      <point x="349" y="625" type="move" name="top"/>
    </contour>
    <contour>
      <point x="246" y="0" type="move" name="bottom"/>
    </contour>
    <contour>
      <point x="99" y="625" type="move" name="topleft"/>
    </contour>
  </outline>
</glyph>
<glyph name="Z" format="1">
  <advance width="557"/>
  <unicode hex="005A"/>
  <outline>
    <contour>
      <point x="478" y="-2"/>
      <point x="483" y="4"/>
      <point x="483" y="8" type="curve" smooth="yes"/>
      <point x="522" y="152" type="line" smooth="yes"/>
      <point x="523" y="157"/>
      <point x="513" y="159"/>
      <point x="510" y="154" type="curve" smooth="yes"/>
      <point x="442" y="51"/>
      <point x="366" y="19"/>
      <point x="233" y="19" type="curve" smooth="yes"/>
      <point x="211" y="19"/>
      <point x="175" y="19"/>
      <point x="131" y="19" type="curve" smooth="yes"/>
      <point x="124" y="19"/>
      <point x="123" y="20"/>
      <point x="129" y="27" type="curve" smooth="yes"/>
      <point x="591" y="612" type="line" smooth="yes"/>
      <point x="594" y="616"/>
      <point x="592" y="625"/>
      <point x="586" y="625" type="curve" smooth="yes"/>
      <point x="415" y="625"/>
      <point x="310" y="625"/>
      <point x="232" y="625" type="curve" smooth="yes"/>
      <point x="186" y="625"/>
      <point x="180" y="628"/>
      <point x="187" y="651" type="curve" smooth="yes"/>
      <point x="189" y="655"/>
      <point x="177" y="658"/>
      <point x="175" y="655" type="curve" smooth="yes"/>
      <point x="102" y="469" type="line" smooth="yes"/>
      <point x="99" y="464"/>
      <point x="109" y="461"/>
      <point x="112" y="465" type="curve" smooth="yes"/>
      <point x="193" y="584"/>
      <point x="254" y="608"/>
      <point x="467" y="608" type="curve" smooth="yes"/>
      <point x="475" y="608"/>
      <point x="475" y="607"/>
      <point x="469" y="600" type="curve" smooth="yes"/>
      <point x="2" y="13" type="line" smooth="yes"/>
      <point x="-1" y="8"/>
      <point x="0" y="0"/>
      <point x="6" y="0" type="curve" smooth="yes"/>
      <point x="147" y="0"/>
      <point x="332" y="0"/>
      <point x="474" y="-2" type="curve" smooth="yes"/>
    </contour>
    <contour>
      <point x="357" y="625" type="move" name="top"/>
    </contour>
    <contour>
      <point x="280" y="0" type="move" name="bottom"/>
    </contour>
  </outline>
</glyph>
<glyph name="bracketleft" format="1">
  <advance width="253"/>
  <unicode hex="005B"/>
  <outline>
    <contour>
      <point x="68" y="-117"/>
      <point x="137" y="-117"/>
      <point x="172" y="-117" type="curve" smooth="yes"/>
      <point x="178" y="-117"/>
      <point x="178" y="-105"/>
      <point x="172" y="-105" type="curve" smooth="yes"/>
      <point x="111" y="-105"/>
      <point x="101" y="-91"/>
      <point x="111" y="-34" type="curve" smooth="yes"/>
      <point x="230" y="642" type="line" smooth="yes"/>
      <point x="241" y="699"/>
      <point x="254" y="713"/>
      <point x="318" y="713" type="curve" smooth="yes"/>
      <point x="323" y="713"/>
      <point x="323" y="725"/>
      <point x="318" y="725" type="curve" smooth="yes"/>
      <point x="283" y="725"/>
      <point x="216" y="725"/>
      <point x="163" y="725" type="curve" smooth="yes"/>
      <point x="156" y="725"/>
      <point x="154" y="724"/>
      <point x="153" y="715" type="curve" smooth="yes"/>
      <point x="8" y="-106" type="line" smooth="yes"/>
      <point x="6" y="-116"/>
      <point x="7" y="-117"/>
      <point x="14" y="-117" type="curve" smooth="yes"/>
    </contour>
    <contour>
      <point x="119" y="12" type="move" name="ogonek"/>
    </contour>
    <contour>
      <point x="242" y="625" type="move" name="top"/>
    </contour>
  </outline>
</glyph>
<glyph name="backslash" format="1">
  <advance width="305"/>
  <unicode hex="005C"/>
  <outline>
    <contour>
      <point x="184" y="-172"/>
      <point x="227" y="-166"/>
      <point x="226" y="-158" type="curve" smooth="yes"/>
      <point x="153" y="729" type="line" smooth="yes"/>
      <point x="152" y="738"/>
      <point x="109" y="732"/>
      <point x="110" y="723" type="curve" smooth="yes"/>
      <point x="182" y="-163" type="line" smooth="yes"/>
    </contour>
  </outline>
</glyph>
<glyph name="bracketright" format="1">
  <advance width="215"/>
  <unicode hex="005D"/>
  <outline>
    <component base="bracketleft" xOffset="249" yOffset="520" xScale="-1" yScale="-1"/>
    <contour>
      <point x="-61" y="10" type="move" name="ogonek"/>
    </contour>
    <contour>
      <point x="173" y="534" type="move" name="top"/>
    </contour>
  </outline>
</glyph>
<glyph name="asciicircum" format="1">
  <advance width="353"/>
  <unicode hex="005E"/>
  <outline>
    <contour>
      <point x="228" y="488" type="line"/>
      <point x="323" y="377" type="line" smooth="yes"/>
      <point x="324" y="373"/>
      <point x="333" y="377"/>
      <point x="333" y="380" type="curve" smooth="yes"/>
      <point x="263" y="629" type="line" smooth="yes"/>
      <point x="262" y="636"/>
      <point x="246" y="636"/>
      <point x="243" y="629" type="curve" smooth="yes"/>
      <point x="85" y="380" type="line" smooth="yes"/>
      <point x="84" y="377"/>
      <point x="92" y="372"/>
      <point x="96" y="375" type="curve" smooth="yes"/>
    </contour>
  </outline>
</glyph>
<glyph name="underscore" format="1">
  <advance width="363"/>
  <unicode hex="005F"/>
  <outline>
    <contour>
      <point x="311" y="-80" type="line" smooth="yes"/>
      <point x="317" y="-80"/>
      <point x="317" y="-33"/>
      <point x="311" y="-33" type="curve" smooth="yes"/>
      <point x="-8" y="-33" type="line" smooth="yes"/>
      <point x="-13" y="-33"/>
      <point x="-13" y="-80"/>
      <point x="-7" y="-80" type="curve" smooth="yes"/>
    </contour>
  </outline>
</glyph>
<glyph name="grave" format="1">
  <advance width="166"/>
  <unicode hex="0060"/>
  <outline>
    <contour>
      <point x="172" y="471"/>
      <point x="181" y="473"/>
      <point x="181" y="476" type="curve" smooth="yes"/>
      <point x="205" y="716" type="line" smooth="yes"/>
      <point x="206" y="729"/>
      <point x="108" y="743"/>
      <point x="111" y="727" type="curve" smooth="yes"/>
      <point x="172" y="475" type="line" smooth="yes"/>
    </contour>
    <contour>
      <point x="154" y="386" type="move" name="_top"/>
    </contour>
  </outline>
</glyph>
<glyph name="a" format="1">
  <advance width="444"/>
  <unicode hex="0061"/>
  <outline>
    <contour>
      <point x="164" y="-13"/>
      <point x="262" y="82"/>
      <point x="310" y="246" type="curve"/>
      <point x="289" y="229" type="line" smooth="yes"/>
      <point x="264" y="89" type="line" smooth="yes"/>
      <point x="253" y="21"/>
      <point x="268" y="-9"/>
      <point x="311" y="-9" type="curve" smooth="yes"/>
      <point x="345" y="-9"/>
      <point x="382" y="19"/>
      <point x="423" y="69" type="curve" smooth="yes"/>
      <point x="427" y="73"/>
      <point x="419" y="81"/>
      <point x="415" y="77" type="curve" smooth="yes"/>
      <point x="394" y="56"/>
      <point x="374" y="42"/>
      <point x="361" y="42" type="curve" smooth="yes"/>
      <point x="349" y="42"/>
      <point x="344" y="57"/>
      <point x="350" y="89" type="curve" smooth="yes"/>
      <point x="408" y="404" type="line" smooth="yes"/>
      <point x="409" y="407"/>
      <point x="399" y="411"/>
      <point x="396" y="407" type="curve" smooth="yes"/>
      <point x="379" y="380"/>
      <point x="351" y="360"/>
      <point x="329" y="357" type="curve"/>
      <point x="389" y="324" type="line"/>
      <point x="385" y="377"/>
      <point x="333" y="399"/>
      <point x="294" y="399" type="curve" smooth="yes"/>
      <point x="181" y="399"/>
      <point x="36" y="226"/>
      <point x="18" y="91" type="curve" smooth="yes"/>
      <point x="7" y="18"/>
      <point x="37" y="-13"/>
      <point x="83" y="-13" type="curve" smooth="yes"/>
    </contour>
    <contour>
      <point x="117" y="60"/>
      <point x="97" y="88"/>
      <point x="111" y="172" type="curve" smooth="yes"/>
      <point x="129" y="275"/>
      <point x="188" y="350"/>
      <point x="244" y="350" type="curve" smooth="yes"/>
      <point x="284" y="350"/>
      <point x="305" y="313"/>
      <point x="294" y="253" type="curve" smooth="yes"/>
      <point x="280" y="178"/>
      <point x="211" y="60"/>
      <point x="147" y="60" type="curve" smooth="yes"/>
    </contour>
    <contour>
      <point x="378" y="12" type="move" name="ogonek"/>
    </contour>
    <contour>
      <point x="229" y="0" type="move" name="bottom"/>
    </contour>
    <contour>
      <point x="280" y="386" type="move" name="top"/>
    </contour>
  </outline>
</glyph>
<glyph name="b" format="1">
  <advance width="451"/>
  <unicode hex="0062"/>
  <outline>
    <contour>
      <point x="249" y="-13"/>
      <point x="401" y="78"/>
      <point x="432" y="251" type="curve" smooth="yes"/>
      <point x="446" y="338"/>
      <point x="415" y="399"/>
      <point x="352" y="399" type="curve" smooth="yes"/>
      <point x="246" y="399"/>
      <point x="144" y="269"/>
      <point x="120" y="116" type="curve"/>
      <point x="131" y="96" type="line"/>
      <point x="156" y="236"/>
      <point x="222" y="332"/>
      <point x="295" y="332" type="curve" smooth="yes"/>
      <point x="336" y="332"/>
      <point x="346" y="282"/>
      <point x="333" y="220" type="curve" smooth="yes"/>
      <point x="313" y="90"/>
      <point x="250" y="15"/>
      <point x="191" y="15" type="curve" smooth="yes"/>
      <point x="151" y="15"/>
      <point x="123" y="49"/>
      <point x="131" y="96" type="curve" smooth="yes"/>
      <point x="241" y="717" type="line" smooth="yes"/>
      <point x="242" y="720"/>
      <point x="235" y="727"/>
      <point x="229" y="725" type="curve" smooth="yes"/>
      <point x="74" y="649" type="line" smooth="yes"/>
      <point x="68" y="647"/>
      <point x="73" y="635"/>
      <point x="78" y="637" type="curve" smooth="yes"/>
      <point x="133" y="663"/>
      <point x="147" y="653"/>
      <point x="136" y="589" type="curve" smooth="yes"/>
      <point x="44" y="87" type="line" smooth="yes"/>
      <point x="33" y="26"/>
      <point x="75" y="-13"/>
      <point x="154" y="-13" type="curve" smooth="yes"/>
    </contour>
    <contour>
      <point x="260" y="386" type="move" name="top"/>
    </contour>
    <contour>
      <point x="192" y="0" type="move" name="bottom"/>
    </contour>
  </outline>
</glyph>
<glyph name="c" format="1">
  <advance width="347"/>
  <unicode hex="0063"/>
  <outline>
    <contour>
      <point x="209" y="-13"/>
      <point x="267" y="9"/>
      <point x="317" y="58" type="curve" smooth="yes"/>
      <point x="320" y="62"/>
      <point x="312" y="69"/>
      <point x="309" y="67" type="curve" smooth="yes"/>
      <point x="288" y="51"/>
      <point x="249" y="36"/>
      <point x="221" y="36" type="curve" smooth="yes"/>
      <point x="131" y="36"/>
      <point x="104" y="126"/>
      <point x="123" y="237" type="curve" smooth="yes"/>
      <point x="136" y="317"/>
      <point x="168" y="371"/>
      <point x="209" y="371" type="curve" smooth="yes"/>
      <point x="234" y="371"/>
      <point x="241" y="352"/>
      <point x="246" y="332" type="curve" smooth="yes"/>
      <point x="250" y="310"/>
      <point x="260" y="287"/>
      <point x="296" y="287" type="curve" smooth="yes"/>
      <point x="327" y="287"/>
      <point x="345" y="305"/>
      <point x="347" y="332" type="curve" smooth="yes"/>
      <point x="351" y="380"/>
      <point x="298" y="399"/>
      <point x="253" y="399" type="curve" smooth="yes"/>
      <point x="161" y="399"/>
      <point x="50" y="322"/>
      <point x="29" y="202" type="curve" smooth="yes"/>
      <point x="11" y="99"/>
      <point x="40" y="-13"/>
      <point x="160" y="-13" type="curve" smooth="yes"/>
    </contour>
    <contour>
      <point x="229" y="386" type="move" name="top"/>
    </contour>
    <contour>
      <point x="156" y="0" type="move" name="bottom"/>
    </contour>
  </outline>
</glyph>
<glyph name="d" format="1">
  <advance width="450"/>
  <unicode hex="0064"/>
  <outline>
    <contour>
      <point x="193" y="-13"/>
      <point x="271" y="96"/>
      <point x="330" y="246" type="curve"/>
      <point x="380" y="332" type="line"/>
      <point x="377" y="378"/>
      <point x="338" y="399"/>
      <point x="294" y="399" type="curve" smooth="yes"/>
      <point x="185" y="399"/>
      <point x="50" y="270"/>
      <point x="23" y="126" type="curve" smooth="yes"/>
      <point x="5" y="23"/>
      <point x="55" y="-13"/>
      <point x="108" y="-13" type="curve" smooth="yes"/>
    </contour>
    <contour>
      <point x="117" y="57"/>
      <point x="97" y="94"/>
      <point x="111" y="180" type="curve" smooth="yes"/>
      <point x="129" y="288"/>
      <point x="176" y="350"/>
      <point x="239" y="350" type="curve" smooth="yes"/>
      <point x="282" y="350"/>
      <point x="320" y="320"/>
      <point x="310" y="260" type="curve" smooth="yes"/>
      <point x="298" y="191"/>
      <point x="233" y="57"/>
      <point x="158" y="57" type="curve" smooth="yes"/>
    </contour>
    <contour>
      <point x="361" y="-9"/>
      <point x="394" y="19"/>
      <point x="436" y="69" type="curve" smooth="yes"/>
      <point x="441" y="74"/>
      <point x="433" y="82"/>
      <point x="428" y="77" type="curve" smooth="yes"/>
      <point x="407" y="57"/>
      <point x="389" y="42"/>
      <point x="375" y="42" type="curve" smooth="yes"/>
      <point x="364" y="42"/>
      <point x="356" y="51"/>
      <point x="363" y="89" type="curve" smooth="yes"/>
      <point x="475" y="717" type="line" smooth="yes"/>
      <point x="476" y="720"/>
      <point x="469" y="727"/>
      <point x="463" y="725" type="curve" smooth="yes"/>
      <point x="308" y="649" type="line" smooth="yes"/>
      <point x="302" y="647"/>
      <point x="306" y="635"/>
      <point x="312" y="637" type="curve" smooth="yes"/>
      <point x="367" y="663"/>
      <point x="381" y="653"/>
      <point x="370" y="589" type="curve" smooth="yes"/>
      <point x="278" y="89" type="line" smooth="yes"/>
      <point x="267" y="25"/>
      <point x="277" y="-9"/>
      <point x="322" y="-9" type="curve" smooth="yes"/>
    </contour>
    <contour>
      <point x="215" y="0" type="move" name="bottom"/>
    </contour>
    <contour>
      <point x="260" y="386" type="move" name="top"/>
    </contour>
    <contour>
      <point x="426" y="386" type="move" name="topright"/>
    </contour>
    <contour>
      <point x="194" y="193" type="move" name="center"/>
    </contour>
  </outline>
</glyph>
<glyph name="e" format="1">
  <advance width="357"/>
  <unicode hex="0065"/>
  <outline>
    <contour>
      <point x="209" y="-12"/>
      <point x="265" y="6"/>
      <point x="316" y="55" type="curve" smooth="yes"/>
      <point x="319" y="58"/>
      <point x="312" y="65"/>
      <point x="309" y="63" type="curve" smooth="yes"/>
      <point x="280" y="40"/>
      <point x="244" y="32"/>
      <point x="219" y="32" type="curve" smooth="yes"/>
      <point x="136" y="32"/>
      <point x="108" y="116"/>
      <point x="124" y="218" type="curve" smooth="yes"/>
      <point x="138" y="304"/>
      <point x="172" y="372"/>
      <point x="218" y="372" type="curve" smooth="yes"/>
      <point x="242" y="372"/>
      <point x="254" y="353"/>
      <point x="249" y="324" type="curve" smooth="yes"/>
      <point x="240" y="260"/>
      <point x="170" y="229"/>
      <point x="75" y="214" type="curve"/>
      <point x="73" y="201" type="line"/>
      <point x="207" y="215"/>
      <point x="343" y="275"/>
      <point x="350" y="345" type="curve" smooth="yes"/>
      <point x="353" y="379"/>
      <point x="324" y="399"/>
      <point x="270" y="399" type="curve" smooth="yes"/>
      <point x="144" y="399"/>
      <point x="47" y="290"/>
      <point x="27" y="185" type="curve" smooth="yes"/>
      <point x="8" y="87"/>
      <point x="44" y="-12"/>
      <point x="160" y="-12" type="curve" smooth="yes"/>
    </contour>
    <contour>
      <point x="265" y="12" type="move" name="ogonek"/>
    </contour>
    <contour>
      <point x="193" y="0" type="move" name="bottom"/>
    </contour>
    <contour>
      <point x="234" y="386" type="move" name="top"/>
    </contour>
  </outline>
</glyph>
<glyph name="f" format="1">
  <advance width="268"/>
  <unicode hex="0066"/>
  <outline>
    <contour>
      <point x="56" y="-275"/>
      <point x="99" y="-213"/>
      <point x="127" y="-21" type="curve" smooth="yes"/>
      <point x="195" y="439" type="line" smooth="yes"/>
      <point x="221" y="614"/>
      <point x="248" y="705"/>
      <point x="292" y="705" type="curve" smooth="yes"/>
      <point x="331" y="705"/>
      <point x="291" y="627"/>
      <point x="364" y="627" type="curve" smooth="yes"/>
      <point x="388" y="627"/>
      <point x="409" y="642"/>
      <point x="413" y="669" type="curve" smooth="yes"/>
      <point x="418" y="701"/>
      <point x="384" y="726"/>
      <point x="324" y="726" type="curve" smooth="yes"/>
      <point x="198" y="726"/>
      <point x="145" y="661"/>
      <point x="106" y="418" type="curve" smooth="yes"/>
      <point x="101" y="384"/>
      <point x="84" y="375"/>
      <point x="41" y="375" type="curve" smooth="yes"/>
      <point x="37" y="375"/>
      <point x="36" y="359"/>
      <point x="41" y="359" type="curve" smooth="yes"/>
      <point x="91" y="359"/>
      <point x="97" y="356"/>
      <point x="90" y="306" type="curve" smooth="yes"/>
      <point x="39" y="-47" type="line" smooth="yes"/>
      <point x="13" y="-222"/>
      <point x="7" y="-255"/>
      <point x="-13" y="-255" type="curve" smooth="yes"/>
      <point x="-48" y="-255"/>
      <point x="-14" y="-178"/>
      <point x="-78" y="-178" type="curve" smooth="yes"/>
      <point x="-99" y="-178"/>
      <point x="-120" y="-191"/>
      <point x="-124" y="-218" type="curve" smooth="yes"/>
      <point x="-129" y="-249"/>
      <point x="-95" y="-275"/>
      <point x="-35" y="-275" type="curve" smooth="yes"/>
    </contour>
    <contour>
      <point x="269" y="339"/>
      <point x="285" y="363"/>
      <point x="288" y="374" type="curve" smooth="yes"/>
      <point x="289" y="379"/>
      <point x="287" y="386"/>
      <point x="281" y="386" type="curve" smooth="yes"/>
      <point x="263" y="386"/>
      <point x="184" y="378"/>
      <point x="138" y="378" type="curve"/>
      <point x="136" y="351" type="line"/>
      <point x="184" y="351"/>
      <point x="254" y="339"/>
      <point x="256" y="339" type="curve" smooth="yes"/>
    </contour>
    <contour>
      <point x="168" y="386" type="move" name="top"/>
    </contour>
    <contour>
      <point x="101" y="0" type="move" name="bottom"/>
    </contour>
  </outline>
</glyph>
<glyph name="g" format="1">
  <advance width="388"/>
  <unicode hex="0067"/>
  <outline>
    <contour>
      <point x="219" y="-281"/>
      <point x="317" y="-230"/>
      <point x="331" y="-146" type="curve" smooth="yes"/>
      <point x="354" y="-1"/>
      <point x="118" y="-7"/>
      <point x="129" y="80" type="curve" smooth="yes"/>
      <point x="130" y="94"/>
      <point x="140" y="110"/>
      <point x="152" y="116" type="curve"/>
      <point x="145" y="123" type="line"/>
      <point x="97" y="88"/>
      <point x="60" y="58"/>
      <point x="53" y="25" type="curve" smooth="yes"/>
      <point x="34" y="-64"/>
      <point x="253" y="-65"/>
      <point x="251" y="-175" type="curve" smooth="yes"/>
      <point x="251" y="-211"/>
      <point x="227" y="-250"/>
      <point x="161" y="-250" type="curve" smooth="yes"/>
      <point x="91" y="-250"/>
      <point x="36" y="-204"/>
      <point x="44" y="-138" type="curve" smooth="yes"/>
      <point x="51" y="-83"/>
      <point x="94" y="-49"/>
      <point x="130" y="-26" type="curve"/>
      <point x="123" y="-18" type="line"/>
      <point x="35" y="-64"/>
      <point x="-35" y="-108"/>
      <point x="-46" y="-167" type="curve" smooth="yes"/>
      <point x="-56" y="-230"/>
      <point x="2" y="-281"/>
      <point x="110" y="-281" type="curve" smooth="yes"/>
    </contour>
    <contour>
      <point x="232" y="98"/>
      <point x="312" y="154"/>
      <point x="331" y="246" type="curve" smooth="yes"/>
      <point x="347" y="323"/>
      <point x="313" y="392"/>
      <point x="225" y="392" type="curve" smooth="yes"/>
      <point x="140" y="392"/>
      <point x="65" y="331"/>
      <point x="49" y="246" type="curve" smooth="yes"/>
      <point x="34" y="168"/>
      <point x="69" y="98"/>
      <point x="154" y="98" type="curve" smooth="yes"/>
    </contour>
    <contour>
      <point x="149" y="120"/>
      <point x="127" y="175"/>
      <point x="136" y="253" type="curve" smooth="yes"/>
      <point x="143" y="320"/>
      <point x="171" y="371"/>
      <point x="201" y="371" type="curve" smooth="yes"/>
      <point x="241" y="371"/>
      <point x="250" y="292"/>
      <point x="244" y="237" type="curve" smooth="yes"/>
      <point x="237" y="166"/>
      <point x="209" y="120"/>
      <point x="180" y="120" type="curve" smooth="yes"/>
    </contour>
    <contour>
      <point x="302" y="363"/>
      <point x="354" y="353"/>
      <point x="386" y="330" type="curve" smooth="yes"/>
      <point x="394" y="324"/>
      <point x="406" y="396"/>
      <point x="394" y="396" type="curve" smooth="yes"/>
      <point x="356" y="396"/>
      <point x="302" y="379"/>
      <point x="262" y="353" type="curve"/>
      <point x="263" y="346" type="line"/>
    </contour>
    <contour>
      <point x="174" y="108" type="move" name="bottom"/>
    </contour>
    <contour>
      <point x="214" y="381" type="move" name="top"/>
    </contour>
    <contour>
      <point x="351" y="381" type="move" name="topright"/>
    </contour>
    <contour>
      <point x="215" y="244" type="move" name="center"/>
    </contour>
  </outline>
</glyph>
<glyph name="h" format="1">
  <advance width="455"/>
  <unicode hex="0068"/>
  <outline>
    <contour>
      <point x="95" y="-8"/>
      <point x="113" y="0"/>
      <point x="116" y="12" type="curve" smooth="yes"/>
      <point x="241" y="717" type="line" smooth="yes"/>
      <point x="242" y="720"/>
      <point x="235" y="727"/>
      <point x="229" y="725" type="curve" smooth="yes"/>
      <point x="74" y="649" type="line" smooth="yes"/>
      <point x="68" y="647"/>
      <point x="73" y="635"/>
      <point x="78" y="637" type="curve" smooth="yes"/>
      <point x="133" y="663"/>
      <point x="147" y="653"/>
      <point x="136" y="589" type="curve" smooth="yes"/>
      <point x="42" y="74" type="line" smooth="yes"/>
      <point x="36" y="39"/>
      <point x="27" y="5"/>
      <point x="27" y="0" type="curve" smooth="yes"/>
      <point x="27" y="-4"/>
      <point x="34" y="-8"/>
      <point x="60" y="-8" type="curve" smooth="yes"/>
    </contour>
    <contour>
      <point x="359" y="-9"/>
      <point x="392" y="19"/>
      <point x="434" y="69" type="curve" smooth="yes"/>
      <point x="439" y="74"/>
      <point x="430" y="82"/>
      <point x="426" y="77" type="curve" smooth="yes"/>
      <point x="405" y="57"/>
      <point x="387" y="42"/>
      <point x="373" y="42" type="curve" smooth="yes"/>
      <point x="361" y="42"/>
      <point x="353" y="51"/>
      <point x="360" y="89" type="curve" smooth="yes"/>
      <point x="393" y="267" type="line" smooth="yes"/>
      <point x="409" y="357"/>
      <point x="385" y="399"/>
      <point x="329" y="399" type="curve" smooth="yes"/>
      <point x="226" y="399"/>
      <point x="137" y="250"/>
      <point x="98" y="13" type="curve"/>
      <point x="116" y="12" type="line"/>
      <point x="152" y="226"/>
      <point x="221" y="342"/>
      <point x="278" y="342" type="curve" smooth="yes"/>
      <point x="306" y="342"/>
      <point x="317" y="312"/>
      <point x="305" y="248" type="curve" smooth="yes"/>
      <point x="276" y="89" type="line" smooth="yes"/>
      <point x="264" y="25"/>
      <point x="275" y="-9"/>
      <point x="319" y="-9" type="curve" smooth="yes"/>
    </contour>
    <contour>
      <point x="233" y="193" type="move" name="center"/>
    </contour>
    <contour>
      <point x="218" y="0" type="move" name="bottom"/>
    </contour>
    <contour>
      <point x="262" y="386" type="move" name="top"/>
    </contour>
  </outline>
</glyph>
<glyph name="k" format="1">
  <advance width="412"/>
  <unicode hex="006B"/>
  <outline>
    <contour>
      <point x="95" y="-8"/>
      <point x="113" y="0"/>
      <point x="116" y="12" type="curve" smooth="yes"/>
      <point x="150" y="205" type="line"/>
      <point x="241" y="717" type="line" smooth="yes"/>
      <point x="242" y="722"/>
      <point x="234" y="727"/>
      <point x="229" y="725" type="curve" smooth="yes"/>
      <point x="74" y="649" type="line" smooth="yes"/>
      <point x="68" y="647"/>
      <point x="73" y="635"/>
      <point x="78" y="637" type="curve" smooth="yes"/>
      <point x="133" y="663"/>
      <point x="147" y="653"/>
      <point x="136" y="589" type="curve" smooth="yes"/>
      <point x="42" y="74" type="line" smooth="yes"/>
      <point x="36" y="39"/>
      <point x="27" y="5"/>
      <point x="27" y="0" type="curve" smooth="yes"/>
      <point x="27" y="-4"/>
      <point x="34" y="-8"/>
      <point x="60" y="-8" type="curve" smooth="yes"/>
    </contour>
    <contour>
      <point x="344" y="-9"/>
      <point x="378" y="16"/>
      <point x="422" y="67" type="curve" smooth="yes"/>
      <point x="427" y="71"/>
      <point x="419" y="80"/>
      <point x="414" y="75" type="curve" smooth="yes"/>
      <point x="392" y="57"/>
      <point x="373" y="49"/>
      <point x="360" y="49" type="curve" smooth="yes"/>
      <point x="342" y="49"/>
      <point x="326" y="57"/>
      <point x="298" y="102" type="curve" smooth="yes"/>
      <point x="228" y="214" type="line"/>
      <point x="123" y="173" type="line"/>
      <point x="150" y="181"/>
      <point x="156" y="178"/>
      <point x="170" y="154" type="curve" smooth="yes"/>
      <point x="228" y="58" type="line" smooth="yes"/>
      <point x="260" y="7"/>
      <point x="282" y="-9"/>
      <point x="317" y="-9" type="curve" smooth="yes"/>
    </contour>
    <contour>
      <point x="288" y="205"/>
      <point x="387" y="274"/>
      <point x="398" y="339" type="curve" smooth="yes"/>
      <point x="401" y="363"/>
      <point x="394" y="399"/>
      <point x="331" y="399" type="curve" smooth="yes"/>
      <point x="244" y="399"/>
      <point x="152" y="330"/>
      <point x="104" y="243" type="curve"/>
      <point x="150" y="205" type="line"/>
      <point x="167" y="295"/>
      <point x="213" y="356"/>
      <point x="267" y="356" type="curve" smooth="yes"/>
      <point x="289" y="356"/>
      <point x="297" y="339"/>
      <point x="295" y="311" type="curve" smooth="yes"/>
      <point x="291" y="251"/>
      <point x="239" y="214"/>
      <point x="123" y="191" type="curve"/>
      <point x="123" y="173" type="line"/>
    </contour>
    <contour>
      <point x="188" y="671" type="move" name="top"/>
    </contour>
    <contour>
      <point x="173" y="0" type="move" name="bottom"/>
    </contour>
  </outline>
</glyph>
<glyph name="l" format="1">
  <advance width="247"/>
  <unicode hex="006C"/>
  <outline>
    <contour>
      <point x="133" y="-9"/>
      <point x="166" y="19"/>
      <point x="208" y="69" type="curve" smooth="yes"/>
      <point x="213" y="74"/>
      <point x="205" y="82"/>
      <point x="200" y="77" type="curve" smooth="yes"/>
      <point x="179" y="57"/>
      <point x="161" y="42"/>
      <point x="147" y="42" type="curve" smooth="yes"/>
      <point x="136" y="42"/>
      <point x="127" y="51"/>
      <point x="135" y="89" type="curve" smooth="yes"/>
      <point x="247" y="717" type="line" smooth="yes"/>
      <point x="248" y="720"/>
      <point x="241" y="727"/>
      <point x="235" y="725" type="curve" smooth="yes"/>
      <point x="80" y="649" type="line" smooth="yes"/>
      <point x="74" y="647"/>
      <point x="78" y="635"/>
      <point x="84" y="637" type="curve" smooth="yes"/>
      <point x="139" y="663"/>
      <point x="153" y="653"/>
      <point x="142" y="589" type="curve" smooth="yes"/>
      <point x="50" y="89" type="line" smooth="yes"/>
      <point x="39" y="25"/>
      <point x="49" y="-9"/>
      <point x="94" y="-9" type="curve" smooth="yes"/>
    </contour>
    <contour>
      <point x="96" y="0" type="move" name="bottom"/>
    </contour>
    <contour>
      <point x="172" y="662" type="move" name="top"/>
    </contour>
    <contour>
      <point x="215" y="386" type="move" name="topright"/>
    </contour>
    <contour>
      <point x="124" y="193" type="move" name="center"/>
    </contour>
  </outline>
</glyph>
<glyph name="m" format="1">
  <advance width="586"/>
  <unicode hex="006D"/>
  <outline>
    <contour>
      <point x="504" y="-8"/>
      <point x="532" y="16"/>
      <point x="568" y="59" type="curve" smooth="yes"/>
      <point x="572" y="63"/>
      <point x="565" y="70"/>
      <point x="561" y="66" type="curve" smooth="yes"/>
      <point x="543" y="49"/>
      <point x="528" y="36"/>
      <point x="516" y="36" type="curve" smooth="yes"/>
      <point x="506" y="36"/>
      <point x="499" y="44"/>
      <point x="505" y="76" type="curve" smooth="yes"/>
      <point x="533" y="228" type="line" smooth="yes"/>
      <point x="547" y="305"/>
      <point x="527" y="341"/>
      <point x="482" y="341" type="curve" smooth="yes"/>
      <point x="400" y="341"/>
      <point x="324" y="220"/>
      <point x="291" y="11" type="curve"/>
      <point x="306" y="10" type="line"/>
      <point x="337" y="199"/>
      <point x="396" y="292"/>
      <point x="438" y="292" type="curve" smooth="yes"/>
      <point x="460" y="292"/>
      <point x="468" y="267"/>
      <point x="458" y="212" type="curve" smooth="yes"/>
      <point x="433" y="76" type="line" smooth="yes"/>
      <point x="423" y="21"/>
      <point x="432" y="-8"/>
      <point x="470" y="-8" type="curve" smooth="yes"/>
    </contour>
    <contour>
      <point x="98" y="-7"/>
      <point x="114" y="0"/>
      <point x="116" y="10" type="curve" smooth="yes"/>
      <point x="161" y="264" type="line" smooth="yes"/>
      <point x="169" y="311"/>
      <point x="160" y="338"/>
      <point x="123" y="338" type="curve" smooth="yes"/>
      <point x="91" y="338"/>
      <point x="60" y="318"/>
      <point x="19" y="269" type="curve" smooth="yes"/>
      <point x="15" y="265"/>
      <point x="22" y="257"/>
      <point x="26" y="262" type="curve" smooth="yes"/>
      <point x="47" y="285"/>
      <point x="64" y="296"/>
      <point x="75" y="296" type="curve" smooth="yes"/>
      <point x="88" y="296"/>
      <point x="93" y="282"/>
      <point x="88" y="254" type="curve" smooth="yes"/>
      <point x="53" y="63" type="line" smooth="yes"/>
      <point x="48" y="33"/>
      <point x="40" y="4"/>
      <point x="40" y="0" type="curve" smooth="yes"/>
      <point x="40" y="-3"/>
      <point x="46" y="-7"/>
      <point x="68" y="-7" type="curve" smooth="yes"/>
    </contour>
    <contour>
      <point x="288" y="-7"/>
      <point x="304" y="0"/>
      <point x="306" y="10" type="curve" smooth="yes"/>
      <point x="345" y="230" type="line" smooth="yes"/>
      <point x="359" y="307"/>
      <point x="337" y="341"/>
      <point x="293" y="341" type="curve" smooth="yes"/>
      <point x="207" y="341"/>
      <point x="133" y="214"/>
      <point x="101" y="11" type="curve"/>
      <point x="116" y="10" type="line"/>
      <point x="145" y="189"/>
      <point x="203" y="292"/>
      <point x="248" y="292" type="curve" smooth="yes"/>
      <point x="270" y="292"/>
      <point x="281" y="269"/>
      <point x="271" y="214" type="curve" smooth="yes"/>
      <point x="243" y="63" type="line" smooth="yes"/>
      <point x="238" y="33"/>
      <point x="230" y="4"/>
      <point x="230" y="0" type="curve" smooth="yes"/>
      <point x="230" y="-3"/>
      <point x="236" y="-7"/>
      <point x="258" y="-7" type="curve" smooth="yes"/>
    </contour>
    <contour>
      <point x="312" y="330" type="move" name="top"/>
    </contour>
    <contour>
      <point x="269" y="0" type="move" name="bottom"/>
    </contour>
  </outline>
</glyph>
<glyph name="n" format="1">
  <advance width="475"/>
  <unicode hex="006E"/>
  <outline>
    <contour>
      <point x="379" y="-9"/>
      <point x="412" y="19"/>
      <point x="454" y="69" type="curve" smooth="yes"/>
      <point x="458" y="74"/>
      <point x="450" y="82"/>
      <point x="446" y="77" type="curve" smooth="yes"/>
      <point x="425" y="57"/>
      <point x="407" y="42"/>
      <point x="393" y="42" type="curve" smooth="yes"/>
      <point x="381" y="42"/>
      <point x="373" y="51"/>
      <point x="380" y="89" type="curve" smooth="yes"/>
      <point x="413" y="267" type="line" smooth="yes"/>
      <point x="429" y="357"/>
      <point x="405" y="399"/>
      <point x="349" y="399" type="curve" smooth="yes"/>
      <point x="246" y="399"/>
      <point x="157" y="250"/>
      <point x="118" y="13" type="curve"/>
      <point x="136" y="12" type="line"/>
      <point x="172" y="226"/>
      <point x="241" y="342"/>
      <point x="298" y="342" type="curve" smooth="yes"/>
      <point x="326" y="342"/>
      <point x="337" y="312"/>
      <point x="325" y="248" type="curve" smooth="yes"/>
      <point x="296" y="89" type="line" smooth="yes"/>
      <point x="284" y="25"/>
      <point x="295" y="-9"/>
      <point x="339" y="-9" type="curve" smooth="yes"/>
    </contour>
    <contour>
      <point x="115" y="-8"/>
      <point x="133" y="0"/>
      <point x="136" y="12" type="curve" smooth="yes"/>
      <point x="188" y="309" type="line" smooth="yes"/>
      <point x="198" y="364"/>
      <point x="187" y="395"/>
      <point x="144" y="395" type="curve" smooth="yes"/>
      <point x="106" y="395"/>
      <point x="70" y="372"/>
      <point x="22" y="315" type="curve" smooth="yes"/>
      <point x="18" y="310"/>
      <point x="26" y="301"/>
      <point x="30" y="306" type="curve" smooth="yes"/>
      <point x="55" y="333"/>
      <point x="75" y="346"/>
      <point x="88" y="346" type="curve" smooth="yes"/>
      <point x="103" y="346"/>
      <point x="109" y="330"/>
      <point x="103" y="297" type="curve" smooth="yes"/>
      <point x="62" y="74" type="line" smooth="yes"/>
      <point x="56" y="39"/>
      <point x="47" y="5"/>
      <point x="47" y="0" type="curve" smooth="yes"/>
      <point x="47" y="-4"/>
      <point x="54" y="-8"/>
      <point x="80" y="-8" type="curve" smooth="yes"/>
    </contour>
    <contour>
      <point x="265" y="386" type="move" name="top"/>
    </contour>
    <contour>
      <point x="227" y="0" type="move" name="bottom"/>
    </contour>
  </outline>
</glyph>
<glyph name="o" format="1">
  <advance width="408"/>
  <unicode hex="006F"/>
  <outline>
    <contour>
      <point x="251" y="-14"/>
      <point x="354" y="56"/>
      <point x="381" y="193" type="curve" smooth="yes"/>
      <point x="404" y="309"/>
      <point x="360" y="399"/>
      <point x="249" y="399" type="curve" smooth="yes"/>
      <point x="143" y="399"/>
      <point x="51" y="315"/>
      <point x="28" y="193" type="curve" smooth="yes"/>
      <point x="7" y="83"/>
      <point x="47" y="-14"/>
      <point x="158" y="-14" type="curve" smooth="yes"/>
    </contour>
    <contour>
      <point x="133" y="11"/>
      <point x="106" y="115"/>
      <point x="127" y="236" type="curve" smooth="yes"/>
      <point x="144" y="331"/>
      <point x="178" y="375"/>
      <point x="216" y="375" type="curve" smooth="yes"/>
      <point x="276" y="375"/>
      <point x="304" y="269"/>
      <point x="282" y="149" type="curve" smooth="yes"/>
      <point x="267" y="65"/>
      <point x="235" y="11"/>
      <point x="192" y="11" type="curve" smooth="yes"/>
    </contour>
    <contour>
      <point x="175" y="0" type="move" name="bottom"/>
    </contour>
    <contour>
      <point x="251" y="12" type="move" name="ogonek"/>
    </contour>
    <contour>
      <point x="236" y="386" type="move" name="top"/>
    </contour>
    <contour>
      <point x="340" y="386" type="move" name="topright"/>
    </contour>
    <contour>
      <point x="205" y="193" type="move" name="center"/>
    </contour>
  </outline>
</glyph>
<glyph name="p" format="1">
  <advance width="405"/>
  <unicode hex="0070"/>
  <outline>
    <contour>
      <point x="123" y="-244" type="line" smooth="yes"/>
      <point x="129" y="-243"/>
      <point x="125" y="-233"/>
      <point x="120" y="-233" type="curve" smooth="yes"/>
      <point x="73" y="-239"/>
      <point x="63" y="-230"/>
      <point x="73" y="-178" type="curve" smooth="yes"/>
      <point x="186" y="462" type="line" smooth="yes"/>
      <point x="187" y="467"/>
      <point x="177" y="469"/>
      <point x="175" y="464" type="curve" smooth="yes"/>
      <point x="165" y="423"/>
      <point x="88" y="393"/>
      <point x="87" y="386" type="curve" smooth="yes"/>
      <point x="-15" y="-185" type="line" smooth="yes"/>
      <point x="-26" y="-244"/>
      <point x="-30" y="-254"/>
      <point x="-69" y="-263" type="curve" smooth="yes"/>
      <point x="-74" y="-264"/>
      <point x="-71" y="-276"/>
      <point x="-67" y="-275" type="curve" smooth="yes"/>
    </contour>
    <contour>
      <point x="255" y="-1"/>
      <point x="367" y="116"/>
      <point x="387" y="253" type="curve" smooth="yes"/>
      <point x="400" y="344"/>
      <point x="365" y="393"/>
      <point x="285" y="393" type="curve" smooth="yes"/>
      <point x="196" y="393"/>
      <point x="98" y="340"/>
      <point x="13" y="270" type="curve" smooth="yes"/>
      <point x="7" y="265"/>
      <point x="14" y="255"/>
      <point x="20" y="260" type="curve" smooth="yes"/>
      <point x="97" y="315"/>
      <point x="157" y="344"/>
      <point x="216" y="344" type="curve" smooth="yes"/>
      <point x="289" y="344"/>
      <point x="304" y="283"/>
      <point x="297" y="220" type="curve" smooth="yes"/>
      <point x="284" y="112"/>
      <point x="250" y="29"/>
      <point x="182" y="29" type="curve" smooth="yes"/>
      <point x="129" y="29"/>
      <point x="95" y="49"/>
      <point x="67" y="70" type="curve"/>
      <point x="57" y="8" type="line"/>
      <point x="76" y="4"/>
      <point x="111" y="-1"/>
      <point x="145" y="-1" type="curve" smooth="yes"/>
    </contour>
    <contour>
      <point x="236" y="386" type="move" name="top"/>
    </contour>
    <contour>
      <point x="168" y="0" type="move" name="bottom"/>
    </contour>
  </outline>
</glyph>
<glyph name="q" format="1">
  <advance width="421"/>
  <unicode hex="0071"/>
  <outline>
    <contour>
      <point x="366" y="-250" type="line" smooth="yes"/>
      <point x="372" y="-249"/>
      <point x="368" y="-237"/>
      <point x="364" y="-239" type="curve" smooth="yes"/>
      <point x="306" y="-247"/>
      <point x="295" y="-228"/>
      <point x="304" y="-178" type="curve" smooth="yes"/>
      <point x="411" y="404" type="line" smooth="yes"/>
      <point x="412" y="407"/>
      <point x="401" y="411"/>
      <point x="399" y="407" type="curve" smooth="yes"/>
      <point x="381" y="380"/>
      <point x="353" y="360"/>
      <point x="331" y="357" type="curve"/>
      <point x="392" y="324" type="line"/>
      <point x="387" y="377"/>
      <point x="336" y="399"/>
      <point x="296" y="399" type="curve" smooth="yes"/>
      <point x="160" y="399"/>
      <point x="41" y="257"/>
      <point x="20" y="103" type="curve" smooth="yes"/>
      <point x="8" y="21"/>
      <point x="43" y="-13"/>
      <point x="97" y="-13" type="curve" smooth="yes"/>
      <point x="170" y="-13"/>
      <point x="258" y="62"/>
      <point x="303" y="191" type="curve"/>
      <point x="282" y="174" type="line" smooth="yes"/>
      <point x="219" y="-185" type="line" smooth="yes"/>
      <point x="207" y="-247"/>
      <point x="201" y="-256"/>
      <point x="156" y="-263" type="curve" smooth="yes"/>
      <point x="151" y="-264"/>
      <point x="153" y="-275"/>
      <point x="158" y="-275" type="curve" smooth="yes"/>
    </contour>
    <contour>
      <point x="101" y="60"/>
      <point x="108" y="140"/>
      <point x="112" y="177" type="curve" smooth="yes"/>
      <point x="129" y="306"/>
      <point x="177" y="350"/>
      <point x="229" y="350" type="curve" smooth="yes"/>
      <point x="287" y="350"/>
      <point x="306" y="312"/>
      <point x="292" y="232" type="curve" smooth="yes"/>
      <point x="277" y="147"/>
      <point x="228" y="60"/>
      <point x="159" y="60" type="curve" smooth="yes"/>
    </contour>
    <contour>
      <point x="244" y="386" type="move" name="top"/>
    </contour>
    <contour>
      <point x="177" y="0" type="move" name="bottom"/>
    </contour>
  </outline>
</glyph>
<glyph name="r" format="1">
  <advance width="356"/>
  <unicode hex="0072"/>
  <outline>
    <contour>
      <point x="152" y="119"/>
      <point x="218" y="322"/>
      <point x="255" y="322" type="curve" smooth="yes"/>
      <point x="277" y="322"/>
      <point x="291" y="292"/>
      <point x="322" y="292" type="curve" smooth="yes"/>
      <point x="347" y="292"/>
      <point x="364" y="315"/>
      <point x="366" y="333" type="curve" smooth="yes"/>
      <point x="371" y="367"/>
      <point x="329" y="395"/>
      <point x="297" y="395" type="curve" smooth="yes"/>
      <point x="213" y="395"/>
      <point x="156" y="191"/>
      <point x="123" y="13" type="curve"/>
      <point x="133" y="12" type="line"/>
    </contour>
    <contour>
      <point x="112" y="-8"/>
      <point x="131" y="0"/>
      <point x="133" y="12" type="curve" smooth="yes"/>
      <point x="186" y="309" type="line" smooth="yes"/>
      <point x="195" y="364"/>
      <point x="185" y="395"/>
      <point x="142" y="395" type="curve" smooth="yes"/>
      <point x="104" y="395"/>
      <point x="68" y="372"/>
      <point x="20" y="315" type="curve" smooth="yes"/>
      <point x="15" y="310"/>
      <point x="23" y="301"/>
      <point x="28" y="306" type="curve" smooth="yes"/>
      <point x="53" y="333"/>
      <point x="73" y="346"/>
      <point x="85" y="346" type="curve" smooth="yes"/>
      <point x="101" y="346"/>
      <point x="106" y="330"/>
      <point x="101" y="297" type="curve" smooth="yes"/>
      <point x="60" y="74" type="line" smooth="yes"/>
      <point x="54" y="39"/>
      <point x="44" y="5"/>
      <point x="44" y="0" type="curve" smooth="yes"/>
      <point x="44" y="-4"/>
      <point x="51" y="-8"/>
      <point x="77" y="-8" type="curve" smooth="yes"/>
    </contour>
    <contour>
      <point x="206" y="386" type="move" name="top"/>
    </contour>
    <contour>
      <point x="97" y="0" type="move" name="bottom"/>
    </contour>
  </outline>
</glyph>
<glyph name="s" format="1">
  <advance width="316"/>
  <unicode hex="0073"/>
  <outline>
    <contour>
      <point x="196" y="-11"/>
      <point x="256" y="57"/>
      <point x="265" y="108" type="curve" smooth="yes"/>
      <point x="285" y="216"/>
      <point x="109" y="242"/>
      <point x="125" y="337" type="curve" smooth="yes"/>
      <point x="127" y="351"/>
      <point x="137" y="368"/>
      <point x="161" y="368" type="curve" smooth="yes"/>
      <point x="221" y="368"/>
      <point x="194" y="295"/>
      <point x="257" y="295" type="curve" smooth="yes"/>
      <point x="276" y="295"/>
      <point x="298" y="309"/>
      <point x="302" y="336" type="curve" smooth="yes"/>
      <point x="306" y="373"/>
      <point x="267" y="396"/>
      <point x="204" y="396" type="curve" smooth="yes"/>
      <point x="124" y="396"/>
      <point x="64" y="343"/>
      <point x="55" y="295" type="curve" smooth="yes"/>
      <point x="34" y="185"/>
      <point x="207" y="168"/>
      <point x="193" y="63" type="curve" smooth="yes"/>
      <point x="189" y="36"/>
      <point x="180" y="23"/>
      <point x="156" y="23" type="curve" smooth="yes"/>
      <point x="98" y="23"/>
      <point x="102" y="102"/>
      <point x="50" y="102" type="curve" smooth="yes"/>
      <point x="28" y="102"/>
      <point x="9" y="88"/>
      <point x="5" y="61" type="curve" smooth="yes"/>
      <point x="-1" y="21"/>
      <point x="48" y="-11"/>
      <point x="108" y="-11" type="curve" smooth="yes"/>
    </contour>
    <contour>
      <point x="189" y="386" type="move" name="top"/>
    </contour>
    <contour>
      <point x="112" y="0" type="move" name="bottom"/>
    </contour>
  </outline>
</glyph>
<glyph name="t" format="1">
  <advance width="301"/>
  <unicode hex="0074"/>
  <outline>
    <contour>
      <point x="172" y="-12"/>
      <point x="216" y="12"/>
      <point x="278" y="71" type="curve" smooth="yes"/>
      <point x="282" y="75"/>
      <point x="273" y="82"/>
      <point x="270" y="80" type="curve" smooth="yes"/>
      <point x="239" y="55"/>
      <point x="212" y="43"/>
      <point x="186" y="43" type="curve" smooth="yes"/>
      <point x="144" y="43"/>
      <point x="129" y="64"/>
      <point x="137" y="111" type="curve" smooth="yes"/>
      <point x="199" y="460" type="line" smooth="yes"/>
      <point x="200" y="465"/>
      <point x="182" y="468"/>
      <point x="180" y="463" type="curve" smooth="yes"/>
      <point x="156" y="418"/>
      <point x="117" y="375"/>
      <point x="53" y="375" type="curve" smooth="yes"/>
      <point x="49" y="375"/>
      <point x="48" y="359"/>
      <point x="53" y="359" type="curve" smooth="yes"/>
      <point x="90" y="359"/>
      <point x="95" y="350"/>
      <point x="87" y="306" type="curve" smooth="yes"/>
      <point x="48" y="94" type="line" smooth="yes"/>
      <point x="32" y="6"/>
      <point x="78" y="-12"/>
      <point x="126" y="-12" type="curve" smooth="yes"/>
    </contour>
    <contour>
      <point x="292" y="337"/>
      <point x="309" y="363"/>
      <point x="311" y="374" type="curve" smooth="yes"/>
      <point x="312" y="379"/>
      <point x="310" y="386"/>
      <point x="304" y="386" type="curve" smooth="yes"/>
      <point x="282" y="386"/>
      <point x="228" y="378"/>
      <point x="161" y="378" type="curve"/>
      <point x="159" y="349" type="line"/>
      <point x="214" y="349"/>
      <point x="275" y="337"/>
      <point x="278" y="337" type="curve" smooth="yes"/>
    </contour>
    <contour>
      <point x="126" y="0" type="move" name="bottom"/>
    </contour>
    <contour>
      <point x="185" y="386" type="move" name="top"/>
    </contour>
    <contour>
      <point x="195" y="363" type="move" name="topright"/>
    </contour>
    <contour>
      <point x="129" y="193" type="move" name="center"/>
    </contour>
  </outline>
</glyph>
<glyph name="u" format="1">
  <advance width="476"/>
  <unicode hex="0075"/>
  <outline>
    <contour>
      <point x="230" y="-13"/>
      <point x="319" y="136"/>
      <point x="358" y="373" type="curve"/>
      <point x="340" y="374" type="line"/>
      <point x="304" y="160"/>
      <point x="235" y="44"/>
      <point x="178" y="44" type="curve" smooth="yes"/>
      <point x="150" y="44"/>
      <point x="138" y="74"/>
      <point x="151" y="138" type="curve" smooth="yes"/>
      <point x="182" y="297" type="line" smooth="yes"/>
      <point x="196" y="366"/>
      <point x="178" y="395"/>
      <point x="138" y="395" type="curve" smooth="yes"/>
      <point x="99" y="395"/>
      <point x="67" y="367"/>
      <point x="25" y="317" type="curve" smooth="yes"/>
      <point x="20" y="312"/>
      <point x="28" y="304"/>
      <point x="33" y="309" type="curve" smooth="yes"/>
      <point x="54" y="329"/>
      <point x="71" y="344"/>
      <point x="85" y="344" type="curve" smooth="yes"/>
      <point x="97" y="344"/>
      <point x="105" y="335"/>
      <point x="98" y="297" type="curve" smooth="yes"/>
      <point x="63" y="119" type="line" smooth="yes"/>
      <point x="46" y="29"/>
      <point x="71" y="-13"/>
      <point x="127" y="-13" type="curve" smooth="yes"/>
    </contour>
    <contour>
      <point x="370" y="-9"/>
      <point x="406" y="14"/>
      <point x="454" y="71" type="curve" smooth="yes"/>
      <point x="458" y="76"/>
      <point x="450" y="85"/>
      <point x="446" y="80" type="curve" smooth="yes"/>
      <point x="421" y="53"/>
      <point x="401" y="40"/>
      <point x="388" y="40" type="curve" smooth="yes"/>
      <point x="373" y="40"/>
      <point x="367" y="56"/>
      <point x="373" y="89" type="curve" smooth="yes"/>
      <point x="414" y="312" type="line" smooth="yes"/>
      <point x="420" y="347"/>
      <point x="429" y="381"/>
      <point x="429" y="386" type="curve" smooth="yes"/>
      <point x="429" y="389"/>
      <point x="422" y="394"/>
      <point x="396" y="394" type="curve" smooth="yes"/>
      <point x="361" y="394"/>
      <point x="343" y="386"/>
      <point x="340" y="374" type="curve" smooth="yes"/>
      <point x="288" y="77" type="line" smooth="yes"/>
      <point x="278" y="22"/>
      <point x="289" y="-9"/>
      <point x="332" y="-9" type="curve" smooth="yes"/>
    </contour>
    <contour>
      <point x="263" y="12" type="move" name="ogonek"/>
    </contour>
    <contour>
      <point x="258" y="386" type="move" name="top"/>
    </contour>
    <contour>
      <point x="470" y="386" type="move" name="topright"/>
    </contour>
    <contour>
      <point x="180" y="0" type="move" name="bottom"/>
    </contour>
  </outline>
</glyph>
<glyph name="v" format="1">
  <advance width="448"/>
  <unicode hex="0076"/>
  <outline>
    <contour>
      <point x="285" y="-13"/>
      <point x="398" y="117"/>
      <point x="413" y="270" type="curve" smooth="yes"/>
      <point x="423" y="370"/>
      <point x="402" y="396"/>
      <point x="361" y="396" type="curve" smooth="yes"/>
      <point x="331" y="396"/>
      <point x="306" y="381"/>
      <point x="306" y="347" type="curve" smooth="yes"/>
      <point x="306" y="326"/>
      <point x="318" y="311"/>
      <point x="332" y="296" type="curve" smooth="yes"/>
      <point x="357" y="267"/>
      <point x="371" y="246"/>
      <point x="365" y="199" type="curve" smooth="yes"/>
      <point x="354" y="117"/>
      <point x="294" y="64"/>
      <point x="239" y="64" type="curve" smooth="yes"/>
      <point x="187" y="64"/>
      <point x="154" y="112"/>
      <point x="166" y="189" type="curve" smooth="yes"/>
      <point x="173" y="237"/>
      <point x="201" y="315"/>
      <point x="227" y="375" type="curve" smooth="yes"/>
      <point x="232" y="385"/>
      <point x="230" y="387"/>
      <point x="219" y="387" type="curve" smooth="yes"/>
      <point x="126" y="387" type="line" smooth="yes"/>
      <point x="67" y="387"/>
      <point x="50" y="356"/>
      <point x="21" y="270" type="curve" smooth="yes"/>
      <point x="18" y="263"/>
      <point x="30" y="261"/>
      <point x="33" y="267" type="curve" smooth="yes"/>
      <point x="43" y="296"/>
      <point x="60" y="310"/>
      <point x="108" y="310" type="curve" smooth="yes"/>
      <point x="156" y="310" type="line" smooth="yes"/>
      <point x="171" y="310"/>
      <point x="168" y="301"/>
      <point x="159" y="282" type="curve" smooth="yes"/>
      <point x="129" y="218"/>
      <point x="89" y="161"/>
      <point x="85" y="106" type="curve" smooth="yes"/>
      <point x="82" y="42"/>
      <point x="127" y="-13"/>
      <point x="189" y="-13" type="curve" smooth="yes"/>
    </contour>
    <contour>
      <point x="258" y="386" type="move" name="top"/>
    </contour>
    <contour>
      <point x="191" y="0" type="move" name="bottom"/>
    </contour>
  </outline>
</glyph>
<glyph name="w" format="1">
  <advance width="628"/>
  <unicode hex="0077"/>
  <outline>
    <contour>
      <point x="289" y="-13"/>
      <point x="394" y="142"/>
      <point x="415" y="294" type="curve" smooth="yes"/>
      <point x="425" y="361"/>
      <point x="413" y="392"/>
      <point x="377" y="392" type="curve" smooth="yes"/>
      <point x="336" y="392"/>
      <point x="308" y="351"/>
      <point x="291" y="255" type="curve" smooth="yes"/>
      <point x="264" y="99"/>
      <point x="301" y="-13"/>
      <point x="386" y="-13" type="curve" smooth="yes"/>
      <point x="477" y="-13"/>
      <point x="578" y="117"/>
      <point x="592" y="270" type="curve" smooth="yes"/>
      <point x="602" y="370"/>
      <point x="581" y="396"/>
      <point x="540" y="396" type="curve" smooth="yes"/>
      <point x="510" y="396"/>
      <point x="485" y="381"/>
      <point x="485" y="347" type="curve" smooth="yes"/>
      <point x="485" y="326"/>
      <point x="497" y="311"/>
      <point x="511" y="296" type="curve" smooth="yes"/>
      <point x="536" y="267"/>
      <point x="550" y="246"/>
      <point x="544" y="199" type="curve" smooth="yes"/>
      <point x="535" y="117"/>
      <point x="485" y="64"/>
      <point x="435" y="64" type="curve" smooth="yes"/>
      <point x="339" y="64"/>
      <point x="299" y="187"/>
      <point x="315" y="262" type="curve" smooth="yes"/>
      <point x="322" y="295"/>
      <point x="336" y="303"/>
      <point x="352" y="303" type="curve" smooth="yes"/>
      <point x="373" y="303"/>
      <point x="386" y="289"/>
      <point x="380" y="249" type="curve" smooth="yes"/>
      <point x="368" y="175"/>
      <point x="303" y="64"/>
      <point x="239" y="64" type="curve" smooth="yes"/>
      <point x="187" y="64"/>
      <point x="154" y="112"/>
      <point x="166" y="189" type="curve" smooth="yes"/>
      <point x="173" y="237"/>
      <point x="201" y="315"/>
      <point x="227" y="375" type="curve" smooth="yes"/>
      <point x="232" y="385"/>
      <point x="230" y="387"/>
      <point x="219" y="387" type="curve" smooth="yes"/>
      <point x="126" y="387" type="line" smooth="yes"/>
      <point x="67" y="387"/>
      <point x="50" y="356"/>
      <point x="21" y="270" type="curve" smooth="yes"/>
      <point x="18" y="263"/>
      <point x="30" y="261"/>
      <point x="33" y="267" type="curve" smooth="yes"/>
      <point x="43" y="296"/>
      <point x="60" y="310"/>
      <point x="108" y="310" type="curve" smooth="yes"/>
      <point x="156" y="310" type="line" smooth="yes"/>
      <point x="171" y="310"/>
      <point x="171" y="302"/>
      <point x="159" y="282" type="curve" smooth="yes"/>
      <point x="130" y="233"/>
      <point x="106" y="179"/>
      <point x="98" y="130" type="curve" smooth="yes"/>
      <point x="84" y="42"/>
      <point x="119" y="-13"/>
      <point x="189" y="-13" type="curve" smooth="yes"/>
    </contour>
    <contour>
      <point x="374" y="386" type="move" name="top"/>
    </contour>
    <contour>
      <point x="281" y="0" type="move" name="bottom"/>
    </contour>
  </outline>
</glyph>
<glyph name="x" format="1">
  <advance width="430"/>
  <unicode hex="0078"/>
  <outline>
    <contour>
      <point x="316" y="-11"/>
      <point x="353" y="15"/>
      <point x="402" y="65" type="curve" smooth="yes"/>
      <point x="407" y="70"/>
      <point x="399" y="78"/>
      <point x="394" y="74" type="curve" smooth="yes"/>
      <point x="378" y="57"/>
      <point x="363" y="47"/>
      <point x="343" y="47" type="curve" smooth="yes"/>
      <point x="326" y="47"/>
      <point x="309" y="51"/>
      <point x="296" y="92" type="curve" smooth="yes"/>
      <point x="220" y="325" type="line" smooth="yes"/>
      <point x="202" y="378"/>
      <point x="186" y="395"/>
      <point x="151" y="395" type="curve" smooth="yes"/>
      <point x="115" y="395"/>
      <point x="77" y="370"/>
      <point x="28" y="319" type="curve" smooth="yes"/>
      <point x="23" y="315"/>
      <point x="32" y="306"/>
      <point x="36" y="311" type="curve" smooth="yes"/>
      <point x="53" y="327"/>
      <point x="68" y="338"/>
      <point x="88" y="338" type="curve" smooth="yes"/>
      <point x="104" y="338"/>
      <point x="122" y="333"/>
      <point x="135" y="292" type="curve" smooth="yes"/>
      <point x="211" y="60" type="line" smooth="yes"/>
      <point x="228" y="7"/>
      <point x="244" y="-11"/>
      <point x="280" y="-11" type="curve" smooth="yes"/>
    </contour>
    <contour>
      <point x="83" y="-11"/>
      <point x="96" y="1"/>
      <point x="135" y="62" type="curve" smooth="yes"/>
      <point x="214" y="187" type="line"/>
      <point x="204" y="201" type="line"/>
      <point x="124" y="83" type="line" smooth="yes"/>
      <point x="113" y="67"/>
      <point x="105" y="63"/>
      <point x="99" y="63" type="curve" smooth="yes"/>
      <point x="75" y="63"/>
      <point x="73" y="92"/>
      <point x="35" y="92" type="curve" smooth="yes"/>
      <point x="11" y="92"/>
      <point x="-7" y="74"/>
      <point x="-9" y="55" type="curve" smooth="yes"/>
      <point x="-14" y="20"/>
      <point x="21" y="-11"/>
      <point x="54" y="-11" type="curve" smooth="yes"/>
    </contour>
    <contour>
      <point x="298" y="302" type="line" smooth="yes"/>
      <point x="309" y="318"/>
      <point x="317" y="322"/>
      <point x="323" y="322" type="curve" smooth="yes"/>
      <point x="347" y="322"/>
      <point x="350" y="292"/>
      <point x="387" y="292" type="curve" smooth="yes"/>
      <point x="412" y="292"/>
      <point x="429" y="311"/>
      <point x="432" y="330" type="curve" smooth="yes"/>
      <point x="436" y="365"/>
      <point x="401" y="395"/>
      <point x="368" y="395" type="curve" smooth="yes"/>
      <point x="339" y="395"/>
      <point x="326" y="384"/>
      <point x="288" y="323" type="curve" smooth="yes"/>
      <point x="208" y="198" type="line"/>
      <point x="219" y="184" type="line"/>
    </contour>
    <contour>
      <point x="249" y="386" type="move" name="top"/>
    </contour>
    <contour>
      <point x="181" y="0" type="move" name="bottom"/>
    </contour>
  </outline>
</glyph>
<glyph name="y" format="1">
  <advance width="453"/>
  <unicode hex="0079"/>
  <outline>
    <contour>
      <point x="126" y="-281"/>
      <point x="421" y="175"/>
      <point x="421" y="326" type="curve" smooth="yes"/>
      <point x="421" y="372"/>
      <point x="401" y="396"/>
      <point x="368" y="396" type="curve" smooth="yes"/>
      <point x="333" y="396"/>
      <point x="310" y="375"/>
      <point x="310" y="345" type="curve" smooth="yes"/>
      <point x="310" y="290"/>
      <point x="371" y="288"/>
      <point x="347" y="191" type="curve" smooth="yes"/>
      <point x="330" y="122"/>
      <point x="172" y="-135"/>
      <point x="99" y="-186" type="curve" smooth="yes"/>
      <point x="53" y="-219"/>
      <point x="26" y="-175"/>
      <point x="-15" y="-175" type="curve" smooth="yes"/>
      <point x="-47" y="-175"/>
      <point x="-68" y="-192"/>
      <point x="-73" y="-221" type="curve" smooth="yes"/>
      <point x="-80" y="-268"/>
      <point x="-50" y="-281"/>
      <point x="-15" y="-281" type="curve" smooth="yes"/>
    </contour>
    <contour>
      <point x="244" y="-16" type="line"/>
      <point x="257" y="207"/>
      <point x="211" y="395"/>
      <point x="122" y="395" type="curve" smooth="yes"/>
      <point x="85" y="395"/>
      <point x="30" y="361"/>
      <point x="6" y="311" type="curve" smooth="yes"/>
      <point x="4" y="305"/>
      <point x="15" y="302"/>
      <point x="18" y="308" type="curve" smooth="yes"/>
      <point x="28" y="325"/>
      <point x="46" y="339"/>
      <point x="63" y="339" type="curve" smooth="yes"/>
      <point x="129" y="339"/>
      <point x="171" y="170"/>
      <point x="164" y="-135" type="curve"/>
    </contour>
    <contour>
      <point x="242" y="386" type="move" name="top"/>
    </contour>
    <contour>
      <point x="193" y="0" type="move" name="bottom"/>
    </contour>
  </outline>
</glyph>
<glyph name="z" format="1">
  <advance width="344"/>
  <unicode hex="007A"/>
  <outline>
    <contour>
      <point x="21" y="16"/>
      <point x="35" y="22"/>
      <point x="56" y="22" type="curve" smooth="yes"/>
      <point x="116" y="20"/>
      <point x="193" y="-4"/>
      <point x="249" y="-5" type="curve" smooth="yes"/>
      <point x="288" y="-6"/>
      <point x="302" y="5"/>
      <point x="331" y="111" type="curve" smooth="yes"/>
      <point x="332" y="116"/>
      <point x="322" y="118"/>
      <point x="320" y="115" type="curve" smooth="yes"/>
      <point x="310" y="88"/>
      <point x="297" y="76"/>
      <point x="275" y="76" type="curve" smooth="yes"/>
      <point x="237" y="76"/>
      <point x="156" y="99"/>
      <point x="105" y="99" type="curve" smooth="yes"/>
      <point x="77" y="99"/>
      <point x="53" y="84"/>
      <point x="35" y="39" type="curve"/>
      <point x="40" y="29" type="line"/>
      <point x="359" y="385" type="line" smooth="yes"/>
      <point x="361" y="387"/>
      <point x="350" y="399"/>
      <point x="346" y="396" type="curve" smooth="yes"/>
      <point x="326" y="373"/>
      <point x="312" y="367"/>
      <point x="291" y="367" type="curve" smooth="yes"/>
      <point x="239" y="370"/>
      <point x="171" y="391"/>
      <point x="125" y="394" type="curve" smooth="yes"/>
      <point x="78" y="395"/>
      <point x="69" y="387"/>
      <point x="36" y="281" type="curve" smooth="yes"/>
      <point x="33" y="274"/>
      <point x="44" y="270"/>
      <point x="47" y="276" type="curve" smooth="yes"/>
      <point x="58" y="302"/>
      <point x="71" y="313"/>
      <point x="97" y="313" type="curve" smooth="yes"/>
      <point x="130" y="313"/>
      <point x="200" y="290"/>
      <point x="243" y="290" type="curve" smooth="yes"/>
      <point x="271" y="290"/>
      <point x="284" y="302"/>
      <point x="302" y="349" type="curve"/>
      <point x="308" y="360" type="line"/>
      <point x="-12" y="6" type="line" smooth="yes"/>
      <point x="-14" y="4"/>
      <point x="-2" y="-9"/>
      <point x="1" y="-7" type="curve" smooth="yes"/>
    </contour>
    <contour>
      <point x="184" y="378" type="move" name="top"/>
    </contour>
    <contour>
      <point x="173" y="0" type="move" name="bottom"/>
    </contour>
  </outline>
</glyph>
<glyph name="braceleft" format="1">
  <advance width="263"/>
  <unicode hex="007B"/>
  <outline>
    <contour>
      <point x="182" y="-117"/>
      <point x="182" y="-105"/>
      <point x="179" y="-105" type="curve" smooth="yes"/>
      <point x="152" y="-105"/>
      <point x="136" y="-65"/>
      <point x="147" y="1" type="curve" smooth="yes"/>
      <point x="184" y="211"/>
      <point x="208" y="258"/>
      <point x="81" y="305" type="curve" smooth="yes"/>
      <point x="195" y="351"/>
      <point x="215" y="393"/>
      <point x="254" y="607" type="curve" smooth="yes"/>
      <point x="265" y="674"/>
      <point x="288" y="713"/>
      <point x="325" y="713" type="curve" smooth="yes"/>
      <point x="329" y="713"/>
      <point x="329" y="725"/>
      <point x="325" y="725" type="curve" smooth="yes"/>
      <point x="212" y="725"/>
      <point x="177" y="698"/>
      <point x="147" y="529" type="curve" smooth="yes"/>
      <point x="118" y="359"/>
      <point x="95" y="322"/>
      <point x="29" y="311" type="curve" smooth="yes"/>
      <point x="26" y="311"/>
      <point x="26" y="298"/>
      <point x="29" y="298" type="curve" smooth="yes"/>
      <point x="95" y="275"/>
      <point x="96" y="237"/>
      <point x="68" y="80" type="curve" smooth="yes"/>
      <point x="39" y="-87"/>
      <point x="49" y="-117"/>
      <point x="179" y="-117" type="curve" smooth="yes"/>
    </contour>
  </outline>
</glyph>
<glyph name="bar" format="1">
  <advance width="152"/>
  <unicode hex="007C"/>
  <outline>
    <contour>
      <point x="193" y="727" type="line" smooth="yes"/>
      <point x="194" y="737"/>
      <point x="152" y="740"/>
      <point x="150" y="731" type="curve" smooth="yes"/>
      <point x="-5" y="-151" type="line" smooth="yes"/>
      <point x="-6" y="-160"/>
      <point x="35" y="-164"/>
      <point x="37" y="-154" type="curve" smooth="yes"/>
    </contour>
  </outline>
</glyph>
<glyph name="asciitilde" format="1">
  <advance width="443"/>
  <unicode hex="007E"/>
  <outline>
    <contour>
      <point x="65" y="164"/>
      <point x="80" y="179"/>
      <point x="118" y="179" type="curve" smooth="yes"/>
      <point x="166" y="179"/>
      <point x="242" y="147"/>
      <point x="285" y="147" type="curve" smooth="yes"/>
      <point x="329" y="147"/>
      <point x="357" y="170"/>
      <point x="408" y="237" type="curve" smooth="yes"/>
      <point x="411" y="241"/>
      <point x="404" y="247"/>
      <point x="401" y="244" type="curve" smooth="yes"/>
      <point x="385" y="227"/>
      <point x="360" y="208"/>
      <point x="320" y="208" type="curve" smooth="yes"/>
      <point x="280" y="208"/>
      <point x="198" y="240"/>
      <point x="153" y="240" type="curve" smooth="yes"/>
      <point x="115" y="240"/>
      <point x="91" y="223"/>
      <point x="36" y="150" type="curve" smooth="yes"/>
      <point x="34" y="146"/>
      <point x="41" y="140"/>
      <point x="43" y="143" type="curve" smooth="yes"/>
    </contour>
  </outline>
</glyph>
<glyph name="cent" format="1">
  <advance width="498"/>
  <unicode hex="00A2"/>
  <outline>
    <contour>
      <point x="216" y="-111"/>
      <point x="241" y="-115"/>
      <point x="242" y="-105" type="curve" smooth="yes"/>
      <point x="360" y="561" type="line" smooth="yes"/>
      <point x="361" y="571"/>
      <point x="337" y="574"/>
      <point x="336" y="565" type="curve" smooth="yes"/>
      <point x="218" y="-102" type="line" smooth="yes"/>
    </contour>
    <contour>
      <point x="196" y="480"/>
      <point x="71" y="379"/>
      <point x="48" y="242" type="curve" smooth="yes"/>
      <point x="29" y="136"/>
      <point x="65" y="-12"/>
      <point x="250" y="-12" type="curve" smooth="yes"/>
      <point x="290" y="-12"/>
      <point x="343" y="-6"/>
      <point x="399" y="13" type="curve" smooth="yes"/>
      <point x="411" y="16"/>
      <point x="409" y="20"/>
      <point x="413" y="30" type="curve" smooth="yes"/>
      <point x="439" y="136" type="line" smooth="yes"/>
      <point x="440" y="143"/>
      <point x="427" y="144"/>
      <point x="425" y="139" type="curve" smooth="yes"/>
      <point x="368" y="46"/>
      <point x="327" y="9"/>
      <point x="263" y="9" type="curve" smooth="yes"/>
      <point x="156" y="9"/>
      <point x="135" y="131"/>
      <point x="154" y="246" type="curve" smooth="yes"/>
      <point x="177" y="368"/>
      <point x="239" y="458"/>
      <point x="327" y="458" type="curve" smooth="yes"/>
      <point x="388" y="458"/>
      <point x="439" y="405"/>
      <point x="455" y="327" type="curve" smooth="yes"/>
      <point x="456" y="322"/>
      <point x="463" y="322"/>
      <point x="464" y="327" type="curve" smooth="yes"/>
      <point x="478" y="430" type="line" smooth="yes"/>
      <point x="480" y="441"/>
      <point x="476" y="444"/>
      <point x="469" y="449" type="curve" smooth="yes"/>
      <point x="439" y="468"/>
      <point x="380" y="480"/>
      <point x="337" y="480" type="curve" smooth="yes"/>
    </contour>
    <contour>
      <point x="312" y="468" type="move" name="top"/>
    </contour>
    <contour>
      <point x="243" y="0" type="move" name="bottom"/>
    </contour>
  </outline>
</glyph>
<glyph name="sterling" format="1">
  <advance width="388"/>
  <unicode hex="00A3"/>
  <outline>
    <contour>
      <point x="301" y="0" type="line" smooth="yes"/>
      <point x="311" y="0"/>
      <point x="315" y="0"/>
      <point x="316" y="9" type="curve" smooth="yes"/>
      <point x="322" y="48"/>
      <point x="336" y="99"/>
      <point x="345" y="125" type="curve" smooth="yes"/>
      <point x="347" y="132"/>
      <point x="336" y="135"/>
      <point x="333" y="130" type="curve" smooth="yes"/>
      <point x="306" y="57"/>
      <point x="290" y="48"/>
      <point x="214" y="48" type="curve" smooth="yes"/>
      <point x="78" y="48" type="line"/>
      <point x="102" y="29" type="line"/>
      <point x="137" y="53"/>
      <point x="171" y="76"/>
      <point x="184" y="143" type="curve" smooth="yes"/>
      <point x="198" y="222"/>
      <point x="170" y="282"/>
      <point x="182" y="357" type="curve" smooth="yes"/>
      <point x="192" y="407"/>
      <point x="216" y="460"/>
      <point x="267" y="460" type="curve" smooth="yes"/>
      <point x="316" y="460"/>
      <point x="335" y="411"/>
      <point x="352" y="343" type="curve" smooth="yes"/>
      <point x="354" y="336"/>
      <point x="363" y="337"/>
      <point x="364" y="340" type="curve" smooth="yes"/>
      <point x="375" y="446" type="line" smooth="yes"/>
      <point x="377" y="455"/>
      <point x="372" y="461"/>
      <point x="361" y="464" type="curve" smooth="yes"/>
      <point x="336" y="475"/>
      <point x="306" y="480"/>
      <point x="284" y="480" type="curve" smooth="yes"/>
      <point x="198" y="480"/>
      <point x="110" y="443"/>
      <point x="90" y="333" type="curve" smooth="yes"/>
      <point x="77" y="261"/>
      <point x="106" y="227"/>
      <point x="92" y="124" type="curve" smooth="yes"/>
      <point x="87" y="80"/>
      <point x="69" y="32"/>
      <point x="-7" y="14" type="curve" smooth="yes"/>
      <point x="-14" y="13"/>
      <point x="-12" y="0"/>
      <point x="-7" y="0" type="curve" smooth="yes"/>
    </contour>
    <contour>
      <point x="265" y="215" type="line" smooth="yes"/>
      <point x="274" y="215"/>
      <point x="274" y="244"/>
      <point x="264" y="244" type="curve" smooth="yes"/>
      <point x="54" y="244" type="line" smooth="yes"/>
      <point x="46" y="244"/>
      <point x="46" y="215"/>
      <point x="55" y="215" type="curve" smooth="yes"/>
    </contour>
    <contour>
      <point x="198" y="625" type="move" name="top"/>
    </contour>
    <contour>
      <point x="206" y="0" type="move" name="bottom"/>
    </contour>
    <contour>
      <point x="502" y="625" type="move" name="topright"/>
    </contour>
  </outline>
</glyph>
<glyph name="currency" format="1">
  <advance width="384"/>
  <unicode hex="00A4"/>
  <outline>
    <contour>
      <point x="84" y="119" type="line"/>
      <point x="28" y="64" type="line"/>
      <point x="53" y="32" type="line"/>
      <point x="108" y="88" type="line"/>
    </contour>
    <contour>
      <point x="149" y="317" type="line"/>
      <point x="111" y="373" type="line"/>
      <point x="73" y="338" type="line"/>
      <point x="112" y="284" type="line"/>
    </contour>
    <contour>
      <point x="237" y="90" type="line"/>
      <point x="274" y="32" type="line"/>
      <point x="315" y="68" type="line"/>
      <point x="274" y="123" type="line"/>
    </contour>
    <contour>
      <point x="298" y="278" type="line"/>
      <point x="361" y="338" type="line"/>
      <point x="337" y="370" type="line"/>
      <point x="275" y="308" type="line"/>
    </contour>
    <contour>
      <point x="228" y="65"/>
      <point x="305" y="111"/>
      <point x="320" y="195" type="curve" smooth="yes"/>
      <point x="333" y="274"/>
      <point x="289" y="335"/>
      <point x="219" y="335" type="curve" smooth="yes"/>
      <point x="160" y="335"/>
      <point x="78" y="296"/>
      <point x="63" y="208" type="curve" smooth="yes"/>
      <point x="51" y="138"/>
      <point x="83" y="65"/>
      <point x="163" y="65" type="curve" smooth="yes"/>
    </contour>
    <contour>
      <point x="129" y="89"/>
      <point x="119" y="158"/>
      <point x="130" y="218" type="curve" smooth="yes"/>
      <point x="140" y="278"/>
      <point x="167" y="311"/>
      <point x="199" y="311" type="curve" smooth="yes"/>
      <point x="247" y="311"/>
      <point x="262" y="249"/>
      <point x="251" y="186" type="curve" smooth="yes"/>
      <point x="240" y="125"/>
      <point x="212" y="89"/>
      <point x="179" y="89" type="curve" smooth="yes"/>
    </contour>
  </outline>
</glyph>
<glyph name="yen" format="1">
  <advance width="448"/>
  <unicode hex="00A5"/>
  <outline>
    <contour>
      <point x="375" y="364" type="line" smooth="yes"/>
      <point x="415" y="421"/>
      <point x="455" y="456"/>
      <point x="492" y="456" type="curve" smooth="yes"/>
      <point x="497" y="456"/>
      <point x="497" y="468"/>
      <point x="492" y="468" type="curve" smooth="yes"/>
      <point x="476" y="468"/>
      <point x="465" y="465"/>
      <point x="443" y="465" type="curve" smooth="yes"/>
      <point x="394" y="465"/>
      <point x="371" y="468"/>
      <point x="335" y="468" type="curve" smooth="yes"/>
      <point x="330" y="468"/>
      <point x="330" y="456"/>
      <point x="335" y="456" type="curve" smooth="yes"/>
      <point x="384" y="456"/>
      <point x="381" y="418"/>
      <point x="350" y="370" type="curve" smooth="yes"/>
      <point x="236" y="196" type="line"/>
      <point x="256" y="192" type="line"/>
    </contour>
    <contour>
      <point x="111" y="0"/>
      <point x="154" y="2"/>
      <point x="196" y="2" type="curve" smooth="yes"/>
      <point x="241" y="2"/>
      <point x="277" y="0"/>
      <point x="310" y="0" type="curve" smooth="yes"/>
      <point x="315" y="0"/>
      <point x="315" y="12"/>
      <point x="310" y="12" type="curve" smooth="yes"/>
      <point x="253" y="12"/>
      <point x="244" y="20"/>
      <point x="255" y="77" type="curve" smooth="yes"/>
      <point x="263" y="127" type="line"/>
      <point x="171" y="127" type="line"/>
      <point x="163" y="84" type="line" smooth="yes"/>
      <point x="152" y="27"/>
      <point x="138" y="12"/>
      <point x="81" y="12" type="curve" smooth="yes"/>
      <point x="76" y="12"/>
      <point x="76" y="0"/>
      <point x="81" y="0" type="curve" smooth="yes"/>
    </contour>
    <contour>
      <point x="349" y="116" type="line" smooth="yes"/>
      <point x="357" y="116"/>
      <point x="356" y="142"/>
      <point x="347" y="142" type="curve" smooth="yes"/>
      <point x="84" y="142" type="line" smooth="yes"/>
      <point x="76" y="142"/>
      <point x="76" y="116"/>
      <point x="85" y="116" type="curve" smooth="yes"/>
    </contour>
    <contour>
      <point x="361" y="187" type="line" smooth="yes"/>
      <point x="370" y="187"/>
      <point x="368" y="213"/>
      <point x="360" y="213" type="curve" smooth="yes"/>
      <point x="97" y="213" type="line" smooth="yes"/>
      <point x="88" y="213"/>
      <point x="89" y="187"/>
      <point x="97" y="187" type="curve" smooth="yes"/>
    </contour>
    <contour>
      <point x="276" y="200" type="line"/>
      <point x="283" y="237" type="line"/>
      <point x="188" y="228" type="line"/>
      <point x="184" y="200" type="line"/>
    </contour>
    <contour>
      <point x="283" y="235" type="line"/>
      <point x="215" y="398" type="line" smooth="yes"/>
      <point x="198" y="441"/>
      <point x="223" y="456"/>
      <point x="261" y="456" type="curve" smooth="yes"/>
      <point x="265" y="456"/>
      <point x="265" y="468"/>
      <point x="261" y="468" type="curve" smooth="yes"/>
      <point x="235" y="468"/>
      <point x="164" y="465"/>
      <point x="119" y="465" type="curve" smooth="yes"/>
      <point x="105" y="465"/>
      <point x="68" y="468"/>
      <point x="50" y="468" type="curve" smooth="yes"/>
      <point x="46" y="468"/>
      <point x="46" y="456"/>
      <point x="50" y="456" type="curve" smooth="yes"/>
      <point x="76" y="456"/>
      <point x="97" y="439"/>
      <point x="117" y="387" type="curve" smooth="yes"/>
      <point x="194" y="193" type="line"/>
    </contour>
  </outline>
</glyph>
<glyph name="brokenbar" format="1">
  <advance width="152"/>
  <unicode hex="00A6"/>
  <outline>
    <contour>
      <point x="193" y="727" type="line" smooth="yes"/>
      <point x="194" y="737"/>
      <point x="151" y="740"/>
      <point x="150" y="731" type="curve" smooth="yes"/>
      <point x="85" y="360" type="line" smooth="yes"/>
      <point x="84" y="351"/>
      <point x="126" y="347"/>
      <point x="127" y="357" type="curve" smooth="yes"/>
    </contour>
    <contour>
      <point x="102" y="213" type="line" smooth="yes"/>
      <point x="103" y="222"/>
      <point x="60" y="226"/>
      <point x="58" y="216" type="curve" smooth="yes"/>
      <point x="-6" y="-154" type="line" smooth="yes"/>
      <point x="-7" y="-164"/>
      <point x="35" y="-167"/>
      <point x="36" y="-158" type="curve" smooth="yes"/>
    </contour>
  </outline>
</glyph>
<glyph name="section" format="1">
  <advance width="408"/>
  <unicode hex="00A7"/>
  <outline>
    <contour>
      <point x="218" y="-188"/>
      <point x="290" y="-154"/>
      <point x="306" y="-76" type="curve" smooth="yes"/>
      <point x="338" y="87"/>
      <point x="119" y="71"/>
      <point x="147" y="262" type="curve" smooth="yes"/>
      <point x="153" y="303"/>
      <point x="170" y="343"/>
      <point x="194" y="364" type="curve"/>
      <point x="188" y="373" type="line"/>
      <point x="129" y="329"/>
      <point x="74" y="275"/>
      <point x="63" y="212" type="curve" smooth="yes"/>
      <point x="37" y="64"/>
      <point x="248" y="35"/>
      <point x="227" y="-102" type="curve" smooth="yes"/>
      <point x="220" y="-144"/>
      <point x="200" y="-163"/>
      <point x="172" y="-163" type="curve" smooth="yes"/>
      <point x="111" y="-163"/>
      <point x="87" y="-75"/>
      <point x="75" y="-36" type="curve" smooth="yes"/>
      <point x="74" y="-33"/>
      <point x="64" y="-33"/>
      <point x="64" y="-36" type="curve" smooth="yes"/>
      <point x="43" y="-159" type="line" smooth="yes"/>
      <point x="42" y="-167"/>
      <point x="46" y="-172"/>
      <point x="50" y="-175" type="curve" smooth="yes"/>
      <point x="70" y="-184"/>
      <point x="101" y="-188"/>
      <point x="131" y="-188" type="curve" smooth="yes"/>
    </contour>
    <contour>
      <point x="316" y="60"/>
      <point x="364" y="115"/>
      <point x="374" y="172" type="curve" smooth="yes"/>
      <point x="401" y="318"/>
      <point x="189" y="349"/>
      <point x="211" y="485" type="curve" smooth="yes"/>
      <point x="218" y="527"/>
      <point x="237" y="546"/>
      <point x="265" y="546" type="curve" smooth="yes"/>
      <point x="326" y="546"/>
      <point x="351" y="458"/>
      <point x="363" y="420" type="curve" smooth="yes"/>
      <point x="364" y="416"/>
      <point x="373" y="416"/>
      <point x="373" y="420" type="curve" smooth="yes"/>
      <point x="394" y="543" type="line" smooth="yes"/>
      <point x="395" y="551"/>
      <point x="392" y="556"/>
      <point x="387" y="559" type="curve" smooth="yes"/>
      <point x="367" y="567"/>
      <point x="337" y="572"/>
      <point x="306" y="572" type="curve" smooth="yes"/>
      <point x="220" y="572"/>
      <point x="147" y="538"/>
      <point x="131" y="460" type="curve" smooth="yes"/>
      <point x="99" y="297"/>
      <point x="317" y="312"/>
      <point x="289" y="122" type="curve" smooth="yes"/>
      <point x="283" y="81"/>
      <point x="267" y="41"/>
      <point x="243" y="20" type="curve"/>
      <point x="249" y="11" type="line"/>
    </contour>
  </outline>
</glyph>
<glyph name="dieresis" format="1">
  <advance width="275"/>
  <unicode hex="00A8"/>
  <outline>
    <contour>
      <point x="306" y="464"/>
      <point x="325" y="484"/>
      <point x="325" y="519" type="curve" smooth="yes"/>
      <point x="325" y="551"/>
      <point x="306" y="570"/>
      <point x="274" y="570" type="curve" smooth="yes"/>
      <point x="240" y="570"/>
      <point x="220" y="551"/>
      <point x="220" y="519" type="curve" smooth="yes"/>
      <point x="220" y="484"/>
      <point x="240" y="464"/>
      <point x="274" y="464" type="curve" smooth="yes"/>
    </contour>
    <contour>
      <point x="147" y="464"/>
      <point x="166" y="484"/>
      <point x="166" y="519" type="curve" smooth="yes"/>
      <point x="166" y="551"/>
      <point x="147" y="570"/>
      <point x="115" y="570" type="curve" smooth="yes"/>
      <point x="81" y="570"/>
      <point x="61" y="551"/>
      <point x="61" y="519" type="curve" smooth="yes"/>
      <point x="61" y="484"/>
      <point x="81" y="464"/>
      <point x="115" y="464" type="curve" smooth="yes"/>
    </contour>
    <contour>
      <point x="171" y="386" type="move" name="_top"/>
    </contour>
  </outline>
</glyph>
<glyph name="copyright" format="1">
  <advance width="727"/>
  <unicode hex="00A9"/>
  <outline>
    <contour>
      <point x="450" y="-106"/>
      <point x="526" y="-92"/>
      <point x="607" y="-28" type="curve" smooth="yes"/>
      <point x="611" y="-26"/>
      <point x="605" y="-18"/>
      <point x="601" y="-20" type="curve" smooth="yes"/>
      <point x="537" y="-60"/>
      <point x="481" y="-71"/>
      <point x="416" y="-71" type="curve" smooth="yes"/>
      <point x="246" y="-71"/>
      <point x="137" y="40"/>
      <point x="137" y="213" type="curve" smooth="yes"/>
      <point x="137" y="357"/>
      <point x="222" y="480"/>
      <point x="375" y="480" type="curve" smooth="yes"/>
      <point x="509" y="480"/>
      <point x="607" y="371"/>
      <point x="607" y="236" type="curve" smooth="yes"/>
      <point x="607" y="132"/>
      <point x="537" y="67"/>
      <point x="463" y="67" type="curve" smooth="yes"/>
      <point x="359" y="67"/>
      <point x="317" y="143"/>
      <point x="317" y="230" type="curve" smooth="yes"/>
      <point x="317" y="302"/>
      <point x="326" y="340"/>
      <point x="370" y="340" type="curve" smooth="yes"/>
      <point x="400" y="340"/>
      <point x="412" y="318"/>
      <point x="423" y="297" type="curve" smooth="yes"/>
      <point x="433" y="278"/>
      <point x="444" y="261"/>
      <point x="467" y="261" type="curve" smooth="yes"/>
      <point x="497" y="261"/>
      <point x="510" y="277"/>
      <point x="510" y="303" type="curve" smooth="yes"/>
      <point x="510" y="346"/>
      <point x="453" y="364"/>
      <point x="402" y="364" type="curve" smooth="yes"/>
      <point x="316" y="364"/>
      <point x="226" y="303"/>
      <point x="226" y="195" type="curve" smooth="yes"/>
      <point x="226" y="120"/>
      <point x="275" y="39"/>
      <point x="409" y="39" type="curve" smooth="yes"/>
      <point x="566" y="39"/>
      <point x="674" y="151"/>
      <point x="674" y="268" type="curve" smooth="yes"/>
      <point x="674" y="392"/>
      <point x="572" y="503"/>
      <point x="411" y="503" type="curve" smooth="yes"/>
      <point x="234" y="503"/>
      <point x="63" y="375"/>
      <point x="63" y="187" type="curve" smooth="yes"/>
      <point x="63" y="1"/>
      <point x="209" y="-106"/>
      <point x="380" y="-106" type="curve" smooth="yes"/>
    </contour>
    <contour>
      <point x="340" y="309" type="move" name="top"/>
    </contour>
    <contour>
      <point x="349" y="0" type="move" name="bottom"/>
    </contour>
  </outline>
</glyph>
<glyph name="ordfeminine" format="1">
  <advance width="276"/>
  <unicode hex="00AA"/>
  <outline>
    <contour>
      <point x="145" y="361"/>
      <point x="211" y="412"/>
      <point x="243" y="537" type="curve"/>
      <point x="223" y="525" type="line" smooth="yes"/>
      <point x="207" y="426" type="line" smooth="yes"/>
      <point x="200" y="384"/>
      <point x="209" y="364"/>
      <point x="236" y="364" type="curve" smooth="yes"/>
      <point x="261" y="364"/>
      <point x="288" y="384"/>
      <point x="317" y="420" type="curve" smooth="yes"/>
      <point x="319" y="422"/>
      <point x="311" y="430"/>
      <point x="309" y="428" type="curve" smooth="yes"/>
      <point x="291" y="409"/>
      <point x="277" y="396"/>
      <point x="268" y="396" type="curve" smooth="yes"/>
      <point x="260" y="396"/>
      <point x="256" y="406"/>
      <point x="260" y="426" type="curve" smooth="yes"/>
      <point x="299" y="635" type="line" smooth="yes"/>
      <point x="299" y="637"/>
      <point x="294" y="640"/>
      <point x="291" y="637" type="curve" smooth="yes"/>
      <point x="281" y="621"/>
      <point x="263" y="608"/>
      <point x="249" y="606" type="curve"/>
      <point x="288" y="586" type="line"/>
      <point x="284" y="619"/>
      <point x="253" y="633"/>
      <point x="227" y="633" type="curve" smooth="yes"/>
      <point x="157" y="633"/>
      <point x="68" y="524"/>
      <point x="55" y="440" type="curve" smooth="yes"/>
      <point x="47" y="384"/>
      <point x="65" y="361"/>
      <point x="94" y="361" type="curve" smooth="yes"/>
    </contour>
    <contour>
      <point x="269" y="283" type="line" smooth="yes"/>
      <point x="275" y="283"/>
      <point x="275" y="313"/>
      <point x="269" y="313" type="curve" smooth="yes"/>
      <point x="43" y="313" type="line" smooth="yes"/>
      <point x="39" y="313"/>
      <point x="39" y="283"/>
      <point x="44" y="283" type="curve" smooth="yes"/>
    </contour>
    <contour>
      <point x="115" y="406"/>
      <point x="102" y="427"/>
      <point x="113" y="490" type="curve" smooth="yes"/>
      <point x="125" y="554"/>
      <point x="156" y="601"/>
      <point x="195" y="601" type="curve" smooth="yes"/>
      <point x="222" y="601"/>
      <point x="235" y="579"/>
      <point x="227" y="540" type="curve" smooth="yes"/>
      <point x="219" y="488"/>
      <point x="174" y="406"/>
      <point x="133" y="406" type="curve" smooth="yes"/>
    </contour>
    <contour>
      <point x="247" y="378" type="move" name="ogonek"/>
    </contour>
    <contour>
      <point x="92" y="370" type="move" name="bottom"/>
    </contour>
    <contour>
      <point x="138" y="625" type="move" name="top"/>
    </contour>
  </outline>
</glyph>
<glyph name="guillemetleft" format="1">
  <advance width="434"/>
  <unicode hex="00AB"/>
  <outline>
    <contour>
      <point x="47" y="212" type="line" smooth="yes"/>
      <point x="39" y="205"/>
      <point x="39" y="195"/>
      <point x="43" y="189" type="curve" smooth="yes"/>
      <point x="198" y="40" type="line" smooth="yes"/>
      <point x="200" y="36"/>
      <point x="208" y="43"/>
      <point x="206" y="47" type="curve" smooth="yes"/>
      <point x="150" y="201" type="line"/>
      <point x="260" y="356" type="line" smooth="yes"/>
      <point x="263" y="359"/>
      <point x="255" y="366"/>
      <point x="251" y="364" type="curve" smooth="yes"/>
    </contour>
    <contour>
      <point x="194" y="212" type="line" smooth="yes"/>
      <point x="186" y="205"/>
      <point x="186" y="195"/>
      <point x="191" y="189" type="curve" smooth="yes"/>
      <point x="345" y="40" type="line" smooth="yes"/>
      <point x="347" y="36"/>
      <point x="356" y="43"/>
      <point x="353" y="47" type="curve" smooth="yes"/>
      <point x="297" y="201" type="line"/>
      <point x="407" y="356" type="line" smooth="yes"/>
      <point x="411" y="359"/>
      <point x="402" y="366"/>
      <point x="399" y="364" type="curve" smooth="yes"/>
    </contour>
  </outline>
</glyph>
<glyph name="logicalnot" format="1">
  <advance width="407"/>
  <unicode hex="00AC"/>
  <outline>
    <contour>
      <point x="370" y="225" type="line"/>
      <point x="370" y="271" type="line"/>
      <point x="39" y="271" type="line" smooth="yes"/>
      <point x="34" y="271"/>
      <point x="34" y="225"/>
      <point x="40" y="225" type="curve" smooth="yes"/>
    </contour>
    <contour>
      <point x="323" y="76"/>
      <point x="370" y="76"/>
      <point x="370" y="82" type="curve" smooth="yes"/>
      <point x="370" y="271" type="line"/>
      <point x="323" y="271" type="line"/>
      <point x="323" y="81" type="line" smooth="yes"/>
    </contour>
  </outline>
</glyph>
<glyph name="registered" format="1">
  <advance width="751"/>
  <unicode hex="00AE"/>
  <outline>
    <contour>
      <point x="586" y="138"/>
      <point x="727" y="277"/>
      <point x="727" y="451" type="curve" smooth="yes"/>
      <point x="727" y="607"/>
      <point x="614" y="725"/>
      <point x="437" y="725" type="curve" smooth="yes"/>
      <point x="262" y="725"/>
      <point x="104" y="609"/>
      <point x="104" y="419" type="curve" smooth="yes"/>
      <point x="104" y="247"/>
      <point x="251" y="138"/>
      <point x="404" y="138" type="curve" smooth="yes"/>
    </contour>
    <contour>
      <point x="287" y="164"/>
      <point x="166" y="284"/>
      <point x="166" y="456" type="curve" smooth="yes"/>
      <point x="166" y="585"/>
      <point x="234" y="701"/>
      <point x="399" y="701" type="curve" smooth="yes"/>
      <point x="553" y="701"/>
      <point x="661" y="598"/>
      <point x="661" y="418" type="curve" smooth="yes"/>
      <point x="661" y="273"/>
      <point x="591" y="164"/>
      <point x="442" y="164" type="curve" smooth="yes"/>
    </contour>
    <contour>
      <point x="270" y="280"/>
      <point x="302" y="281"/>
      <point x="325" y="281" type="curve" smooth="yes"/>
      <point x="354" y="281"/>
      <point x="378" y="280"/>
      <point x="398" y="280" type="curve" smooth="yes"/>
      <point x="400" y="280"/>
      <point x="402" y="291"/>
      <point x="400" y="291" type="curve" smooth="yes"/>
      <point x="364" y="291"/>
      <point x="359" y="296"/>
      <point x="366" y="336" type="curve" smooth="yes"/>
      <point x="404" y="549" type="line" smooth="yes"/>
      <point x="412" y="595"/>
      <point x="421" y="596"/>
      <point x="447" y="596" type="curve" smooth="yes"/>
      <point x="474" y="596"/>
      <point x="488" y="574"/>
      <point x="477" y="520" type="curve" smooth="yes"/>
      <point x="467" y="461"/>
      <point x="443" y="446"/>
      <point x="367" y="455" type="curve"/>
      <point x="364" y="439" type="line"/>
      <point x="453" y="432"/>
      <point x="540" y="464"/>
      <point x="553" y="540" type="curve" smooth="yes"/>
      <point x="563" y="589"/>
      <point x="532" y="609"/>
      <point x="465" y="609" type="curve" smooth="yes"/>
      <point x="443" y="609"/>
      <point x="407" y="606"/>
      <point x="382" y="606" type="curve" smooth="yes"/>
      <point x="359" y="606"/>
      <point x="332" y="607"/>
      <point x="312" y="607" type="curve" smooth="yes"/>
      <point x="310" y="607"/>
      <point x="308" y="595"/>
      <point x="310" y="595" type="curve" smooth="yes"/>
      <point x="338" y="595"/>
      <point x="340" y="587"/>
      <point x="333" y="551" type="curve" smooth="yes"/>
      <point x="296" y="336" type="line" smooth="yes"/>
      <point x="289" y="296"/>
      <point x="284" y="291"/>
      <point x="256" y="291" type="curve" smooth="yes"/>
      <point x="254" y="291"/>
      <point x="251" y="280"/>
      <point x="254" y="280" type="curve" smooth="yes"/>
    </contour>
    <contour>
      <point x="497" y="280"/>
      <point x="532" y="280"/>
      <point x="581" y="280" type="curve" smooth="yes"/>
      <point x="584" y="280"/>
      <point x="585" y="287"/>
      <point x="582" y="288" type="curve" smooth="yes"/>
      <point x="539" y="316"/>
      <point x="513" y="357"/>
      <point x="483" y="457" type="curve"/>
      <point x="421" y="443" type="line"/>
      <point x="449" y="344"/>
      <point x="470" y="280"/>
      <point x="483" y="280" type="curve" smooth="yes"/>
    </contour>
    <contour>
      <point x="409" y="595" type="move" name="top"/>
    </contour>
    <contour>
      <point x="448" y="268" type="move" name="bottom"/>
    </contour>
  </outline>
</glyph>
<glyph name="macron" format="1">
  <advance width="333"/>
  <unicode hex="00AF"/>
  <outline>
    <contour>
      <point x="333" y="473" type="line" smooth="yes"/>
      <point x="347" y="473"/>
      <point x="347" y="513"/>
      <point x="333" y="513" type="curve" smooth="yes"/>
      <point x="105" y="513" type="line" smooth="yes"/>
      <point x="92" y="513"/>
      <point x="92" y="473"/>
      <point x="105" y="473" type="curve" smooth="yes"/>
    </contour>
    <contour>
      <point x="195" y="386" type="move" name="_top"/>
    </contour>
  </outline>
</glyph>
<glyph name="degree" format="1">
  <advance width="299"/>
  <unicode hex="00B0"/>
  <outline>
    <contour>
      <point x="258" y="373"/>
      <point x="323" y="421"/>
      <point x="336" y="489" type="curve" smooth="yes"/>
      <point x="347" y="553"/>
      <point x="320" y="630"/>
      <point x="226" y="630" type="curve" smooth="yes"/>
      <point x="145" y="630"/>
      <point x="83" y="575"/>
      <point x="71" y="515" type="curve" smooth="yes"/>
      <point x="60" y="454"/>
      <point x="88" y="373"/>
      <point x="184" y="373" type="curve" smooth="yes"/>
    </contour>
    <contour>
      <point x="153" y="393"/>
      <point x="145" y="453"/>
      <point x="156" y="518" type="curve" smooth="yes"/>
      <point x="163" y="563"/>
      <point x="179" y="611"/>
      <point x="215" y="611" type="curve" smooth="yes"/>
      <point x="253" y="611"/>
      <point x="262" y="560"/>
      <point x="251" y="482" type="curve" smooth="yes"/>
      <point x="246" y="440"/>
      <point x="235" y="393"/>
      <point x="196" y="393" type="curve" smooth="yes"/>
    </contour>
    <contour>
      <point x="302" y="695" type="move" name="top"/>
    </contour>
  </outline>
</glyph>
<glyph name="plusminus" format="1">
  <advance width="398"/>
  <unicode hex="00B1"/>
  <outline>
    <contour>
      <point x="364" y="1" type="line" smooth="yes"/>
      <point x="370" y="1"/>
      <point x="370" y="44"/>
      <point x="364" y="44" type="curve" smooth="yes"/>
      <point x="33" y="44" type="line" smooth="yes"/>
      <point x="28" y="44"/>
      <point x="28" y="1"/>
      <point x="34" y="1" type="curve" smooth="yes"/>
    </contour>
    <contour>
      <point x="364" y="229" type="line" smooth="yes"/>
      <point x="370" y="229"/>
      <point x="370" y="276"/>
      <point x="364" y="276" type="curve" smooth="yes"/>
      <point x="33" y="276" type="line" smooth="yes"/>
      <point x="28" y="276"/>
      <point x="28" y="229"/>
      <point x="34" y="229" type="curve" smooth="yes"/>
    </contour>
    <contour>
      <point x="222" y="418" type="line" smooth="yes"/>
      <point x="222" y="423"/>
      <point x="175" y="423"/>
      <point x="175" y="418" type="curve" smooth="yes"/>
      <point x="175" y="87" type="line" smooth="yes"/>
      <point x="175" y="82"/>
      <point x="222" y="82"/>
      <point x="222" y="88" type="curve" smooth="yes"/>
    </contour>
  </outline>
</glyph>
<glyph name="acute" format="1">
  <advance width="212"/>
  <unicode hex="00B4"/>
  <outline>
    <contour>
      <point x="284" y="727" type="line" smooth="yes"/>
      <point x="292" y="739"/>
      <point x="187" y="729"/>
      <point x="184" y="716" type="curve" smooth="yes"/>
      <point x="109" y="476" type="line" smooth="yes"/>
      <point x="106" y="473"/>
      <point x="117" y="469"/>
      <point x="119" y="473" type="curve" smooth="yes"/>
    </contour>
    <contour>
      <point x="112" y="386" type="move" name="_top"/>
    </contour>
  </outline>
</glyph>
<glyph name="paragraph" format="1">
  <advance width="594"/>
  <unicode hex="00B6"/>
  <outline>
    <contour>
      <point x="342" y="-193"/>
      <point x="408" y="-118"/>
      <point x="439" y="55" type="curve" smooth="yes"/>
      <point x="522" y="532" type="line" smooth="yes"/>
      <point x="531" y="584"/>
      <point x="567" y="613"/>
      <point x="619" y="613" type="curve" smooth="yes"/>
      <point x="625" y="613"/>
      <point x="625" y="625"/>
      <point x="619" y="625" type="curve" smooth="yes"/>
      <point x="589" y="625"/>
      <point x="553" y="622"/>
      <point x="519" y="622" type="curve" smooth="yes"/>
      <point x="467" y="622"/>
      <point x="427" y="628"/>
      <point x="386" y="628" type="curve" smooth="yes"/>
      <point x="228" y="628"/>
      <point x="113" y="547"/>
      <point x="82" y="386" type="curve" smooth="yes"/>
      <point x="51" y="187"/>
      <point x="166" y="122"/>
      <point x="275" y="122" type="curve" smooth="yes"/>
      <point x="305" y="122"/>
      <point x="330" y="123"/>
      <point x="354" y="125" type="curve"/>
      <point x="333" y="8" type="line" smooth="yes"/>
      <point x="306" y="-142"/>
      <point x="305" y="-167"/>
      <point x="275" y="-167" type="curve" smooth="yes"/>
      <point x="226" y="-167"/>
      <point x="262" y="-99"/>
      <point x="206" y="-99" type="curve" smooth="yes"/>
      <point x="182" y="-99"/>
      <point x="165" y="-111"/>
      <point x="161" y="-138" type="curve" smooth="yes"/>
      <point x="157" y="-173"/>
      <point x="185" y="-193"/>
      <point x="239" y="-193" type="curve" smooth="yes"/>
    </contour>
  </outline>
</glyph>
